<?xml version="1.0" encoding="UTF-8" standalone="no"?><svg xmlns="http://www.w3.org/2000/svg" xmlns:xlink="http://www.w3.org/1999/xlink" contentStyleType="text/css" height="1662px" preserveAspectRatio="none" style="width:3199px;height:1662px;background:#FFFFFF;" version="1.1" viewBox="0 0 3199 1662" width="3199px" zoomAndPan="magnify"><defs/><g><!--MD5=[eaeba4f16e7e70a021adc05af45bc575]
cluster pygame--><g id="cluster_pygame"><path d="M2163,6 L2218,6 A3.75,3.75 0 0 1 2220.5,8.5 L2227.5,29.6094 L2491,29.6094 A2.5,2.5 0 0 1 2493.5,32.1094 L2493.5,171.5 A2.5,2.5 0 0 1 2491,174 L2163,174 A2.5,2.5 0 0 1 2160.5,171.5 L2160.5,8.5 A2.5,2.5 0 0 1 2163,6 " fill="none" style="stroke:#000000;stroke-width:1.5;"/><line style="stroke:#000000;stroke-width:1.5;" x1="2160.5" x2="2227.5" y1="29.6094" y2="29.6094"/><text fill="#000000" font-family="sans-serif" font-size="14" font-weight="bold" lengthAdjust="spacing" textLength="54" x="2164.5" y="22.5332">pygame</text></g><!--MD5=[3dab47d3fc3e186ff10f67819eb99ff8]
cluster time--><g id="cluster_time"><path d="M2376,50 L2407,50 A3.75,3.75 0 0 1 2409.5,52.5 L2416.5,73.6094 L2467,73.6094 A2.5,2.5 0 0 1 2469.5,76.1094 L2469.5,147.5 A2.5,2.5 0 0 1 2467,150 L2376,150 A2.5,2.5 0 0 1 2373.5,147.5 L2373.5,52.5 A2.5,2.5 0 0 1 2376,50 " fill="none" style="stroke:#000000;stroke-width:1.5;"/><line style="stroke:#000000;stroke-width:1.5;" x1="2373.5" x2="2416.5" y1="73.6094" y2="73.6094"/><text fill="#000000" font-family="sans-serif" font-size="14" font-weight="bold" lengthAdjust="spacing" textLength="30" x="2377.5" y="66.5332">time</text></g><!--MD5=[c52f45833d539af9e29a9d34b8b7302b]
cluster utils--><g id="cluster_utils"><path d="M2969,32.5 L3000,32.5 A3.75,3.75 0 0 1 3002.5,35 L3009.5,56.1094 L3190,56.1094 A2.5,2.5 0 0 1 3192.5,58.6094 L3192.5,165 A2.5,2.5 0 0 1 3190,167.5 L2969,167.5 A2.5,2.5 0 0 1 2966.5,165 L2966.5,35 A2.5,2.5 0 0 1 2969,32.5 " fill="none" style="stroke:#000000;stroke-width:1.5;"/><line style="stroke:#000000;stroke-width:1.5;" x1="2966.5" x2="3009.5" y1="56.1094" y2="56.1094"/><text fill="#000000" font-family="sans-serif" font-size="14" font-weight="bold" lengthAdjust="spacing" textLength="30" x="2970.5" y="49.0332">utils</text></g><!--MD5=[73dcc372dc65ac438670c7443995906c]
cluster pygame.sprite--><g id="cluster_pygame.sprite"><path d="M1283,50 L1383,50 A3.75,3.75 0 0 1 1385.5,52.5 L1392.5,73.6094 L1408,73.6094 A2.5,2.5 0 0 1 1410.5,76.1094 L1410.5,147.5 A2.5,2.5 0 0 1 1408,150 L1283,150 A2.5,2.5 0 0 1 1280.5,147.5 L1280.5,52.5 A2.5,2.5 0 0 1 1283,50 " fill="none" style="stroke:#000000;stroke-width:1.5;"/><line style="stroke:#000000;stroke-width:1.5;" x1="1280.5" x2="1392.5" y1="73.6094" y2="73.6094"/><text fill="#000000" font-family="sans-serif" font-size="14" font-weight="bold" lengthAdjust="spacing" textLength="99" x="1284.5" y="66.5332">pygame.sprite</text></g><!--MD5=[ba5488cfce401bc15d39e931bace8028]
cluster pygame_gui--><g id="cluster_pygame_gui"><path d="M2813,50 L2898,50 A3.75,3.75 0 0 1 2900.5,52.5 L2907.5,73.6094 L2940,73.6094 A2.5,2.5 0 0 1 2942.5,76.1094 L2942.5,147.5 A2.5,2.5 0 0 1 2940,150 L2813,150 A2.5,2.5 0 0 1 2810.5,147.5 L2810.5,52.5 A2.5,2.5 0 0 1 2813,50 " fill="none" style="stroke:#000000;stroke-width:1.5;"/><line style="stroke:#000000;stroke-width:1.5;" x1="2810.5" x2="2907.5" y1="73.6094" y2="73.6094"/><text fill="#000000" font-family="sans-serif" font-size="14" font-weight="bold" lengthAdjust="spacing" textLength="84" x="2814.5" y="66.5332">pygame_gui</text></g><!--MD5=[ebbdf34a4e08d830937e173a419c8362]
cluster assets--><g id="cluster_assets"><path d="M1501,567.5 L1548,567.5 A3.75,3.75 0 0 1 1550.5,570 L1557.5,591.1094 L1596,591.1094 A2.5,2.5 0 0 1 1598.5,593.6094 L1598.5,665 A2.5,2.5 0 0 1 1596,667.5 L1501,667.5 A2.5,2.5 0 0 1 1498.5,665 L1498.5,570 A2.5,2.5 0 0 1 1501,567.5 " fill="none" style="stroke:#000000;stroke-width:1.5;"/><line style="stroke:#000000;stroke-width:1.5;" x1="1498.5" x2="1557.5" y1="591.1094" y2="591.1094"/><text fill="#000000" font-family="sans-serif" font-size="14" font-weight="bold" lengthAdjust="spacing" textLength="46" x="1502.5" y="584.0332">assets</text></g><!--MD5=[b501cdf62b71b5aa3fcde3a7d416f7d0]
cluster numpy--><g id="cluster_numpy"><path d="M2734,567.5 L2781,567.5 A3.75,3.75 0 0 1 2783.5,570 L2790.5,591.1094 L2843,591.1094 A2.5,2.5 0 0 1 2845.5,593.6094 L2845.5,665 A2.5,2.5 0 0 1 2843,667.5 L2734,667.5 A2.5,2.5 0 0 1 2731.5,665 L2731.5,570 A2.5,2.5 0 0 1 2734,567.5 " fill="none" style="stroke:#000000;stroke-width:1.5;"/><line style="stroke:#000000;stroke-width:1.5;" x1="2731.5" x2="2790.5" y1="591.1094" y2="591.1094"/><text fill="#000000" font-family="sans-serif" font-size="14" font-weight="bold" lengthAdjust="spacing" textLength="46" x="2735.5" y="584.0332">numpy</text></g><!--MD5=[ab68c5f87c530f9403de043a5fd4b6c2]
class pygame.Rect--><g id="elem_pygame.Rect"><rect fill="#F1F1F1" height="48" id="pygame.Rect" rx="2.5" ry="2.5" style="stroke:#181818;stroke-width:0.5;" width="61" x="2177" y="86"/><ellipse cx="2192" cy="102" fill="#ADD1B2" rx="11" ry="11" style="stroke:#181818;stroke-width:1.0;"/><path d="M2194.7656,97.875 Q2194.9219,97.6563 2195.1094,97.5469 Q2195.2969,97.4375 2195.5156,97.4375 Q2195.8906,97.4375 2196.125,97.6953 Q2196.3594,97.9531 2196.3594,98.5625 L2196.3594,100.0156 Q2196.3594,100.625 2196.125,100.8906 Q2195.8906,101.1563 2195.5156,101.1563 Q2195.1719,101.1563 2194.9688,100.9531 Q2194.7656,100.7656 2194.6563,100.25 Q2194.6094,99.8906 2194.4219,99.7031 Q2194.0938,99.3281 2193.4844,99.1094 Q2192.875,98.8906 2192.25,98.8906 Q2191.4844,98.8906 2190.8516,99.2188 Q2190.2188,99.5469 2189.7266,100.2969 Q2189.2344,101.0469 2189.2344,102.0781 L2189.2344,103.1719 Q2189.2344,104.4063 2190.125,105.2266 Q2191.0156,106.0469 2192.6094,106.0469 Q2193.5469,106.0469 2194.2031,105.7969 Q2194.5938,105.6406 2195.0156,105.2031 Q2195.2813,104.9375 2195.4297,104.8594 Q2195.5781,104.7813 2195.7813,104.7813 Q2196.1094,104.7813 2196.3672,105.0391 Q2196.625,105.2969 2196.625,105.6406 Q2196.625,105.9844 2196.2813,106.3906 Q2195.7813,106.9688 2194.9844,107.2969 Q2193.9063,107.75 2192.6094,107.75 Q2191.0938,107.75 2189.8906,107.125 Q2188.9063,106.625 2188.2188,105.5547 Q2187.5313,104.4844 2187.5313,103.2031 L2187.5313,102.0469 Q2187.5313,100.7188 2188.1484,99.5703 Q2188.7656,98.4219 2189.8594,97.8047 Q2190.9531,97.1875 2192.1875,97.1875 Q2192.9219,97.1875 2193.5703,97.3516 Q2194.2188,97.5156 2194.7656,97.875 Z " fill="#000000"/><text fill="#000000" font-family="sans-serif" font-size="14" lengthAdjust="spacing" textLength="29" x="2206" y="107.7285">Rect</text><line style="stroke:#181818;stroke-width:0.5;" x1="2178" x2="2237" y1="118" y2="118"/><line style="stroke:#181818;stroke-width:0.5;" x1="2178" x2="2237" y1="126" y2="126"/></g><!--MD5=[923b8d894269a01300447b4381791f24]
class pygame.Surface--><g id="elem_pygame.Surface"><rect fill="#F1F1F1" height="48" id="pygame.Surface" rx="2.5" ry="2.5" style="stroke:#181818;stroke-width:0.5;" width="81" x="2273" y="86"/><ellipse cx="2288" cy="102" fill="#ADD1B2" rx="11" ry="11" style="stroke:#181818;stroke-width:1.0;"/><path d="M2290.7656,97.875 Q2290.9219,97.6563 2291.1094,97.5469 Q2291.2969,97.4375 2291.5156,97.4375 Q2291.8906,97.4375 2292.125,97.6953 Q2292.3594,97.9531 2292.3594,98.5625 L2292.3594,100.0156 Q2292.3594,100.625 2292.125,100.8906 Q2291.8906,101.1563 2291.5156,101.1563 Q2291.1719,101.1563 2290.9688,100.9531 Q2290.7656,100.7656 2290.6563,100.25 Q2290.6094,99.8906 2290.4219,99.7031 Q2290.0938,99.3281 2289.4844,99.1094 Q2288.875,98.8906 2288.25,98.8906 Q2287.4844,98.8906 2286.8516,99.2188 Q2286.2188,99.5469 2285.7266,100.2969 Q2285.2344,101.0469 2285.2344,102.0781 L2285.2344,103.1719 Q2285.2344,104.4063 2286.125,105.2266 Q2287.0156,106.0469 2288.6094,106.0469 Q2289.5469,106.0469 2290.2031,105.7969 Q2290.5938,105.6406 2291.0156,105.2031 Q2291.2813,104.9375 2291.4297,104.8594 Q2291.5781,104.7813 2291.7813,104.7813 Q2292.1094,104.7813 2292.3672,105.0391 Q2292.625,105.2969 2292.625,105.6406 Q2292.625,105.9844 2292.2813,106.3906 Q2291.7813,106.9688 2290.9844,107.2969 Q2289.9063,107.75 2288.6094,107.75 Q2287.0938,107.75 2285.8906,107.125 Q2284.9063,106.625 2284.2188,105.5547 Q2283.5313,104.4844 2283.5313,103.2031 L2283.5313,102.0469 Q2283.5313,100.7188 2284.1484,99.5703 Q2284.7656,98.4219 2285.8594,97.8047 Q2286.9531,97.1875 2288.1875,97.1875 Q2288.9219,97.1875 2289.5703,97.3516 Q2290.2188,97.5156 2290.7656,97.875 Z " fill="#000000"/><text fill="#000000" font-family="sans-serif" font-size="14" lengthAdjust="spacing" textLength="49" x="2302" y="107.7285">Surface</text><line style="stroke:#181818;stroke-width:0.5;" x1="2274" x2="2353" y1="118" y2="118"/><line style="stroke:#181818;stroke-width:0.5;" x1="2274" x2="2353" y1="126" y2="126"/></g><!--MD5=[ef4524b361486e59c9809e48a45b23f0]
class pygame.time.clock--><g id="elem_pygame.time.clock"><rect fill="#F1F1F1" height="48" id="pygame.time.clock" rx="2.5" ry="2.5" style="stroke:#181818;stroke-width:0.5;" width="64" x="2389.5" y="86"/><ellipse cx="2404.5" cy="102" fill="#ADD1B2" rx="11" ry="11" style="stroke:#181818;stroke-width:1.0;"/><path d="M2407.2656,97.875 Q2407.4219,97.6563 2407.6094,97.5469 Q2407.7969,97.4375 2408.0156,97.4375 Q2408.3906,97.4375 2408.625,97.6953 Q2408.8594,97.9531 2408.8594,98.5625 L2408.8594,100.0156 Q2408.8594,100.625 2408.625,100.8906 Q2408.3906,101.1563 2408.0156,101.1563 Q2407.6719,101.1563 2407.4688,100.9531 Q2407.2656,100.7656 2407.1563,100.25 Q2407.1094,99.8906 2406.9219,99.7031 Q2406.5938,99.3281 2405.9844,99.1094 Q2405.375,98.8906 2404.75,98.8906 Q2403.9844,98.8906 2403.3516,99.2188 Q2402.7188,99.5469 2402.2266,100.2969 Q2401.7344,101.0469 2401.7344,102.0781 L2401.7344,103.1719 Q2401.7344,104.4063 2402.625,105.2266 Q2403.5156,106.0469 2405.1094,106.0469 Q2406.0469,106.0469 2406.7031,105.7969 Q2407.0938,105.6406 2407.5156,105.2031 Q2407.7813,104.9375 2407.9297,104.8594 Q2408.0781,104.7813 2408.2813,104.7813 Q2408.6094,104.7813 2408.8672,105.0391 Q2409.125,105.2969 2409.125,105.6406 Q2409.125,105.9844 2408.7813,106.3906 Q2408.2813,106.9688 2407.4844,107.2969 Q2406.4063,107.75 2405.1094,107.75 Q2403.5938,107.75 2402.3906,107.125 Q2401.4063,106.625 2400.7188,105.5547 Q2400.0313,104.4844 2400.0313,103.2031 L2400.0313,102.0469 Q2400.0313,100.7188 2400.6484,99.5703 Q2401.2656,98.4219 2402.3594,97.8047 Q2403.4531,97.1875 2404.6875,97.1875 Q2405.4219,97.1875 2406.0703,97.3516 Q2406.7188,97.5156 2407.2656,97.875 Z " fill="#000000"/><text fill="#000000" font-family="sans-serif" font-size="14" lengthAdjust="spacing" textLength="32" x="2418.5" y="107.7285">clock</text><line style="stroke:#181818;stroke-width:0.5;" x1="2390.5" x2="2452.5" y1="118" y2="118"/><line style="stroke:#181818;stroke-width:0.5;" x1="2390.5" x2="2452.5" y1="126" y2="126"/></g><!--MD5=[3a7cf800944e5f3d9e9c59d889c61f3b]
class Reference--><g id="elem_Reference"><rect codeLine="9" fill="#F1F1F1" height="83.2188" id="Reference" rx="2.5" ry="2.5" style="stroke:#181818;stroke-width:0.5;" width="193" x="2983" y="68.5"/><ellipse cx="3042.25" cy="84.5" fill="#ADD1B2" rx="11" ry="11" style="stroke:#181818;stroke-width:1.0;"/><path d="M3045.0156,80.375 Q3045.1719,80.1563 3045.3594,80.0469 Q3045.5469,79.9375 3045.7656,79.9375 Q3046.1406,79.9375 3046.375,80.1953 Q3046.6094,80.4531 3046.6094,81.0625 L3046.6094,82.5156 Q3046.6094,83.125 3046.375,83.3906 Q3046.1406,83.6563 3045.7656,83.6563 Q3045.4219,83.6563 3045.2188,83.4531 Q3045.0156,83.2656 3044.9063,82.75 Q3044.8594,82.3906 3044.6719,82.2031 Q3044.3438,81.8281 3043.7344,81.6094 Q3043.125,81.3906 3042.5,81.3906 Q3041.7344,81.3906 3041.1016,81.7188 Q3040.4688,82.0469 3039.9766,82.7969 Q3039.4844,83.5469 3039.4844,84.5781 L3039.4844,85.6719 Q3039.4844,86.9063 3040.375,87.7266 Q3041.2656,88.5469 3042.8594,88.5469 Q3043.7969,88.5469 3044.4531,88.2969 Q3044.8438,88.1406 3045.2656,87.7031 Q3045.5313,87.4375 3045.6797,87.3594 Q3045.8281,87.2813 3046.0313,87.2813 Q3046.3594,87.2813 3046.6172,87.5391 Q3046.875,87.7969 3046.875,88.1406 Q3046.875,88.4844 3046.5313,88.8906 Q3046.0313,89.4688 3045.2344,89.7969 Q3044.1563,90.25 3042.8594,90.25 Q3041.3438,90.25 3040.1406,89.625 Q3039.1563,89.125 3038.4688,88.0547 Q3037.7813,86.9844 3037.7813,85.7031 L3037.7813,84.5469 Q3037.7813,83.2188 3038.3984,82.0703 Q3039.0156,80.9219 3040.1094,80.3047 Q3041.2031,79.6875 3042.4375,79.6875 Q3043.1719,79.6875 3043.8203,79.8516 Q3044.4688,80.0156 3045.0156,80.375 Z " fill="#000000"/><text fill="#000000" font-family="sans-serif" font-size="14" lengthAdjust="spacing" textLength="66" x="3062.75" y="90.2285">Reference</text><line style="stroke:#181818;stroke-width:0.5;" x1="2984" x2="3175" y1="100.5" y2="100.5"/><ellipse cx="2994" cy="114.8047" fill="none" rx="3" ry="3" style="stroke:#038048;stroke-width:1.0;"/><text fill="#000000" font-family="sans-serif" font-size="14" lengthAdjust="spacing" textLength="66" x="3003" y="119.0332">value: Any</text><line style="stroke:#181818;stroke-width:0.5;" x1="2984" x2="3175" y1="126.1094" y2="126.1094"/><ellipse cx="2994" cy="140.4141" fill="#84BE84" rx="3" ry="3" style="stroke:#038048;stroke-width:1.0;"/><text fill="#000000" font-family="sans-serif" font-size="14" lengthAdjust="spacing" textLength="167" x="3003" y="144.6426">__init__(value: Any): None</text></g><!--MD5=[e2afde822beca2b2d451f2f45d9882af]
class pygame.sprite.DirtySprite--><g id="elem_pygame.sprite.DirtySprite"><rect fill="#F1F1F1" height="48" id="pygame.sprite.DirtySprite" rx="2.5" ry="2.5" style="stroke:#181818;stroke-width:0.5;" width="98" x="1296.5" y="86"/><ellipse cx="1311.5" cy="102" fill="#ADD1B2" rx="11" ry="11" style="stroke:#181818;stroke-width:1.0;"/><path d="M1314.2656,97.875 Q1314.4219,97.6563 1314.6094,97.5469 Q1314.7969,97.4375 1315.0156,97.4375 Q1315.3906,97.4375 1315.625,97.6953 Q1315.8594,97.9531 1315.8594,98.5625 L1315.8594,100.0156 Q1315.8594,100.625 1315.625,100.8906 Q1315.3906,101.1563 1315.0156,101.1563 Q1314.6719,101.1563 1314.4688,100.9531 Q1314.2656,100.7656 1314.1563,100.25 Q1314.1094,99.8906 1313.9219,99.7031 Q1313.5938,99.3281 1312.9844,99.1094 Q1312.375,98.8906 1311.75,98.8906 Q1310.9844,98.8906 1310.3516,99.2188 Q1309.7188,99.5469 1309.2266,100.2969 Q1308.7344,101.0469 1308.7344,102.0781 L1308.7344,103.1719 Q1308.7344,104.4063 1309.625,105.2266 Q1310.5156,106.0469 1312.1094,106.0469 Q1313.0469,106.0469 1313.7031,105.7969 Q1314.0938,105.6406 1314.5156,105.2031 Q1314.7813,104.9375 1314.9297,104.8594 Q1315.0781,104.7813 1315.2813,104.7813 Q1315.6094,104.7813 1315.8672,105.0391 Q1316.125,105.2969 1316.125,105.6406 Q1316.125,105.9844 1315.7813,106.3906 Q1315.2813,106.9688 1314.4844,107.2969 Q1313.4063,107.75 1312.1094,107.75 Q1310.5938,107.75 1309.3906,107.125 Q1308.4063,106.625 1307.7188,105.5547 Q1307.0313,104.4844 1307.0313,103.2031 L1307.0313,102.0469 Q1307.0313,100.7188 1307.6484,99.5703 Q1308.2656,98.4219 1309.3594,97.8047 Q1310.4531,97.1875 1311.6875,97.1875 Q1312.4219,97.1875 1313.0703,97.3516 Q1313.7188,97.5156 1314.2656,97.875 Z " fill="#000000"/><text fill="#000000" font-family="sans-serif" font-size="14" lengthAdjust="spacing" textLength="66" x="1325.5" y="107.7285">DirtySprite</text><line style="stroke:#181818;stroke-width:0.5;" x1="1297.5" x2="1393.5" y1="118" y2="118"/><line style="stroke:#181818;stroke-width:0.5;" x1="1297.5" x2="1393.5" y1="126" y2="126"/></g><!--MD5=[752a5e8e165fc3d9599ad2eb29bc8d7a]
class pygame_gui.UIManager--><g id="elem_pygame_gui.UIManager"><rect fill="#F1F1F1" height="48" id="pygame_gui.UIManager" rx="2.5" ry="2.5" style="stroke:#181818;stroke-width:0.5;" width="100" x="2826.5" y="86"/><ellipse cx="2841.5" cy="102" fill="#ADD1B2" rx="11" ry="11" style="stroke:#181818;stroke-width:1.0;"/><path d="M2844.2656,97.875 Q2844.4219,97.6563 2844.6094,97.5469 Q2844.7969,97.4375 2845.0156,97.4375 Q2845.3906,97.4375 2845.625,97.6953 Q2845.8594,97.9531 2845.8594,98.5625 L2845.8594,100.0156 Q2845.8594,100.625 2845.625,100.8906 Q2845.3906,101.1563 2845.0156,101.1563 Q2844.6719,101.1563 2844.4688,100.9531 Q2844.2656,100.7656 2844.1563,100.25 Q2844.1094,99.8906 2843.9219,99.7031 Q2843.5938,99.3281 2842.9844,99.1094 Q2842.375,98.8906 2841.75,98.8906 Q2840.9844,98.8906 2840.3516,99.2188 Q2839.7188,99.5469 2839.2266,100.2969 Q2838.7344,101.0469 2838.7344,102.0781 L2838.7344,103.1719 Q2838.7344,104.4063 2839.625,105.2266 Q2840.5156,106.0469 2842.1094,106.0469 Q2843.0469,106.0469 2843.7031,105.7969 Q2844.0938,105.6406 2844.5156,105.2031 Q2844.7813,104.9375 2844.9297,104.8594 Q2845.0781,104.7813 2845.2813,104.7813 Q2845.6094,104.7813 2845.8672,105.0391 Q2846.125,105.2969 2846.125,105.6406 Q2846.125,105.9844 2845.7813,106.3906 Q2845.2813,106.9688 2844.4844,107.2969 Q2843.4063,107.75 2842.1094,107.75 Q2840.5938,107.75 2839.3906,107.125 Q2838.4063,106.625 2837.7188,105.5547 Q2837.0313,104.4844 2837.0313,103.2031 L2837.0313,102.0469 Q2837.0313,100.7188 2837.6484,99.5703 Q2838.2656,98.4219 2839.3594,97.8047 Q2840.4531,97.1875 2841.6875,97.1875 Q2842.4219,97.1875 2843.0703,97.3516 Q2843.7188,97.5156 2844.2656,97.875 Z " fill="#000000"/><text fill="#000000" font-family="sans-serif" font-size="14" lengthAdjust="spacing" textLength="68" x="2855.5" y="107.7285">UIManager</text><line style="stroke:#181818;stroke-width:0.5;" x1="2827.5" x2="2925.5" y1="118" y2="118"/><line style="stroke:#181818;stroke-width:0.5;" x1="2827.5" x2="2925.5" y1="126" y2="126"/></g><!--MD5=[4059c078e9c8b04be47a04b8746db87c]
class assets.Asset--><g id="elem_assets.Asset"><rect fill="#F1F1F1" height="48" id="assets.Asset" rx="2.5" ry="2.5" style="stroke:#181818;stroke-width:0.5;" width="67" x="1515" y="603.5"/><ellipse cx="1530" cy="619.5" fill="#ADD1B2" rx="11" ry="11" style="stroke:#181818;stroke-width:1.0;"/><path d="M1532.7656,615.375 Q1532.9219,615.1563 1533.1094,615.0469 Q1533.2969,614.9375 1533.5156,614.9375 Q1533.8906,614.9375 1534.125,615.1953 Q1534.3594,615.4531 1534.3594,616.0625 L1534.3594,617.5156 Q1534.3594,618.125 1534.125,618.3906 Q1533.8906,618.6563 1533.5156,618.6563 Q1533.1719,618.6563 1532.9688,618.4531 Q1532.7656,618.2656 1532.6563,617.75 Q1532.6094,617.3906 1532.4219,617.2031 Q1532.0938,616.8281 1531.4844,616.6094 Q1530.875,616.3906 1530.25,616.3906 Q1529.4844,616.3906 1528.8516,616.7188 Q1528.2188,617.0469 1527.7266,617.7969 Q1527.2344,618.5469 1527.2344,619.5781 L1527.2344,620.6719 Q1527.2344,621.9063 1528.125,622.7266 Q1529.0156,623.5469 1530.6094,623.5469 Q1531.5469,623.5469 1532.2031,623.2969 Q1532.5938,623.1406 1533.0156,622.7031 Q1533.2813,622.4375 1533.4297,622.3594 Q1533.5781,622.2813 1533.7813,622.2813 Q1534.1094,622.2813 1534.3672,622.5391 Q1534.625,622.7969 1534.625,623.1406 Q1534.625,623.4844 1534.2813,623.8906 Q1533.7813,624.4688 1532.9844,624.7969 Q1531.9063,625.25 1530.6094,625.25 Q1529.0938,625.25 1527.8906,624.625 Q1526.9063,624.125 1526.2188,623.0547 Q1525.5313,621.9844 1525.5313,620.7031 L1525.5313,619.5469 Q1525.5313,618.2188 1526.1484,617.0703 Q1526.7656,615.9219 1527.8594,615.3047 Q1528.9531,614.6875 1530.1875,614.6875 Q1530.9219,614.6875 1531.5703,614.8516 Q1532.2188,615.0156 1532.7656,615.375 Z " fill="#000000"/><text fill="#000000" font-family="sans-serif" font-size="14" lengthAdjust="spacing" textLength="35" x="1544" y="625.2285">Asset</text><line style="stroke:#181818;stroke-width:0.5;" x1="1516" x2="1581" y1="635.5" y2="635.5"/><line style="stroke:#181818;stroke-width:0.5;" x1="1516" x2="1581" y1="643.5" y2="643.5"/></g><!--MD5=[de31a9b87cecd45589fc02d95305dc9a]
class numpy.ndarray--><g id="elem_numpy.ndarray"><rect fill="#F1F1F1" height="48" id="numpy.ndarray" rx="2.5" ry="2.5" style="stroke:#181818;stroke-width:0.5;" width="81" x="2748" y="603.5"/><ellipse cx="2763" cy="619.5" fill="#ADD1B2" rx="11" ry="11" style="stroke:#181818;stroke-width:1.0;"/><path d="M2765.7656,615.375 Q2765.9219,615.1563 2766.1094,615.0469 Q2766.2969,614.9375 2766.5156,614.9375 Q2766.8906,614.9375 2767.125,615.1953 Q2767.3594,615.4531 2767.3594,616.0625 L2767.3594,617.5156 Q2767.3594,618.125 2767.125,618.3906 Q2766.8906,618.6563 2766.5156,618.6563 Q2766.1719,618.6563 2765.9688,618.4531 Q2765.7656,618.2656 2765.6563,617.75 Q2765.6094,617.3906 2765.4219,617.2031 Q2765.0938,616.8281 2764.4844,616.6094 Q2763.875,616.3906 2763.25,616.3906 Q2762.4844,616.3906 2761.8516,616.7188 Q2761.2188,617.0469 2760.7266,617.7969 Q2760.2344,618.5469 2760.2344,619.5781 L2760.2344,620.6719 Q2760.2344,621.9063 2761.125,622.7266 Q2762.0156,623.5469 2763.6094,623.5469 Q2764.5469,623.5469 2765.2031,623.2969 Q2765.5938,623.1406 2766.0156,622.7031 Q2766.2813,622.4375 2766.4297,622.3594 Q2766.5781,622.2813 2766.7813,622.2813 Q2767.1094,622.2813 2767.3672,622.5391 Q2767.625,622.7969 2767.625,623.1406 Q2767.625,623.4844 2767.2813,623.8906 Q2766.7813,624.4688 2765.9844,624.7969 Q2764.9063,625.25 2763.6094,625.25 Q2762.0938,625.25 2760.8906,624.625 Q2759.9063,624.125 2759.2188,623.0547 Q2758.5313,621.9844 2758.5313,620.7031 L2758.5313,619.5469 Q2758.5313,618.2188 2759.1484,617.0703 Q2759.7656,615.9219 2760.8594,615.3047 Q2761.9531,614.6875 2763.1875,614.6875 Q2763.9219,614.6875 2764.5703,614.8516 Q2765.2188,615.0156 2765.7656,615.375 Z " fill="#000000"/><text fill="#000000" font-family="sans-serif" font-size="14" lengthAdjust="spacing" textLength="49" x="2777" y="625.2285">ndarray</text><line style="stroke:#181818;stroke-width:0.5;" x1="2749" x2="2828" y1="635.5" y2="635.5"/><line style="stroke:#181818;stroke-width:0.5;" x1="2749" x2="2828" y1="643.5" y2="643.5"/></g><!--MD5=[3cab58e622330109321580dbb0b85605]
class Input--><g id="elem_Input"><rect codeLine="16" fill="#F1F1F1" height="100.8281" id="Input" rx="2.5" ry="2.5" style="stroke:#181818;stroke-width:0.5;" width="185" x="1076" y="59.5"/><ellipse cx="1148.75" cy="75.5" fill="#ADD1B2" rx="11" ry="11" style="stroke:#181818;stroke-width:1.0;"/><path d="M1151.5156,71.375 Q1151.6719,71.1563 1151.8594,71.0469 Q1152.0469,70.9375 1152.2656,70.9375 Q1152.6406,70.9375 1152.875,71.1953 Q1153.1094,71.4531 1153.1094,72.0625 L1153.1094,73.5156 Q1153.1094,74.125 1152.875,74.3906 Q1152.6406,74.6563 1152.2656,74.6563 Q1151.9219,74.6563 1151.7188,74.4531 Q1151.5156,74.2656 1151.4063,73.75 Q1151.3594,73.3906 1151.1719,73.2031 Q1150.8438,72.8281 1150.2344,72.6094 Q1149.625,72.3906 1149,72.3906 Q1148.2344,72.3906 1147.6016,72.7188 Q1146.9688,73.0469 1146.4766,73.7969 Q1145.9844,74.5469 1145.9844,75.5781 L1145.9844,76.6719 Q1145.9844,77.9063 1146.875,78.7266 Q1147.7656,79.5469 1149.3594,79.5469 Q1150.2969,79.5469 1150.9531,79.2969 Q1151.3438,79.1406 1151.7656,78.7031 Q1152.0313,78.4375 1152.1797,78.3594 Q1152.3281,78.2813 1152.5313,78.2813 Q1152.8594,78.2813 1153.1172,78.5391 Q1153.375,78.7969 1153.375,79.1406 Q1153.375,79.4844 1153.0313,79.8906 Q1152.5313,80.4688 1151.7344,80.7969 Q1150.6563,81.25 1149.3594,81.25 Q1147.8438,81.25 1146.6406,80.625 Q1145.6563,80.125 1144.9688,79.0547 Q1144.2813,77.9844 1144.2813,76.7031 L1144.2813,75.5469 Q1144.2813,74.2188 1144.8984,73.0703 Q1145.5156,71.9219 1146.6094,71.3047 Q1147.7031,70.6875 1148.9375,70.6875 Q1149.6719,70.6875 1150.3203,70.8516 Q1150.9688,71.0156 1151.5156,71.375 Z " fill="#000000"/><text fill="#000000" font-family="sans-serif" font-size="14" lengthAdjust="spacing" textLength="31" x="1169.25" y="81.2285">Input</text><line style="stroke:#181818;stroke-width:0.5;" x1="1077" x2="1260" y1="91.5" y2="91.5"/><ellipse cx="1087" cy="105.8047" fill="none" rx="3" ry="3" style="stroke:#038048;stroke-width:1.0;"/><text fill="#000000" font-family="sans-serif" font-size="14" lengthAdjust="spacing" text-decoration="underline" textLength="77" x="1096" y="110.0332">keys: list[int]</text><line style="stroke:#181818;stroke-width:0.5;" x1="1077" x2="1260" y1="117.1094" y2="117.1094"/><ellipse cx="1087" cy="131.4141" fill="#84BE84" rx="3" ry="3" style="stroke:#038048;stroke-width:1.0;"/><text fill="#000000" font-family="sans-serif" font-size="14" lengthAdjust="spacing" text-decoration="underline" textLength="159" x="1096" y="135.6426">is_pressed(key: int): bool</text><ellipse cx="1087" cy="149.0234" fill="#84BE84" rx="3" ry="3" style="stroke:#038048;stroke-width:1.0;"/><text fill="#000000" font-family="sans-serif" font-size="14" lengthAdjust="spacing" text-decoration="underline" textLength="95" x="1096" y="153.252">update(): None</text></g><!--MD5=[2611dc7fd1da06dee0d568bb32f051c2]
class WindowComponent--><g id="elem_WindowComponent"><rect codeLine="23" fill="#F1F1F1" height="118.4375" id="WindowComponent" rx="2.5" ry="2.5" style="stroke:#181818;stroke-width:0.5;" width="260" x="2381.5" y="568.5"/><ellipse cx="2445.75" cy="584.5" fill="#A9DCDF" rx="11" ry="11" style="stroke:#181818;stroke-width:1.0;"/><path d="M2447.9375,586.2656 L2443.7969,586.2656 L2443.375,587.2969 L2443.7969,587.2969 Q2444.4063,587.2969 2444.6719,587.5313 Q2444.9375,587.7656 2444.9375,588.1563 Q2444.9375,588.5313 2444.6719,588.7656 Q2444.4063,589 2443.7969,589 L2441.5,589 Q2440.8906,589 2440.6328,588.7656 Q2440.375,588.5313 2440.375,588.1406 Q2440.375,587.7656 2440.6484,587.5234 Q2440.9219,587.2813 2441.5469,587.2969 L2444.2188,580.6406 L2443.1094,580.6406 Q2442.5,580.6406 2442.2344,580.4063 Q2441.9688,580.1719 2441.9688,579.7813 Q2441.9688,579.4063 2442.2344,579.1719 Q2442.5,578.9375 2443.1094,578.9375 L2446.7813,578.9375 L2450.1719,587.2969 Q2450.7656,587.2969 2450.9531,587.4375 Q2451.3438,587.7031 2451.3438,588.1563 Q2451.3438,588.5313 2451.0859,588.7656 Q2450.8281,589 2450.2188,589 L2447.9219,589 Q2447.3125,589 2447.0469,588.7656 Q2446.7813,588.5313 2446.7813,588.1406 Q2446.7813,587.7656 2447.0469,587.5313 Q2447.3125,587.2969 2447.9219,587.2969 L2448.3438,587.2969 L2447.9375,586.2656 Z M2447.2188,584.5625 L2445.8594,581.1875 L2444.4844,584.5625 L2447.2188,584.5625 Z " fill="#000000"/><text fill="#000000" font-family="sans-serif" font-size="14" font-style="italic" lengthAdjust="spacing" textLength="123" x="2466.25" y="590.2285">WindowComponent</text><line style="stroke:#181818;stroke-width:0.5;" x1="2382.5" x2="2640.5" y1="600.5" y2="600.5"/><polygon fill="none" points="2392.5,609.8047,2396.5,613.8047,2392.5,617.8047,2388.5,613.8047" style="stroke:#B38D22;stroke-width:1.0;"/><text fill="#000000" font-family="sans-serif" font-size="14" lengthAdjust="spacing" textLength="115" x="2401.5" y="619.0332">rect: pygame.Rect</text><line style="stroke:#181818;stroke-width:0.5;" x1="2382.5" x2="2640.5" y1="626.1094" y2="626.1094"/><ellipse cx="2392.5" cy="640.4141" fill="#84BE84" rx="3" ry="3" style="stroke:#038048;stroke-width:1.0;"/><text fill="#000000" font-family="sans-serif" font-size="14" lengthAdjust="spacing" textLength="216" x="2401.5" y="644.6426">__init__(rect: pygame.Rect): None</text><ellipse cx="2392.5" cy="658.0234" fill="#84BE84" rx="3" ry="3" style="stroke:#038048;stroke-width:1.0;"/><text fill="#000000" font-family="sans-serif" font-size="14" font-style="italic" lengthAdjust="spacing" textLength="82" x="2401.5" y="662.252">draw(): None</text><ellipse cx="2392.5" cy="675.6328" fill="#84BE84" rx="3" ry="3" style="stroke:#038048;stroke-width:1.0;"/><text fill="#000000" font-family="sans-serif" font-size="14" lengthAdjust="spacing" textLength="234" x="2401.5" y="679.8613">is_clicked(coords: tuple[int, int]): bool</text></g><!--MD5=[a44aa21a76abbab04b1bdd4b577aadb9]
class Buttons--><g id="elem_Buttons"><rect codeLine="32" fill="#F1F1F1" height="171.2656" id="Buttons" rx="2.5" ry="2.5" style="stroke:#181818;stroke-width:0.5;" width="421" x="2125" y="1484.5"/><ellipse cx="2307.25" cy="1500.5" fill="#ADD1B2" rx="11" ry="11" style="stroke:#181818;stroke-width:1.0;"/><path d="M2310.0156,1496.375 Q2310.1719,1496.1563 2310.3594,1496.0469 Q2310.5469,1495.9375 2310.7656,1495.9375 Q2311.1406,1495.9375 2311.375,1496.1953 Q2311.6094,1496.4531 2311.6094,1497.0625 L2311.6094,1498.5156 Q2311.6094,1499.125 2311.375,1499.3906 Q2311.1406,1499.6563 2310.7656,1499.6563 Q2310.4219,1499.6563 2310.2188,1499.4531 Q2310.0156,1499.2656 2309.9063,1498.75 Q2309.8594,1498.3906 2309.6719,1498.2031 Q2309.3438,1497.8281 2308.7344,1497.6094 Q2308.125,1497.3906 2307.5,1497.3906 Q2306.7344,1497.3906 2306.1016,1497.7188 Q2305.4688,1498.0469 2304.9766,1498.7969 Q2304.4844,1499.5469 2304.4844,1500.5781 L2304.4844,1501.6719 Q2304.4844,1502.9063 2305.375,1503.7266 Q2306.2656,1504.5469 2307.8594,1504.5469 Q2308.7969,1504.5469 2309.4531,1504.2969 Q2309.8438,1504.1406 2310.2656,1503.7031 Q2310.5313,1503.4375 2310.6797,1503.3594 Q2310.8281,1503.2813 2311.0313,1503.2813 Q2311.3594,1503.2813 2311.6172,1503.5391 Q2311.875,1503.7969 2311.875,1504.1406 Q2311.875,1504.4844 2311.5313,1504.8906 Q2311.0313,1505.4688 2310.2344,1505.7969 Q2309.1563,1506.25 2307.8594,1506.25 Q2306.3438,1506.25 2305.1406,1505.625 Q2304.1563,1505.125 2303.4688,1504.0547 Q2302.7813,1502.9844 2302.7813,1501.7031 L2302.7813,1500.5469 Q2302.7813,1499.2188 2303.3984,1498.0703 Q2304.0156,1496.9219 2305.1094,1496.3047 Q2306.2031,1495.6875 2307.4375,1495.6875 Q2308.1719,1495.6875 2308.8203,1495.8516 Q2309.4688,1496.0156 2310.0156,1496.375 Z " fill="#000000"/><text fill="#000000" font-family="sans-serif" font-size="14" lengthAdjust="spacing" textLength="48" x="2327.75" y="1506.2285">Buttons</text><line style="stroke:#181818;stroke-width:0.5;" x1="2126" x2="2545" y1="1516.5" y2="1516.5"/><text fill="#000000" font-family="sans-serif" font-size="14" lengthAdjust="spacing" textLength="130" x="2131" y="1535.0332">els: dict[str, function]</text><text fill="#000000" font-family="sans-serif" font-size="14" lengthAdjust="spacing" textLength="4" x="2131" y="1552.6426"> </text><text fill="#000000" font-family="sans-serif" font-size="14" lengthAdjust="spacing" text-decoration="underline" textLength="108" x="2131" y="1570.252">editor: MapEditor</text><line style="stroke:#181818;stroke-width:0.5;" x1="2126" x2="2545" y1="1577.3281" y2="1577.3281"/><ellipse cx="2136" cy="1591.6328" fill="#84BE84" rx="3" ry="3" style="stroke:#038048;stroke-width:1.0;"/><text fill="#000000" font-family="sans-serif" font-size="14" lengthAdjust="spacing" textLength="209" x="2145" y="1595.8613">__init__(editor: MapEditor): None</text><ellipse cx="2136" cy="1609.2422" fill="#84BE84" rx="3" ry="3" style="stroke:#038048;stroke-width:1.0;"/><text fill="#000000" font-family="sans-serif" font-size="14" lengthAdjust="spacing" textLength="395" x="2145" y="1613.4707">detected_pressed_button(button: pygame_gui.UIButton): None</text><text fill="#000000" font-family="sans-serif" font-size="14" lengthAdjust="spacing" textLength="4" x="2145" y="1631.0801"> </text><rect fill="#F24D5C" height="6" style="stroke:#C82930;stroke-width:1.0;" width="6" x="2133" y="1641.4609"/><text fill="#000000" font-family="sans-serif" font-size="14" lengthAdjust="spacing" textLength="128" x="2145" y="1648.6895">close_editor(): None</text></g><!--MD5=[c719a77c542a09de3463e0c7b48c79ef]
class GameStates--><g id="elem_GameStates"><rect codeLine="44" fill="#F1F1F1" height="136.0469" id="GameStates" rx="2.5" ry="2.5" style="stroke:#181818;stroke-width:0.5;" width="258" x="2747.5" y="220.5"/><ellipse cx="2833.25" cy="236.5" fill="#ADD1B2" rx="11" ry="11" style="stroke:#181818;stroke-width:1.0;"/><path d="M2836.0156,232.375 Q2836.1719,232.1563 2836.3594,232.0469 Q2836.5469,231.9375 2836.7656,231.9375 Q2837.1406,231.9375 2837.375,232.1953 Q2837.6094,232.4531 2837.6094,233.0625 L2837.6094,234.5156 Q2837.6094,235.125 2837.375,235.3906 Q2837.1406,235.6563 2836.7656,235.6563 Q2836.4219,235.6563 2836.2188,235.4531 Q2836.0156,235.2656 2835.9063,234.75 Q2835.8594,234.3906 2835.6719,234.2031 Q2835.3438,233.8281 2834.7344,233.6094 Q2834.125,233.3906 2833.5,233.3906 Q2832.7344,233.3906 2832.1016,233.7188 Q2831.4688,234.0469 2830.9766,234.7969 Q2830.4844,235.5469 2830.4844,236.5781 L2830.4844,237.6719 Q2830.4844,238.9063 2831.375,239.7266 Q2832.2656,240.5469 2833.8594,240.5469 Q2834.7969,240.5469 2835.4531,240.2969 Q2835.8438,240.1406 2836.2656,239.7031 Q2836.5313,239.4375 2836.6797,239.3594 Q2836.8281,239.2813 2837.0313,239.2813 Q2837.3594,239.2813 2837.6172,239.5391 Q2837.875,239.7969 2837.875,240.1406 Q2837.875,240.4844 2837.5313,240.8906 Q2837.0313,241.4688 2836.2344,241.7969 Q2835.1563,242.25 2833.8594,242.25 Q2832.3438,242.25 2831.1406,241.625 Q2830.1563,241.125 2829.4688,240.0547 Q2828.7813,238.9844 2828.7813,237.7031 L2828.7813,236.5469 Q2828.7813,235.2188 2829.3984,234.0703 Q2830.0156,232.9219 2831.1094,232.3047 Q2832.2031,231.6875 2833.4375,231.6875 Q2834.1719,231.6875 2834.8203,231.8516 Q2835.4688,232.0156 2836.0156,232.375 Z " fill="#000000"/><text fill="#000000" font-family="sans-serif" font-size="14" lengthAdjust="spacing" textLength="78" x="2853.75" y="242.2285">GameStates</text><line style="stroke:#181818;stroke-width:0.5;" x1="2748.5" x2="3004.5" y1="252.5" y2="252.5"/><ellipse cx="2758.5" cy="266.8047" fill="none" rx="3" ry="3" style="stroke:#038048;stroke-width:1.0;"/><text fill="#000000" font-family="sans-serif" font-size="14" lengthAdjust="spacing" text-decoration="underline" textLength="108" x="2767.5" y="271.0332">should_quit: bool</text><ellipse cx="2758.5" cy="284.4141" fill="none" rx="3" ry="3" style="stroke:#038048;stroke-width:1.0;"/><text fill="#000000" font-family="sans-serif" font-size="14" lengthAdjust="spacing" text-decoration="underline" textLength="156" x="2767.5" y="288.6426">window: pygame.Surface</text><ellipse cx="2758.5" cy="302.0234" fill="none" rx="3" ry="3" style="stroke:#038048;stroke-width:1.0;"/><text fill="#000000" font-family="sans-serif" font-size="14" lengthAdjust="spacing" text-decoration="underline" textLength="232" x="2767.5" y="306.252">ui_manager: pygame_gui.UIManager</text><ellipse cx="2758.5" cy="319.6328" fill="none" rx="3" ry="3" style="stroke:#038048;stroke-width:1.0;"/><text fill="#000000" font-family="sans-serif" font-size="14" lengthAdjust="spacing" text-decoration="underline" textLength="159" x="2767.5" y="323.8613">clock: pygame.time.Clock</text><line style="stroke:#181818;stroke-width:0.5;" x1="2748.5" x2="3004.5" y1="330.9375" y2="330.9375"/><ellipse cx="2758.5" cy="345.2422" fill="#84BE84" rx="3" ry="3" style="stroke:#038048;stroke-width:1.0;"/><text fill="#000000" font-family="sans-serif" font-size="14" lengthAdjust="spacing" textLength="69" x="2767.5" y="349.4707">init(): None</text></g><!--MD5=[462e8a17646bc1bfacebaee0ffbf332e]
class MapEditor--><g id="elem_MapEditor"><rect codeLine="54" fill="#F1F1F1" height="224.0938" id="MapEditor" rx="2.5" ry="2.5" style="stroke:#181818;stroke-width:0.5;" width="170" x="2250.5" y="1200.5"/><ellipse cx="2299.25" cy="1216.5" fill="#ADD1B2" rx="11" ry="11" style="stroke:#181818;stroke-width:1.0;"/><path d="M2302.0156,1212.375 Q2302.1719,1212.1563 2302.3594,1212.0469 Q2302.5469,1211.9375 2302.7656,1211.9375 Q2303.1406,1211.9375 2303.375,1212.1953 Q2303.6094,1212.4531 2303.6094,1213.0625 L2303.6094,1214.5156 Q2303.6094,1215.125 2303.375,1215.3906 Q2303.1406,1215.6563 2302.7656,1215.6563 Q2302.4219,1215.6563 2302.2188,1215.4531 Q2302.0156,1215.2656 2301.9063,1214.75 Q2301.8594,1214.3906 2301.6719,1214.2031 Q2301.3438,1213.8281 2300.7344,1213.6094 Q2300.125,1213.3906 2299.5,1213.3906 Q2298.7344,1213.3906 2298.1016,1213.7188 Q2297.4688,1214.0469 2296.9766,1214.7969 Q2296.4844,1215.5469 2296.4844,1216.5781 L2296.4844,1217.6719 Q2296.4844,1218.9063 2297.375,1219.7266 Q2298.2656,1220.5469 2299.8594,1220.5469 Q2300.7969,1220.5469 2301.4531,1220.2969 Q2301.8438,1220.1406 2302.2656,1219.7031 Q2302.5313,1219.4375 2302.6797,1219.3594 Q2302.8281,1219.2813 2303.0313,1219.2813 Q2303.3594,1219.2813 2303.6172,1219.5391 Q2303.875,1219.7969 2303.875,1220.1406 Q2303.875,1220.4844 2303.5313,1220.8906 Q2303.0313,1221.4688 2302.2344,1221.7969 Q2301.1563,1222.25 2299.8594,1222.25 Q2298.3438,1222.25 2297.1406,1221.625 Q2296.1563,1221.125 2295.4688,1220.0547 Q2294.7813,1218.9844 2294.7813,1217.7031 L2294.7813,1216.5469 Q2294.7813,1215.2188 2295.3984,1214.0703 Q2296.0156,1212.9219 2297.1094,1212.3047 Q2298.2031,1211.6875 2299.4375,1211.6875 Q2300.1719,1211.6875 2300.8203,1211.8516 Q2301.4688,1212.0156 2302.0156,1212.375 Z " fill="#000000"/><text fill="#000000" font-family="sans-serif" font-size="14" lengthAdjust="spacing" textLength="64" x="2319.75" y="1222.2285">MapEditor</text><line style="stroke:#181818;stroke-width:0.5;" x1="2251.5" x2="2419.5" y1="1232.5" y2="1232.5"/><ellipse cx="2261.5" cy="1246.8047" fill="none" rx="3" ry="3" style="stroke:#038048;stroke-width:1.0;"/><text fill="#000000" font-family="sans-serif" font-size="14" lengthAdjust="spacing" textLength="122" x="2270.5" y="1251.0332">serializer: Serializer</text><text fill="#000000" font-family="sans-serif" font-size="14" lengthAdjust="spacing" textLength="4" x="2270.5" y="1268.6426"> </text><rect fill="none" height="6" style="stroke:#C82930;stroke-width:1.0;" width="6" x="2258.5" y="1279.0234"/><text fill="#000000" font-family="sans-serif" font-size="14" lengthAdjust="spacing" textLength="95" x="2270.5" y="1286.252">palette: Palette</text><rect fill="none" height="6" style="stroke:#C82930;stroke-width:1.0;" width="6" x="2258.5" y="1296.6328"/><text fill="#000000" font-family="sans-serif" font-size="14" lengthAdjust="spacing" textLength="59" x="2270.5" y="1303.8613">grid: Grid</text><rect fill="none" height="6" style="stroke:#C82930;stroke-width:1.0;" width="6" x="2258.5" y="1314.2422"/><text fill="#000000" font-family="sans-serif" font-size="14" lengthAdjust="spacing" textLength="103" x="2270.5" y="1321.4707">buttons: Buttons</text><line style="stroke:#181818;stroke-width:0.5;" x1="2251.5" x2="2419.5" y1="1328.5469" y2="1328.5469"/><ellipse cx="2261.5" cy="1342.8516" fill="#84BE84" rx="3" ry="3" style="stroke:#038048;stroke-width:1.0;"/><text fill="#000000" font-family="sans-serif" font-size="14" lengthAdjust="spacing" textLength="101" x="2270.5" y="1347.0801">__init__(): None</text><ellipse cx="2261.5" cy="1360.4609" fill="#84BE84" rx="3" ry="3" style="stroke:#038048;stroke-width:1.0;"/><text fill="#000000" font-family="sans-serif" font-size="14" lengthAdjust="spacing" textLength="72" x="2270.5" y="1364.6895">run(): None</text><text fill="#000000" font-family="sans-serif" font-size="14" lengthAdjust="spacing" textLength="4" x="2270.5" y="1382.2988"> </text><rect fill="#F24D5C" height="6" style="stroke:#C82930;stroke-width:1.0;" width="6" x="2258.5" y="1392.6797"/><text fill="#000000" font-family="sans-serif" font-size="14" lengthAdjust="spacing" textLength="144" x="2270.5" y="1399.9082">handle_events(): None</text><rect fill="#F24D5C" height="6" style="stroke:#C82930;stroke-width:1.0;" width="6" x="2258.5" y="1410.2891"/><text fill="#000000" font-family="sans-serif" font-size="14" lengthAdjust="spacing" textLength="81" x="2270.5" y="1417.5176">draw(): None</text></g><!--MD5=[95174e42ee347a14b6cb78d6855f19b5]
class Element--><g id="elem_Element"><rect codeLine="69" fill="#F1F1F1" height="118.4375" id="Element" rx="2.5" ry="2.5" style="stroke:#181818;stroke-width:0.5;" width="473" x="1109" y="229.5"/><ellipse cx="1315.75" cy="245.5" fill="#ADD1B2" rx="11" ry="11" style="stroke:#181818;stroke-width:1.0;"/><path d="M1318.5156,241.375 Q1318.6719,241.1563 1318.8594,241.0469 Q1319.0469,240.9375 1319.2656,240.9375 Q1319.6406,240.9375 1319.875,241.1953 Q1320.1094,241.4531 1320.1094,242.0625 L1320.1094,243.5156 Q1320.1094,244.125 1319.875,244.3906 Q1319.6406,244.6563 1319.2656,244.6563 Q1318.9219,244.6563 1318.7188,244.4531 Q1318.5156,244.2656 1318.4063,243.75 Q1318.3594,243.3906 1318.1719,243.2031 Q1317.8438,242.8281 1317.2344,242.6094 Q1316.625,242.3906 1316,242.3906 Q1315.2344,242.3906 1314.6016,242.7188 Q1313.9688,243.0469 1313.4766,243.7969 Q1312.9844,244.5469 1312.9844,245.5781 L1312.9844,246.6719 Q1312.9844,247.9063 1313.875,248.7266 Q1314.7656,249.5469 1316.3594,249.5469 Q1317.2969,249.5469 1317.9531,249.2969 Q1318.3438,249.1406 1318.7656,248.7031 Q1319.0313,248.4375 1319.1797,248.3594 Q1319.3281,248.2813 1319.5313,248.2813 Q1319.8594,248.2813 1320.1172,248.5391 Q1320.375,248.7969 1320.375,249.1406 Q1320.375,249.4844 1320.0313,249.8906 Q1319.5313,250.4688 1318.7344,250.7969 Q1317.6563,251.25 1316.3594,251.25 Q1314.8438,251.25 1313.6406,250.625 Q1312.6563,250.125 1311.9688,249.0547 Q1311.2813,247.9844 1311.2813,246.7031 L1311.2813,245.5469 Q1311.2813,244.2188 1311.8984,243.0703 Q1312.5156,241.9219 1313.6094,241.3047 Q1314.7031,240.6875 1315.9375,240.6875 Q1316.6719,240.6875 1317.3203,240.8516 Q1317.9688,241.0156 1318.5156,241.375 Z " fill="#000000"/><text fill="#000000" font-family="sans-serif" font-size="14" lengthAdjust="spacing" textLength="51" x="1336.25" y="251.2285">Element</text><line style="stroke:#181818;stroke-width:0.5;" x1="1110" x2="1581" y1="261.5" y2="261.5"/><ellipse cx="1120" cy="275.8047" fill="none" rx="3" ry="3" style="stroke:#038048;stroke-width:1.0;"/><text fill="#000000" font-family="sans-serif" font-size="14" lengthAdjust="spacing" textLength="34" x="1129" y="280.0332">id: int</text><ellipse cx="1120" cy="293.4141" fill="none" rx="3" ry="3" style="stroke:#038048;stroke-width:1.0;"/><text fill="#000000" font-family="sans-serif" font-size="14" lengthAdjust="spacing" textLength="149" x="1129" y="297.6426">image: pygame.Surface</text><ellipse cx="1120" cy="311.0234" fill="none" rx="3" ry="3" style="stroke:#038048;stroke-width:1.0;"/><text fill="#000000" font-family="sans-serif" font-size="14" lengthAdjust="spacing" textLength="115" x="1129" y="315.252">rect: pygame.Rect</text><line style="stroke:#181818;stroke-width:0.5;" x1="1110" x2="1581" y1="322.3281" y2="322.3281"/><ellipse cx="1120" cy="336.6328" fill="#84BE84" rx="3" ry="3" style="stroke:#038048;stroke-width:1.0;"/><text fill="#000000" font-family="sans-serif" font-size="14" lengthAdjust="spacing" textLength="447" x="1129" y="340.8613">__init__(id: int, coord: pygame.Vector2, image: pygame.Surface): None</text></g><!--MD5=[d9b1b75d6ad12b8295ff2c9a3f5173be]
class StateElement--><g id="elem_StateElement"><rect codeLine="80" fill="#F1F1F1" height="83.2188" id="StateElement" rx="2.5" ry="2.5" style="stroke:#181818;stroke-width:0.5;" width="535" x="944" y="416.5"/><ellipse cx="1165.25" cy="432.5" fill="#ADD1B2" rx="11" ry="11" style="stroke:#181818;stroke-width:1.0;"/><path d="M1168.0156,428.375 Q1168.1719,428.1563 1168.3594,428.0469 Q1168.5469,427.9375 1168.7656,427.9375 Q1169.1406,427.9375 1169.375,428.1953 Q1169.6094,428.4531 1169.6094,429.0625 L1169.6094,430.5156 Q1169.6094,431.125 1169.375,431.3906 Q1169.1406,431.6563 1168.7656,431.6563 Q1168.4219,431.6563 1168.2188,431.4531 Q1168.0156,431.2656 1167.9063,430.75 Q1167.8594,430.3906 1167.6719,430.2031 Q1167.3438,429.8281 1166.7344,429.6094 Q1166.125,429.3906 1165.5,429.3906 Q1164.7344,429.3906 1164.1016,429.7188 Q1163.4688,430.0469 1162.9766,430.7969 Q1162.4844,431.5469 1162.4844,432.5781 L1162.4844,433.6719 Q1162.4844,434.9063 1163.375,435.7266 Q1164.2656,436.5469 1165.8594,436.5469 Q1166.7969,436.5469 1167.4531,436.2969 Q1167.8438,436.1406 1168.2656,435.7031 Q1168.5313,435.4375 1168.6797,435.3594 Q1168.8281,435.2813 1169.0313,435.2813 Q1169.3594,435.2813 1169.6172,435.5391 Q1169.875,435.7969 1169.875,436.1406 Q1169.875,436.4844 1169.5313,436.8906 Q1169.0313,437.4688 1168.2344,437.7969 Q1167.1563,438.25 1165.8594,438.25 Q1164.3438,438.25 1163.1406,437.625 Q1162.1563,437.125 1161.4688,436.0547 Q1160.7813,434.9844 1160.7813,433.7031 L1160.7813,432.5469 Q1160.7813,431.2188 1161.3984,430.0703 Q1162.0156,428.9219 1163.1094,428.3047 Q1164.2031,427.6875 1165.4375,427.6875 Q1166.1719,427.6875 1166.8203,427.8516 Q1167.4688,428.0156 1168.0156,428.375 Z " fill="#000000"/><text fill="#000000" font-family="sans-serif" font-size="14" lengthAdjust="spacing" textLength="84" x="1185.75" y="438.2285">StateElement</text><line style="stroke:#181818;stroke-width:0.5;" x1="945" x2="1478" y1="448.5" y2="448.5"/><ellipse cx="955" cy="462.8047" fill="none" rx="3" ry="3" style="stroke:#038048;stroke-width:1.0;"/><text fill="#000000" font-family="sans-serif" font-size="14" lengthAdjust="spacing" textLength="54" x="964" y="467.0332">state: int</text><line style="stroke:#181818;stroke-width:0.5;" x1="945" x2="1478" y1="474.1094" y2="474.1094"/><ellipse cx="955" cy="488.4141" fill="#84BE84" rx="3" ry="3" style="stroke:#038048;stroke-width:1.0;"/><text fill="#000000" font-family="sans-serif" font-size="14" lengthAdjust="spacing" textLength="509" x="964" y="492.6426">__init__(id: int, state: int, coord: pygame.Vector2, image: pygame.Surface): None</text></g><!--MD5=[8a2ac4d6815825d86d94afd51c19d4e0]
class EmptyElement--><g id="elem_EmptyElement"><rect codeLine="88" fill="#F1F1F1" height="136.0469" id="EmptyElement" rx="2.5" ry="2.5" style="stroke:#181818;stroke-width:0.5;" width="338" x="569.5" y="559.5"/><ellipse cx="689.25" cy="575.5" fill="#ADD1B2" rx="11" ry="11" style="stroke:#181818;stroke-width:1.0;"/><path d="M692.0156,571.375 Q692.1719,571.1563 692.3594,571.0469 Q692.5469,570.9375 692.7656,570.9375 Q693.1406,570.9375 693.375,571.1953 Q693.6094,571.4531 693.6094,572.0625 L693.6094,573.5156 Q693.6094,574.125 693.375,574.3906 Q693.1406,574.6563 692.7656,574.6563 Q692.4219,574.6563 692.2188,574.4531 Q692.0156,574.2656 691.9063,573.75 Q691.8594,573.3906 691.6719,573.2031 Q691.3438,572.8281 690.7344,572.6094 Q690.125,572.3906 689.5,572.3906 Q688.7344,572.3906 688.1016,572.7188 Q687.4688,573.0469 686.9766,573.7969 Q686.4844,574.5469 686.4844,575.5781 L686.4844,576.6719 Q686.4844,577.9063 687.375,578.7266 Q688.2656,579.5469 689.8594,579.5469 Q690.7969,579.5469 691.4531,579.2969 Q691.8438,579.1406 692.2656,578.7031 Q692.5313,578.4375 692.6797,578.3594 Q692.8281,578.2813 693.0313,578.2813 Q693.3594,578.2813 693.6172,578.5391 Q693.875,578.7969 693.875,579.1406 Q693.875,579.4844 693.5313,579.8906 Q693.0313,580.4688 692.2344,580.7969 Q691.1563,581.25 689.8594,581.25 Q688.3438,581.25 687.1406,580.625 Q686.1563,580.125 685.4688,579.0547 Q684.7813,577.9844 684.7813,576.7031 L684.7813,575.5469 Q684.7813,574.2188 685.3984,573.0703 Q686.0156,571.9219 687.1094,571.3047 Q688.2031,570.6875 689.4375,570.6875 Q690.1719,570.6875 690.8203,570.8516 Q691.4688,571.0156 692.0156,571.375 Z " fill="#000000"/><text fill="#000000" font-family="sans-serif" font-size="14" lengthAdjust="spacing" textLength="90" x="709.75" y="581.2285">EmptyElement</text><line style="stroke:#181818;stroke-width:0.5;" x1="570.5" x2="906.5" y1="591.5" y2="591.5"/><ellipse cx="580.5" cy="605.8047" fill="none" rx="3" ry="3" style="stroke:#038048;stroke-width:1.0;"/><text fill="#000000" font-family="sans-serif" font-size="14" lengthAdjust="spacing" text-decoration="underline" textLength="109" x="589.5" y="610.0332">global_id: int = -1</text><ellipse cx="580.5" cy="623.4141" fill="none" rx="3" ry="3" style="stroke:#038048;stroke-width:1.0;"/><text fill="#000000" font-family="sans-serif" font-size="14" lengthAdjust="spacing" text-decoration="underline" textLength="63" x="589.5" y="627.6426">id: int = -1</text><ellipse cx="580.5" cy="641.0234" fill="none" rx="3" ry="3" style="stroke:#038048;stroke-width:1.0;"/><text fill="#000000" font-family="sans-serif" font-size="14" lengthAdjust="spacing" text-decoration="underline" textLength="78" x="589.5" y="645.252">state: int = 0</text><line style="stroke:#181818;stroke-width:0.5;" x1="570.5" x2="906.5" y1="652.3281" y2="652.3281"/><ellipse cx="580.5" cy="666.6328" fill="#84BE84" rx="3" ry="3" style="stroke:#038048;stroke-width:1.0;"/><text fill="#000000" font-family="sans-serif" font-size="14" lengthAdjust="spacing" text-decoration="underline" textLength="280" x="589.5" y="670.8613">rect: pygame.Rect = pygame.Rect(0, 0, 0, 0)</text><ellipse cx="580.5" cy="684.2422" fill="#84BE84" rx="3" ry="3" style="stroke:#038048;stroke-width:1.0;"/><text fill="#000000" font-family="sans-serif" font-size="14" lengthAdjust="spacing" text-decoration="underline" textLength="312" x="589.5" y="688.4707">image: pygame.Surface = pygame.Surface((0, 0))</text></g><!--MD5=[24b5a63e3d7db04a498f2e743299b2e4]
class IndexedElement--><g id="elem_IndexedElement"><rect codeLine="98" fill="#F1F1F1" height="83.2188" id="IndexedElement" rx="2.5" ry="2.5" style="stroke:#181818;stroke-width:0.5;" width="537" x="943" y="586"/><ellipse cx="1157.25" cy="602" fill="#ADD1B2" rx="11" ry="11" style="stroke:#181818;stroke-width:1.0;"/><path d="M1160.0156,597.875 Q1160.1719,597.6563 1160.3594,597.5469 Q1160.5469,597.4375 1160.7656,597.4375 Q1161.1406,597.4375 1161.375,597.6953 Q1161.6094,597.9531 1161.6094,598.5625 L1161.6094,600.0156 Q1161.6094,600.625 1161.375,600.8906 Q1161.1406,601.1563 1160.7656,601.1563 Q1160.4219,601.1563 1160.2188,600.9531 Q1160.0156,600.7656 1159.9063,600.25 Q1159.8594,599.8906 1159.6719,599.7031 Q1159.3438,599.3281 1158.7344,599.1094 Q1158.125,598.8906 1157.5,598.8906 Q1156.7344,598.8906 1156.1016,599.2188 Q1155.4688,599.5469 1154.9766,600.2969 Q1154.4844,601.0469 1154.4844,602.0781 L1154.4844,603.1719 Q1154.4844,604.4063 1155.375,605.2266 Q1156.2656,606.0469 1157.8594,606.0469 Q1158.7969,606.0469 1159.4531,605.7969 Q1159.8438,605.6406 1160.2656,605.2031 Q1160.5313,604.9375 1160.6797,604.8594 Q1160.8281,604.7813 1161.0313,604.7813 Q1161.3594,604.7813 1161.6172,605.0391 Q1161.875,605.2969 1161.875,605.6406 Q1161.875,605.9844 1161.5313,606.3906 Q1161.0313,606.9688 1160.2344,607.2969 Q1159.1563,607.75 1157.8594,607.75 Q1156.3438,607.75 1155.1406,607.125 Q1154.1563,606.625 1153.4688,605.5547 Q1152.7813,604.4844 1152.7813,603.2031 L1152.7813,602.0469 Q1152.7813,600.7188 1153.3984,599.5703 Q1154.0156,598.4219 1155.1094,597.8047 Q1156.2031,597.1875 1157.4375,597.1875 Q1158.1719,597.1875 1158.8203,597.3516 Q1159.4688,597.5156 1160.0156,597.875 Z " fill="#000000"/><text fill="#000000" font-family="sans-serif" font-size="14" lengthAdjust="spacing" textLength="100" x="1177.75" y="607.7285">IndexedElement</text><line style="stroke:#181818;stroke-width:0.5;" x1="944" x2="1479" y1="618" y2="618"/><ellipse cx="954" cy="632.3047" fill="none" rx="3" ry="3" style="stroke:#038048;stroke-width:1.0;"/><text fill="#000000" font-family="sans-serif" font-size="14" lengthAdjust="spacing" textLength="56" x="963" y="636.5332">index: int</text><line style="stroke:#181818;stroke-width:0.5;" x1="944" x2="1479" y1="643.6094" y2="643.6094"/><ellipse cx="954" cy="657.9141" fill="#84BE84" rx="3" ry="3" style="stroke:#038048;stroke-width:1.0;"/><text fill="#000000" font-family="sans-serif" font-size="14" lengthAdjust="spacing" textLength="511" x="963" y="662.1426">__init__(id: int, index: int, coord: pygame.Vector2, image: pygame.Surface): None</text></g><!--MD5=[d588572ab15431e31bd8f546caf990d5]
class FlagElement--><g id="elem_FlagElement"><rect codeLine="106" fill="#F1F1F1" height="83.2188" id="FlagElement" rx="2.5" ry="2.5" style="stroke:#181818;stroke-width:0.5;" width="527" x="7" y="586"/><ellipse cx="226.75" cy="602" fill="#ADD1B2" rx="11" ry="11" style="stroke:#181818;stroke-width:1.0;"/><path d="M229.5156,597.875 Q229.6719,597.6563 229.8594,597.5469 Q230.0469,597.4375 230.2656,597.4375 Q230.6406,597.4375 230.875,597.6953 Q231.1094,597.9531 231.1094,598.5625 L231.1094,600.0156 Q231.1094,600.625 230.875,600.8906 Q230.6406,601.1563 230.2656,601.1563 Q229.9219,601.1563 229.7188,600.9531 Q229.5156,600.7656 229.4063,600.25 Q229.3594,599.8906 229.1719,599.7031 Q228.8438,599.3281 228.2344,599.1094 Q227.625,598.8906 227,598.8906 Q226.2344,598.8906 225.6016,599.2188 Q224.9688,599.5469 224.4766,600.2969 Q223.9844,601.0469 223.9844,602.0781 L223.9844,603.1719 Q223.9844,604.4063 224.875,605.2266 Q225.7656,606.0469 227.3594,606.0469 Q228.2969,606.0469 228.9531,605.7969 Q229.3438,605.6406 229.7656,605.2031 Q230.0313,604.9375 230.1797,604.8594 Q230.3281,604.7813 230.5313,604.7813 Q230.8594,604.7813 231.1172,605.0391 Q231.375,605.2969 231.375,605.6406 Q231.375,605.9844 231.0313,606.3906 Q230.5313,606.9688 229.7344,607.2969 Q228.6563,607.75 227.3594,607.75 Q225.8438,607.75 224.6406,607.125 Q223.6563,606.625 222.9688,605.5547 Q222.2813,604.4844 222.2813,603.2031 L222.2813,602.0469 Q222.2813,600.7188 222.8984,599.5703 Q223.5156,598.4219 224.6094,597.8047 Q225.7031,597.1875 226.9375,597.1875 Q227.6719,597.1875 228.3203,597.3516 Q228.9688,597.5156 229.5156,597.875 Z " fill="#000000"/><text fill="#000000" font-family="sans-serif" font-size="14" lengthAdjust="spacing" textLength="79" x="247.25" y="607.7285">FlagElement</text><line style="stroke:#181818;stroke-width:0.5;" x1="8" x2="533" y1="618" y2="618"/><ellipse cx="18" cy="632.3047" fill="none" rx="3" ry="3" style="stroke:#038048;stroke-width:1.0;"/><text fill="#000000" font-family="sans-serif" font-size="14" lengthAdjust="spacing" textLength="46" x="27" y="636.5332">flag: int</text><line style="stroke:#181818;stroke-width:0.5;" x1="8" x2="533" y1="643.6094" y2="643.6094"/><ellipse cx="18" cy="657.9141" fill="#84BE84" rx="3" ry="3" style="stroke:#038048;stroke-width:1.0;"/><text fill="#000000" font-family="sans-serif" font-size="14" lengthAdjust="spacing" textLength="501" x="27" y="662.1426">__init__(id: int, flag: int, coord: pygame.Vector2, image: pygame.Surface): None</text></g><!--MD5=[0c1f7c057df6357845e0aed5ab298775]
class PaletteElement--><g id="elem_PaletteElement"><rect codeLine="114" fill="#F1F1F1" height="118.4375" id="PaletteElement" rx="2.5" ry="2.5" style="stroke:#181818;stroke-width:0.5;" width="657" x="1689" y="568.5"/><ellipse cx="1965.75" cy="584.5" fill="#ADD1B2" rx="11" ry="11" style="stroke:#181818;stroke-width:1.0;"/><path d="M1968.5156,580.375 Q1968.6719,580.1563 1968.8594,580.0469 Q1969.0469,579.9375 1969.2656,579.9375 Q1969.6406,579.9375 1969.875,580.1953 Q1970.1094,580.4531 1970.1094,581.0625 L1970.1094,582.5156 Q1970.1094,583.125 1969.875,583.3906 Q1969.6406,583.6563 1969.2656,583.6563 Q1968.9219,583.6563 1968.7188,583.4531 Q1968.5156,583.2656 1968.4063,582.75 Q1968.3594,582.3906 1968.1719,582.2031 Q1967.8438,581.8281 1967.2344,581.6094 Q1966.625,581.3906 1966,581.3906 Q1965.2344,581.3906 1964.6016,581.7188 Q1963.9688,582.0469 1963.4766,582.7969 Q1962.9844,583.5469 1962.9844,584.5781 L1962.9844,585.6719 Q1962.9844,586.9063 1963.875,587.7266 Q1964.7656,588.5469 1966.3594,588.5469 Q1967.2969,588.5469 1967.9531,588.2969 Q1968.3438,588.1406 1968.7656,587.7031 Q1969.0313,587.4375 1969.1797,587.3594 Q1969.3281,587.2813 1969.5313,587.2813 Q1969.8594,587.2813 1970.1172,587.5391 Q1970.375,587.7969 1970.375,588.1406 Q1970.375,588.4844 1970.0313,588.8906 Q1969.5313,589.4688 1968.7344,589.7969 Q1967.6563,590.25 1966.3594,590.25 Q1964.8438,590.25 1963.6406,589.625 Q1962.6563,589.125 1961.9688,588.0547 Q1961.2813,586.9844 1961.2813,585.7031 L1961.2813,584.5469 Q1961.2813,583.2188 1961.8984,582.0703 Q1962.5156,580.9219 1963.6094,580.3047 Q1964.7031,579.6875 1965.9375,579.6875 Q1966.6719,579.6875 1967.3203,579.8516 Q1967.9688,580.0156 1968.5156,580.375 Z " fill="#000000"/><text fill="#000000" font-family="sans-serif" font-size="14" lengthAdjust="spacing" textLength="95" x="1986.25" y="590.2285">PaletteElement</text><line style="stroke:#181818;stroke-width:0.5;" x1="1690" x2="2345" y1="600.5" y2="600.5"/><ellipse cx="1700" cy="614.8047" fill="none" rx="3" ry="3" style="stroke:#038048;stroke-width:1.0;"/><text fill="#000000" font-family="sans-serif" font-size="14" lengthAdjust="spacing" textLength="206" x="1709" y="619.0332">spritesheet: list[pygame.Surface]</text><ellipse cx="1700" cy="632.4141" fill="none" rx="3" ry="3" style="stroke:#038048;stroke-width:1.0;"/><text fill="#000000" font-family="sans-serif" font-size="14" lengthAdjust="spacing" textLength="80" x="1709" y="636.6426">global_id: int</text><ellipse cx="1700" cy="650.0234" fill="none" rx="3" ry="3" style="stroke:#038048;stroke-width:1.0;"/><text fill="#000000" font-family="sans-serif" font-size="14" lengthAdjust="spacing" textLength="56" x="1709" y="654.252">index: int</text><line style="stroke:#181818;stroke-width:0.5;" x1="1690" x2="2345" y1="661.3281" y2="661.3281"/><ellipse cx="1700" cy="675.6328" fill="#84BE84" rx="3" ry="3" style="stroke:#038048;stroke-width:1.0;"/><text fill="#000000" font-family="sans-serif" font-size="14" lengthAdjust="spacing" textLength="631" x="1709" y="679.8613">__init__(id: int, index: int, global_id: int, coord: pygame.Vector2, spritesheet: pygame.Surface): None</text></g><!--MD5=[e01b70b412be654bcaacdc44bf50d0a5]
class Palette--><g id="elem_Palette"><rect codeLine="125" fill="#F1F1F1" height="188.875" id="Palette" rx="2.5" ry="2.5" style="stroke:#181818;stroke-width:0.5;" width="585" x="1704" y="755.5"/><ellipse cx="1970.25" cy="771.5" fill="#ADD1B2" rx="11" ry="11" style="stroke:#181818;stroke-width:1.0;"/><path d="M1973.0156,767.375 Q1973.1719,767.1563 1973.3594,767.0469 Q1973.5469,766.9375 1973.7656,766.9375 Q1974.1406,766.9375 1974.375,767.1953 Q1974.6094,767.4531 1974.6094,768.0625 L1974.6094,769.5156 Q1974.6094,770.125 1974.375,770.3906 Q1974.1406,770.6563 1973.7656,770.6563 Q1973.4219,770.6563 1973.2188,770.4531 Q1973.0156,770.2656 1972.9063,769.75 Q1972.8594,769.3906 1972.6719,769.2031 Q1972.3438,768.8281 1971.7344,768.6094 Q1971.125,768.3906 1970.5,768.3906 Q1969.7344,768.3906 1969.1016,768.7188 Q1968.4688,769.0469 1967.9766,769.7969 Q1967.4844,770.5469 1967.4844,771.5781 L1967.4844,772.6719 Q1967.4844,773.9063 1968.375,774.7266 Q1969.2656,775.5469 1970.8594,775.5469 Q1971.7969,775.5469 1972.4531,775.2969 Q1972.8438,775.1406 1973.2656,774.7031 Q1973.5313,774.4375 1973.6797,774.3594 Q1973.8281,774.2813 1974.0313,774.2813 Q1974.3594,774.2813 1974.6172,774.5391 Q1974.875,774.7969 1974.875,775.1406 Q1974.875,775.4844 1974.5313,775.8906 Q1974.0313,776.4688 1973.2344,776.7969 Q1972.1563,777.25 1970.8594,777.25 Q1969.3438,777.25 1968.1406,776.625 Q1967.1563,776.125 1966.4688,775.0547 Q1965.7813,773.9844 1965.7813,772.7031 L1965.7813,771.5469 Q1965.7813,770.2188 1966.3984,769.0703 Q1967.0156,767.9219 1968.1094,767.3047 Q1969.2031,766.6875 1970.4375,766.6875 Q1971.1719,766.6875 1971.8203,766.8516 Q1972.4688,767.0156 1973.0156,767.375 Z " fill="#000000"/><text fill="#000000" font-family="sans-serif" font-size="14" lengthAdjust="spacing" textLength="44" x="1990.75" y="777.2285">Palette</text><line style="stroke:#181818;stroke-width:0.5;" x1="1705" x2="2288" y1="787.5" y2="787.5"/><ellipse cx="1715" cy="801.8047" fill="none" rx="3" ry="3" style="stroke:#038048;stroke-width:1.0;"/><text fill="#000000" font-family="sans-serif" font-size="14" lengthAdjust="spacing" textLength="230" x="1724" y="806.0332">hitboxes: list[tuple[int, pygame.Rect]]</text><ellipse cx="1715" cy="819.4141" fill="none" rx="3" ry="3" style="stroke:#038048;stroke-width:1.0;"/><text fill="#000000" font-family="sans-serif" font-size="14" lengthAdjust="spacing" textLength="213" x="1724" y="823.6426">elements: dict[int, PaletteElement]</text><ellipse cx="1715" cy="837.0234" fill="none" rx="3" ry="3" style="stroke:#038048;stroke-width:1.0;"/><text fill="#000000" font-family="sans-serif" font-size="14" lengthAdjust="spacing" textLength="144" x="1724" y="841.252">table: list[assets.Asset]</text><ellipse cx="1715" cy="854.6328" fill="none" rx="3" ry="3" style="stroke:#038048;stroke-width:1.0;"/><text fill="#000000" font-family="sans-serif" font-size="14" lengthAdjust="spacing" textLength="156" x="1724" y="858.8613">selected: PaletteElement</text><line style="stroke:#181818;stroke-width:0.5;" x1="1705" x2="2288" y1="865.9375" y2="865.9375"/><ellipse cx="1715" cy="880.2422" fill="#84BE84" rx="3" ry="3" style="stroke:#038048;stroke-width:1.0;"/><text fill="#000000" font-family="sans-serif" font-size="14" lengthAdjust="spacing" textLength="559" x="1724" y="884.4707">__init__(rect: pygame.Rect, table: list[assets.Asset] = config.DEFAULT_PALETTE): None</text><ellipse cx="1715" cy="897.8516" fill="#84BE84" rx="3" ry="3" style="stroke:#038048;stroke-width:1.0;"/><text fill="#000000" font-family="sans-serif" font-size="14" lengthAdjust="spacing" textLength="81" x="1724" y="902.0801">draw(): None</text><ellipse cx="1715" cy="915.4609" fill="#84BE84" rx="3" ry="3" style="stroke:#038048;stroke-width:1.0;"/><text fill="#000000" font-family="sans-serif" font-size="14" lengthAdjust="spacing" textLength="300" x="1724" y="919.6895">handle_click(mouse_coord: tuple[int, int]): None</text><ellipse cx="1715" cy="933.0703" fill="#84BE84" rx="3" ry="3" style="stroke:#038048;stroke-width:1.0;"/><text fill="#000000" font-family="sans-serif" font-size="14" lengthAdjust="spacing" textLength="122" x="1724" y="937.2988">select(id: int): None</text></g><!--MD5=[1f24f7b92150e3316908f7910ce81742]
class Grid--><g id="elem_Grid"><rect codeLine="140" fill="#F1F1F1" height="188.875" id="Grid" rx="2.5" ry="2.5" style="stroke:#181818;stroke-width:0.5;" width="475" x="2457" y="755.5"/><ellipse cx="2676.75" cy="771.5" fill="#ADD1B2" rx="11" ry="11" style="stroke:#181818;stroke-width:1.0;"/><path d="M2679.5156,767.375 Q2679.6719,767.1563 2679.8594,767.0469 Q2680.0469,766.9375 2680.2656,766.9375 Q2680.6406,766.9375 2680.875,767.1953 Q2681.1094,767.4531 2681.1094,768.0625 L2681.1094,769.5156 Q2681.1094,770.125 2680.875,770.3906 Q2680.6406,770.6563 2680.2656,770.6563 Q2679.9219,770.6563 2679.7188,770.4531 Q2679.5156,770.2656 2679.4063,769.75 Q2679.3594,769.3906 2679.1719,769.2031 Q2678.8438,768.8281 2678.2344,768.6094 Q2677.625,768.3906 2677,768.3906 Q2676.2344,768.3906 2675.6016,768.7188 Q2674.9688,769.0469 2674.4766,769.7969 Q2673.9844,770.5469 2673.9844,771.5781 L2673.9844,772.6719 Q2673.9844,773.9063 2674.875,774.7266 Q2675.7656,775.5469 2677.3594,775.5469 Q2678.2969,775.5469 2678.9531,775.2969 Q2679.3438,775.1406 2679.7656,774.7031 Q2680.0313,774.4375 2680.1797,774.3594 Q2680.3281,774.2813 2680.5313,774.2813 Q2680.8594,774.2813 2681.1172,774.5391 Q2681.375,774.7969 2681.375,775.1406 Q2681.375,775.4844 2681.0313,775.8906 Q2680.5313,776.4688 2679.7344,776.7969 Q2678.6563,777.25 2677.3594,777.25 Q2675.8438,777.25 2674.6406,776.625 Q2673.6563,776.125 2672.9688,775.0547 Q2672.2813,773.9844 2672.2813,772.7031 L2672.2813,771.5469 Q2672.2813,770.2188 2672.8984,769.0703 Q2673.5156,767.9219 2674.6094,767.3047 Q2675.7031,766.6875 2676.9375,766.6875 Q2677.6719,766.6875 2678.3203,766.8516 Q2678.9688,767.0156 2679.5156,767.375 Z " fill="#000000"/><text fill="#000000" font-family="sans-serif" font-size="14" lengthAdjust="spacing" textLength="27" x="2697.25" y="777.2285">Grid</text><line style="stroke:#181818;stroke-width:0.5;" x1="2458" x2="2931" y1="787.5" y2="787.5"/><ellipse cx="2468" cy="801.8047" fill="none" rx="3" ry="3" style="stroke:#038048;stroke-width:1.0;"/><text fill="#000000" font-family="sans-serif" font-size="14" lengthAdjust="spacing" textLength="107" x="2477" y="806.0332">dim: tuple[int, int]</text><ellipse cx="2468" cy="819.4141" fill="none" rx="3" ry="3" style="stroke:#038048;stroke-width:1.0;"/><text fill="#000000" font-family="sans-serif" font-size="14" lengthAdjust="spacing" textLength="130" x="2477" y="823.6426">map: numpy.ndarray</text><text fill="#000000" font-family="sans-serif" font-size="14" lengthAdjust="spacing" textLength="4" x="2477" y="841.252"> </text><rect fill="none" height="6" style="stroke:#C82930;stroke-width:1.0;" width="6" x="2465" y="851.6328"/><text fill="#000000" font-family="sans-serif" font-size="14" lengthAdjust="spacing" textLength="186" x="2477" y="858.8613">background: pygame.Surface</text><line style="stroke:#181818;stroke-width:0.5;" x1="2458" x2="2931" y1="865.9375" y2="865.9375"/><ellipse cx="2468" cy="880.2422" fill="#84BE84" rx="3" ry="3" style="stroke:#038048;stroke-width:1.0;"/><text fill="#000000" font-family="sans-serif" font-size="14" lengthAdjust="spacing" textLength="449" x="2477" y="884.4707">__init__(rect: Rect, palette: Palette, grid: numpy.ndarray = None): None</text><ellipse cx="2468" cy="897.8516" fill="#84BE84" rx="3" ry="3" style="stroke:#038048;stroke-width:1.0;"/><text fill="#000000" font-family="sans-serif" font-size="14" lengthAdjust="spacing" textLength="81" x="2477" y="902.0801">draw(): None</text><ellipse cx="2468" cy="915.4609" fill="#84BE84" rx="3" ry="3" style="stroke:#038048;stroke-width:1.0;"/><text fill="#000000" font-family="sans-serif" font-size="14" lengthAdjust="spacing" textLength="219" x="2477" y="919.6895">compute_ct(palette: Palette): None</text><ellipse cx="2468" cy="933.0703" fill="#84BE84" rx="3" ry="3" style="stroke:#038048;stroke-width:1.0;"/><text fill="#000000" font-family="sans-serif" font-size="14" lengthAdjust="spacing" textLength="403" x="2477" y="937.2988">handle_click(mouse_coord: tuple[int, int], palette: Palette): None</text></g><!--MD5=[0e2e915064bf2e2ee735763ff21e6466]
class Serializer--><g id="elem_Serializer"><rect codeLine="155" fill="#F1F1F1" height="136.0469" id="Serializer" rx="2.5" ry="2.5" style="stroke:#181818;stroke-width:0.5;" width="653" x="2009" y="1004.5"/><ellipse cx="2302.25" cy="1020.5" fill="#ADD1B2" rx="11" ry="11" style="stroke:#181818;stroke-width:1.0;"/><path d="M2305.0156,1016.375 Q2305.1719,1016.1563 2305.3594,1016.0469 Q2305.5469,1015.9375 2305.7656,1015.9375 Q2306.1406,1015.9375 2306.375,1016.1953 Q2306.6094,1016.4531 2306.6094,1017.0625 L2306.6094,1018.5156 Q2306.6094,1019.125 2306.375,1019.3906 Q2306.1406,1019.6563 2305.7656,1019.6563 Q2305.4219,1019.6563 2305.2188,1019.4531 Q2305.0156,1019.2656 2304.9063,1018.75 Q2304.8594,1018.3906 2304.6719,1018.2031 Q2304.3438,1017.8281 2303.7344,1017.6094 Q2303.125,1017.3906 2302.5,1017.3906 Q2301.7344,1017.3906 2301.1016,1017.7188 Q2300.4688,1018.0469 2299.9766,1018.7969 Q2299.4844,1019.5469 2299.4844,1020.5781 L2299.4844,1021.6719 Q2299.4844,1022.9063 2300.375,1023.7266 Q2301.2656,1024.5469 2302.8594,1024.5469 Q2303.7969,1024.5469 2304.4531,1024.2969 Q2304.8438,1024.1406 2305.2656,1023.7031 Q2305.5313,1023.4375 2305.6797,1023.3594 Q2305.8281,1023.2813 2306.0313,1023.2813 Q2306.3594,1023.2813 2306.6172,1023.5391 Q2306.875,1023.7969 2306.875,1024.1406 Q2306.875,1024.4844 2306.5313,1024.8906 Q2306.0313,1025.4688 2305.2344,1025.7969 Q2304.1563,1026.25 2302.8594,1026.25 Q2301.3438,1026.25 2300.1406,1025.625 Q2299.1563,1025.125 2298.4688,1024.0547 Q2297.7813,1022.9844 2297.7813,1021.7031 L2297.7813,1020.5469 Q2297.7813,1019.2188 2298.3984,1018.0703 Q2299.0156,1016.9219 2300.1094,1016.3047 Q2301.2031,1015.6875 2302.4375,1015.6875 Q2303.1719,1015.6875 2303.8203,1015.8516 Q2304.4688,1016.0156 2305.0156,1016.375 Z " fill="#000000"/><text fill="#000000" font-family="sans-serif" font-size="14" lengthAdjust="spacing" textLength="58" x="2322.75" y="1026.2285">Serializer</text><line style="stroke:#181818;stroke-width:0.5;" x1="2010" x2="2661" y1="1036.5" y2="1036.5"/><ellipse cx="2020" cy="1050.8047" fill="none" rx="3" ry="3" style="stroke:#038048;stroke-width:1.0;"/><text fill="#000000" font-family="sans-serif" font-size="14" lengthAdjust="spacing" textLength="84" x="2029" y="1055.0332">grid_ref: Grid</text><ellipse cx="2020" cy="1068.4141" fill="none" rx="3" ry="3" style="stroke:#038048;stroke-width:1.0;"/><text fill="#000000" font-family="sans-serif" font-size="14" lengthAdjust="spacing" textLength="157" x="2029" y="1072.6426">local_palette_ref: Palette</text><line style="stroke:#181818;stroke-width:0.5;" x1="2010" x2="2661" y1="1079.7188" y2="1079.7188"/><ellipse cx="2020" cy="1094.0234" fill="#84BE84" rx="3" ry="3" style="stroke:#038048;stroke-width:1.0;"/><text fill="#000000" font-family="sans-serif" font-size="14" lengthAdjust="spacing" textLength="300" x="2029" y="1098.252">__init__(grid: Grid, local_palette: Palette): None</text><ellipse cx="2020" cy="1111.6328" fill="#84BE84" rx="3" ry="3" style="stroke:#038048;stroke-width:1.0;"/><text fill="#000000" font-family="sans-serif" font-size="14" lengthAdjust="spacing" textLength="284" x="2029" y="1115.8613">serialize(file: str = "default_0000.map"): None</text><ellipse cx="2020" cy="1129.2422" fill="#84BE84" rx="3" ry="3" style="stroke:#038048;stroke-width:1.0;"/><text fill="#000000" font-family="sans-serif" font-size="14" lengthAdjust="spacing" textLength="627" x="2029" y="1133.4707">deserialize(palette_rect: Rect, window_rect: Rect, file: str = "default_0000.map"): tuple[Palette, Grid]</text></g><!--MD5=[a0ecf7d2a5b40c129323320bef793e42]
reverse link pygame.sprite.DirtySprite to Element--><g id="link_pygame.sprite.DirtySprite_Element"><path codeLine="77" d="M1345.5,154.23 C1345.5,176.89 1345.5,204.96 1345.5,229.49 " fill="none" id="pygame.sprite.DirtySprite-backto-Element" style="stroke:#181818;stroke-width:1.0;"/><polygon fill="none" points="1338.5,154.07,1345.5,134.07,1352.5,154.07,1338.5,154.07" style="stroke:#181818;stroke-width:1.0;"/></g><!--MD5=[23487b235cabe3329ce558c43bb1434b]
reverse link Element to StateElement--><g id="link_Element_StateElement"><path codeLine="86" d="M1286.41,363.37 C1271.84,381.58 1256.76,400.42 1243.99,416.39 " fill="none" id="Element-backto-StateElement" style="stroke:#181818;stroke-width:1.0;"/><polygon fill="none" points="1281.05,358.86,1299.01,347.61,1291.98,367.6,1281.05,358.86" style="stroke:#181818;stroke-width:1.0;"/></g><!--MD5=[29083f6c648cb6973580cc878530b80e]
reverse link StateElement to EmptyElement--><g id="link_StateElement_EmptyElement"><path codeLine="96" d="M1076.6,506.21 C1028.84,522.98 974.76,542.02 925.5,559.5 C919.65,561.58 913.7,563.69 907.69,565.83 " fill="none" id="StateElement-backto-EmptyElement" style="stroke:#181818;stroke-width:1.0;"/><polygon fill="none" points="1074.41,499.56,1095.6,499.55,1079.04,512.77,1074.41,499.56" style="stroke:#181818;stroke-width:1.0;"/></g><!--MD5=[1826249df537dbc7c4e91d28aa15406c]
reverse link StateElement to IndexedElement--><g id="link_StateElement_IndexedElement"><path codeLine="104" d="M1211.5,519.68 C1211.5,541.65 1211.5,565.9 1211.5,585.75 " fill="none" id="StateElement-backto-IndexedElement" style="stroke:#181818;stroke-width:1.0;"/><polygon fill="none" points="1204.5,519.55,1211.5,499.55,1218.5,519.55,1204.5,519.55" style="stroke:#181818;stroke-width:1.0;"/></g><!--MD5=[d8008a548d95b793040561779ae54fb5]
reverse link StateElement to FlagElement--><g id="link_StateElement_FlagElement"><path codeLine="112" d="M923.82,497.65 C808.07,514.56 673.58,535.93 552.5,559.5 C512.99,567.19 470.63,576.62 431.06,585.95 " fill="none" id="StateElement-backto-FlagElement" style="stroke:#181818;stroke-width:1.0;"/><polygon fill="none" points="922.91,490.71,943.71,494.76,924.92,504.56,922.91,490.71" style="stroke:#181818;stroke-width:1.0;"/></g><!--MD5=[b5f243f1e4558508618d093cf2045146]
reverse link StateElement to PaletteElement--><g id="link_StateElement_PaletteElement"><path codeLine="122" d="M1426.42,503.66 C1522.08,523.54 1635.97,547.21 1738.12,568.44 " fill="none" id="StateElement-backto-PaletteElement" style="stroke:#181818;stroke-width:1.0;"/><polygon fill="none" points="1424.77,510.47,1406.61,499.55,1427.62,496.76,1424.77,510.47" style="stroke:#181818;stroke-width:1.0;"/></g><!--MD5=[3a3d484d58f7e9b3199fdfb58b259bc4]
reverse link WindowComponent to Palette--><g id="link_WindowComponent_Palette"><path codeLine="137" d="M2365.05,694.83 C2364.53,695.05 2364.02,695.28 2363.5,695.5 C2318.22,715.21 2269.61,735.89 2223.06,755.45 " fill="none" id="WindowComponent-backto-Palette" style="stroke:#181818;stroke-width:1.0;"/><polygon fill="none" points="2362.52,688.29,2383.65,686.66,2368.15,701.11,2362.52,688.29" style="stroke:#181818;stroke-width:1.0;"/></g><!--MD5=[78c3124264de7cbc34f11c1dae7b598f]
reverse link WindowComponent to Grid--><g id="link_WindowComponent_Grid"><path codeLine="152" d="M2572.73,702.27 C2586.87,719.32 2602.1,737.67 2616.84,755.43 " fill="none" id="WindowComponent-backto-Grid" style="stroke:#181818;stroke-width:1.0;"/><polygon fill="none" points="2567.21,706.58,2559.82,686.72,2577.98,697.64,2567.21,706.58" style="stroke:#181818;stroke-width:1.0;"/></g><!--MD5=[09b54c312271d0b4586fc0a5f2248815]
link pygame.Rect to WindowComponent--><g id="link_pygame.Rect_WindowComponent"><path codeLine="164" d="M2221.15,134.15 C2265.52,209.39 2406.7,448.79 2474.48,563.73 " fill="none" id="pygame.Rect-to-WindowComponent" style="stroke:#181818;stroke-width:1.0;"/><polygon fill="#181818" points="2477.06,568.1,2475.9361,558.3155,2474.5212,563.7925,2469.0441,562.3776,2477.06,568.1" style="stroke:#181818;stroke-width:1.0;"/></g><!--MD5=[c662236c1fc037bdda2adbbbf7d7d069]
link MapEditor to Buttons--><g id="link_MapEditor_Buttons"><path codeLine="166" d="M2322.84,1424.82 C2322.64,1442.86 2322.77,1461.34 2323.25,1478.79 " fill="none" id="MapEditor-to-Buttons" style="stroke:#181818;stroke-width:1.0;"/><polygon fill="#181818" points="2323.41,1484.18,2327.1513,1475.0694,2323.2672,1479.182,2319.1546,1475.2979,2323.41,1484.18" style="stroke:#181818;stroke-width:1.0;"/></g><!--MD5=[97e949f2d47e17c6d4779d2e47941101]
link Buttons to MapEditor--><g id="link_Buttons_MapEditor"><path codeLine="175" d="M2348.3,1484.18 C2348.89,1466.8 2349.11,1448.23 2348.95,1429.96 " fill="none" id="Buttons-to-MapEditor" style="stroke:#181818;stroke-width:1.0;"/><polygon fill="#181818" points="2348.9,1424.82,2345.0031,1433.8651,2348.9571,1429.8197,2353.0026,1433.7737,2348.9,1424.82" style="stroke:#181818;stroke-width:1.0;"/></g><!--MD5=[a30b19ce435c82bd365849eef5dbb699]
link pygame.time.clock to GameStates--><g id="link_pygame.time.clock_GameStates"><path codeLine="168" d="M2453.58,122.1 C2508.56,141.27 2624.18,182.21 2720.5,220.5 C2727.76,223.39 2735.19,226.39 2742.67,229.46 " fill="none" id="pygame.time.clock-to-GameStates" style="stroke:#181818;stroke-width:1.0;"/><polygon fill="#181818" points="2747.34,231.38,2740.5332,224.2619,2742.7145,229.4813,2737.4952,231.6627,2747.34,231.38" style="stroke:#181818;stroke-width:1.0;"/></g><!--MD5=[d3c520fc1c268c7a3a333172d9f25c69]
link pygame.Surface to GameStates--><g id="link_pygame.Surface_GameStates"><path codeLine="169" d="M2326.57,134.28 C2337.03,150.55 2353.28,171.22 2373.5,182 C2510.42,255 2570.47,180.9 2720.5,220.5 C2727.68,222.39 2734.95,224.57 2742.24,226.94 " fill="none" id="pygame.Surface-to-GameStates" style="stroke:#181818;stroke-width:1.0;"/><polygon fill="#181818" points="2747.28,228.61,2739.9948,221.9824,2742.5337,227.0374,2737.4787,229.5764,2747.28,228.61" style="stroke:#181818;stroke-width:1.0;"/></g><!--MD5=[8d917b0faf4bcd388f5497ffc2135234]
link pygame_gui.UIManager to GameStates--><g id="link_pygame_gui.UIManager_GameStates"><path codeLine="170" d="M2876.5,134.07 C2876.5,154.74 2876.5,186.19 2876.5,215.25 " fill="none" id="pygame_gui.UIManager-to-GameStates" style="stroke:#181818;stroke-width:1.0;"/><polygon fill="#181818" points="2876.5,220.26,2880.5,211.26,2876.5,215.26,2872.5,211.26,2876.5,220.26" style="stroke:#181818;stroke-width:1.0;"/></g><!--MD5=[b4469afd7ce8246b943e4fe1a6878414]
link Serializer to MapEditor--><g id="link_Serializer_MapEditor"><path codeLine="172" d="M2335.5,1140.75 C2335.5,1157.71 2335.5,1176.41 2335.5,1195.04 " fill="none" id="Serializer-to-MapEditor" style="stroke:#181818;stroke-width:1.0;"/><polygon fill="#181818" points="2335.5,1200.28,2339.5,1191.28,2335.5,1195.28,2331.5,1191.28,2335.5,1200.28" style="stroke:#181818;stroke-width:1.0;"/></g><!--MD5=[3f99caf0eb95c555000fe4ebff0aa361]
link Palette to MapEditor--><g id="link_Palette_MapEditor"><path codeLine="173" d="M1970.37,944.56 C1959.13,1004.89 1955.62,1082.6 1991.5,1140.5 C2046.61,1229.44 2163.35,1273.59 2245.5,1294.44 " fill="none" id="Palette-to-MapEditor" style="stroke:#181818;stroke-width:1.0;"/><polygon fill="#181818" points="2250.37,1295.66,2242.6131,1289.5912,2245.5201,1294.444,2240.6674,1297.351,2250.37,1295.66" style="stroke:#181818;stroke-width:1.0;"/></g><!--MD5=[e268af3d689f6ecba765e6dc8d5c5b22]
link Grid to MapEditor--><g id="link_Grid_MapEditor"><path codeLine="174" d="M2712.49,944.81 C2718.93,1005.43 2716.98,1083.38 2679.5,1140.5 C2622.49,1227.4 2507.43,1271.86 2426.11,1293.36 " fill="none" id="Grid-to-MapEditor" style="stroke:#181818;stroke-width:1.0;"/><polygon fill="#181818" points="2420.8,1294.74,2430.5175,1296.3434,2425.6387,1293.4802,2428.5018,1288.6014,2420.8,1294.74" style="stroke:#181818;stroke-width:1.0;"/></g><!--MD5=[284f0269efe058e6438b36ea635b7436]
link pygame.Surface to Element--><g id="link_pygame.Surface_Element"><path codeLine="177" d="M2301.03,134.25 C2291,150.49 2275.33,171.15 2255.5,182 C2144,243 1817.05,268.96 1587.11,279.85 " fill="none" id="pygame.Surface-to-Element" style="stroke:#181818;stroke-width:1.0;"/><polygon fill="#181818" points="1582.04,280.09,1591.2235,283.6487,1587.0341,279.8474,1590.8353,275.6581,1582.04,280.09" style="stroke:#181818;stroke-width:1.0;"/></g><!--MD5=[cf60685dffa574acf01ad99c09a4e799]
link pygame.Rect to Element--><g id="link_pygame.Rect_Element"><path codeLine="178" d="M2176.86,115.86 C2088.47,130.04 1825.54,173.36 1609.5,220.5 C1598.18,222.97 1586.61,225.58 1574.94,228.28 " fill="none" id="pygame.Rect-to-Element" style="stroke:#181818;stroke-width:1.0;"/><polygon fill="#181818" points="1569.93,229.45,1579.6006,231.3155,1574.801,228.3215,1577.795,223.522,1569.93,229.45" style="stroke:#181818;stroke-width:1.0;"/></g><!--MD5=[7307217c4a2dcc04b023b4eda5838fb0]
link pygame.Surface to PaletteElement--><g id="link_pygame.Surface_PaletteElement"><path codeLine="180" d="M2300.21,134.15 C2257,209.39 2119.54,448.79 2053.54,563.73 " fill="none" id="pygame.Surface-to-PaletteElement" style="stroke:#181818;stroke-width:1.0;"/><polygon fill="#181818" points="2051.03,568.1,2058.9723,562.276,2053.5138,563.7605,2052.0292,558.302,2051.03,568.1" style="stroke:#181818;stroke-width:1.0;"/></g><!--MD5=[15aff09313fdbf0d8aaa6df884c8bfc9]
link pygame.Rect to Palette--><g id="link_pygame.Rect_Palette"><path codeLine="182" d="M2176.81,124.73 C2080.01,169.99 1781.01,325.07 1671.5,559.5 C1645.92,614.26 1639.15,644.44 1671.5,695.5 C1685.28,717.24 1703.05,735.96 1723.18,752.07 " fill="none" id="pygame.Rect-to-Palette" style="stroke:#181818;stroke-width:1.0;"/><polygon fill="#181818" points="1727.24,755.26,1722.6526,746.5448,1723.3149,752.1627,1717.6969,752.825,1727.24,755.26" style="stroke:#181818;stroke-width:1.0;"/></g><!--MD5=[9a91304b633a0bbd2bd1efdd96795cb4]
link PaletteElement to Palette--><g id="link_PaletteElement_Palette"><path codeLine="183" d="M2011.96,686.72 C2010.1,706.21 2007.97,728.52 2005.91,750.22 " fill="none" id="PaletteElement-to-Palette" style="stroke:#181818;stroke-width:1.0;"/><polygon fill="#181818" points="2005.41,755.43,2010.2395,746.8465,2005.8807,750.4522,2002.275,746.0934,2005.41,755.43" style="stroke:#181818;stroke-width:1.0;"/></g><!--MD5=[a4b14d8cebfac139a6fae7d7b29691a2]
link assets.Asset to Palette--><g id="link_assets.Asset_Palette"><path codeLine="184" d="M1565.3,651.8 C1576.5,665.98 1592.29,683.6 1609.5,695.5 C1640.72,717.09 1675.42,736.28 1710.86,753.15 " fill="none" id="assets.Asset-to-Palette" style="stroke:#181818;stroke-width:1.0;"/><polygon fill="#181818" points="1715.63,755.4,1709.1864,747.9515,1711.1049,753.2731,1705.7833,755.1916,1715.63,755.4" style="stroke:#181818;stroke-width:1.0;"/></g><!--MD5=[4a74bb3ce8dd6116c06a8c62f0465a6a]
link numpy.ndarray to Grid--><g id="link_numpy.ndarray_Grid"><path codeLine="186" d="M2778.62,651.68 C2768.51,675.38 2752.12,713.83 2736.48,750.52 " fill="none" id="numpy.ndarray-to-Grid" style="stroke:#181818;stroke-width:1.0;"/><polygon fill="#181818" points="2734.38,755.45,2741.5842,748.7344,2736.3375,750.8491,2734.2228,745.6024,2734.38,755.45" style="stroke:#181818;stroke-width:1.0;"/></g><!--MD5=[34d43a714eab7132d7fa72f54c9e423e]
link pygame.Surface to Grid--><g id="link_pygame.Surface_Grid"><path codeLine="187" d="M2332.53,134.14 C2402.02,218.88 2639.16,509.84 2659.5,559.5 C2684.18,619.76 2692.89,692.54 2695.46,750.06 " fill="none" id="pygame.Surface-to-Grid" style="stroke:#181818;stroke-width:1.0;"/><polygon fill="#181818" points="2695.67,755.22,2699.2798,746.0565,2695.4553,750.2246,2691.2872,746.4001,2695.67,755.22" style="stroke:#181818;stroke-width:1.0;"/></g><!--MD5=[5ebb4a6a1ede5085e4a798ea55c1711d]
link Grid to Serializer--><g id="link_Grid_Serializer"><path codeLine="189" d="M2542.25,944.51 C2511.01,963.7 2478.65,983.58 2449.06,1001.75 " fill="none" id="Grid-to-Serializer" style="stroke:#181818;stroke-width:1.0;"/><polygon fill="#181818" points="2444.71,1004.42,2454.4725,1003.1189,2448.9707,1001.8035,2450.2861,996.3017,2444.71,1004.42" style="stroke:#181818;stroke-width:1.0;"/></g><!--MD5=[11d4dc19920f3a2cc8fb7f366363e385]
link Palette to Serializer--><g id="link_Palette_Serializer"><path codeLine="190" d="M2140.27,944.51 C2169.64,963.62 2200.08,983.41 2227.92,1001.53 " fill="none" id="Palette-to-Serializer" style="stroke:#181818;stroke-width:1.0;"/><polygon fill="#181818" points="2232.37,1004.42,2227.0149,996.1543,2228.1814,1001.6895,2222.6461,1002.8561,2232.37,1004.42" style="stroke:#181818;stroke-width:1.0;"/></g><!--MD5=[a3afe7d8d69e1afd71acab7331aae1b3]
@startuml Editor

package pygame {

    package time {}

}

package utils {
    class Reference {
        + value: Any

        + __init__(value: Any): None
    }
}

class Input {
    + {static} keys: list[int]

    + {static} is_pressed(key: int): bool
    + {static} update(): None
}

abstract WindowComponent {
    # rect: pygame.Rect

    + __init__(rect: pygame.Rect): None
    + {abstract} draw(): None
    + is_clicked(coords: tuple[int, int]): bool
}


class Buttons {
    els: dict[str, function]

    {static} editor: MapEditor
    
    + __init__(editor: MapEditor): None
    + detected_pressed_button(button: pygame_gui.UIButton): None
    
    - close_editor(): None
}


class GameStates {
    + {static} should_quit: bool
    + {static} window: pygame.Surface
    + {static} ui_manager: pygame_gui.UIManager
    + {static} clock: pygame.time.Clock

    + init(): None
}


class MapEditor {
    + serializer: Serializer

    - palette: Palette
    - grid: Grid
    - buttons: Buttons

    + __init__(): None    
    + run(): None

    - handle_events(): None
    - draw(): None
}


class Element {
    + id: int
    + image: pygame.Surface
    + rect: pygame.Rect

    + __init__(id: int, coord: pygame.Vector2, image: pygame.Surface): None
}

pygame.sprite.DirtySprite <|- - Element


class StateElement {
    + state: int

    + __init__(id: int, state: int, coord: pygame.Vector2, image: pygame.Surface): None
}

Element <|- - StateElement

class EmptyElement {
    + {static} global_id: int = -1
    + {static} id: int = -1
    + {static} state: int = 0
    + {static} rect: pygame.Rect = pygame.Rect(0, 0, 0, 0)
    + {static} image: pygame.Surface = pygame.Surface((0, 0))
}

StateElement <|- - EmptyElement

class IndexedElement {
    + index: int

    + __init__(id: int, index: int, coord: pygame.Vector2, image: pygame.Surface): None
}

StateElement <|- - IndexedElement

class FlagElement {
    + flag: int

    + __init__(id: int, flag: int, coord: pygame.Vector2, image: pygame.Surface): None
}

StateElement <|- - FlagElement

class PaletteElement {
    + spritesheet: list[pygame.Surface]
    + global_id: int
    + index: int

    + __init__(id: int, index: int, global_id: int, coord: pygame.Vector2, spritesheet: pygame.Surface): None
}

StateElement <|- - PaletteElement


class Palette {
    + hitboxes: list[tuple[int, pygame.Rect]]
    + elements: dict[int, PaletteElement]
    + table: list[assets.Asset]
    + selected: PaletteElement

    + __init__(rect: pygame.Rect, table: list[assets.Asset] = config.DEFAULT_PALETTE): None
    + draw(): None
    + handle_click(mouse_coord: tuple[int, int]): None
    + select(id: int): None
}

WindowComponent <|- - Palette


class Grid {
    + dim: tuple[int, int]
    + map: numpy.ndarray

    - background: pygame.Surface

    + __init__(rect: Rect, palette: Palette, grid: numpy.ndarray = None): None
    + draw(): None
    + compute_ct(palette: Palette): None
    + handle_click(mouse_coord: tuple[int, int], palette: Palette): None
}

WindowComponent <|- - Grid


class Serializer {
    + grid_ref: Grid
    + local_palette_ref: Palette

    + __init__(grid: Grid, local_palette: Palette): None
    + serialize(file: str = "default_0000.map"): None
    + deserialize(palette_rect: Rect, window_rect: Rect, file: str = "default_0000.map"): tuple[Palette, Grid]
}

pygame.Rect - -> WindowComponent

MapEditor - -> Buttons

pygame.time.clock - -> GameStates
pygame.Surface - -> GameStates
pygame_gui.UIManager - -> GameStates

Serializer - -> MapEditor
Palette - -> MapEditor
Grid - -> MapEditor
Buttons - -> MapEditor

pygame.Surface - -> Element
pygame.Rect - -> Element

pygame.Surface - -> PaletteElement

pygame.Rect - -> Palette
PaletteElement - -> Palette
assets.Asset - -> Palette

numpy.ndarray - -> Grid
pygame.Surface - -> Grid

Grid - -> Serializer
Palette - -> Serializer

@enduml

PlantUML version 1.2022.7(Mon Aug 22 19:01:30 CEST 2022)
(GPL source distribution)
Java Runtime: Java(TM) SE Runtime Environment
JVM: Java HotSpot(TM) 64-Bit Server VM
Default Encoding: Cp1252
Language: fr
Country: FR
--></g></svg>