<?xml version="1.0" encoding="UTF-8" standalone="no"?><svg xmlns="http://www.w3.org/2000/svg" xmlns:xlink="http://www.w3.org/1999/xlink" contentStyleType="text/css" height="1684px" preserveAspectRatio="none" style="width:1328px;height:1684px;background:#FFFFFF;" version="1.1" viewBox="0 0 1328 1684" width="1328px" zoomAndPan="magnify"><defs/><g><!--MD5=[f4776db0a28adeb4b2bc526af05a3128]
cluster assets.scripts--><g id="cluster_assets.scripts"><path d="M709.5,900 L808.5,900 A3.75,3.75 0 0 1 811,902.5 L818,923.6094 L1111.5,923.6094 A2.5,2.5 0 0 1 1114,926.1094 L1114,1513 A2.5,2.5 0 0 1 1111.5,1515.5 L709.5,1515.5 A2.5,2.5 0 0 1 707,1513 L707,902.5 A2.5,2.5 0 0 1 709.5,900 " fill="none" style="stroke:#000000;stroke-width:1.5;"/><line style="stroke:#000000;stroke-width:1.5;" x1="707" x2="818" y1="923.6094" y2="923.6094"/><text fill="#000000" font-family="sans-serif" font-size="14" font-weight="bold" lengthAdjust="spacing" textLength="98" x="711" y="916.5332">assets.scripts</text></g><path d="M8.5,701 L59.5,701 A3.75,3.75 0 0 1 62,703.5 L69,724.6094 L73.5,724.6094 A2.5,2.5 0 0 1 76,727.1094 L76,753.7188 A2.5,2.5 0 0 1 73.5,756.2188 L8.5,756.2188 A2.5,2.5 0 0 1 6,753.7188 L6,703.5 A2.5,2.5 0 0 1 8.5,701 " fill="#F1F1F1" style="stroke:#181818;stroke-width:0.5;"/><line style="stroke:#181818;stroke-width:0.5;" x1="6" x2="69" y1="724.6094" y2="724.6094"/><text fill="#000000" font-family="sans-serif" font-size="14" lengthAdjust="spacing" textLength="50" x="10" y="717.5332">pygame</text><!--MD5=[064f7a74fee85463ec1a30143664ee17]
class GameObject--><g id="elem_GameObject"><rect codeLine="5" fill="#F1F1F1" height="136.0469" id="GameObject" rx="2.5" ry="2.5" style="stroke:#181818;stroke-width:0.5;" width="139" x="915.5" y="1363.5"/><ellipse cx="943.1" cy="1379.5" fill="#A9DCDF" rx="11" ry="11" style="stroke:#181818;stroke-width:1.0;"/><path d="M945.2875,1381.2656 L941.1469,1381.2656 L940.725,1382.2969 L941.1469,1382.2969 Q941.7563,1382.2969 942.0219,1382.5313 Q942.2875,1382.7656 942.2875,1383.1563 Q942.2875,1383.5313 942.0219,1383.7656 Q941.7563,1384 941.1469,1384 L938.85,1384 Q938.2406,1384 937.9906,1383.7656 Q937.725,1383.5313 937.725,1383.1406 Q937.725,1382.7656 938.0063,1382.5313 Q938.2719,1382.2813 938.8969,1382.2969 L941.5688,1375.6406 L940.4594,1375.6406 Q939.85,1375.6406 939.5844,1375.4063 Q939.3188,1375.1719 939.3188,1374.7813 Q939.3188,1374.4063 939.5844,1374.1719 Q939.85,1373.9375 940.4594,1373.9375 L944.1313,1373.9375 L947.5219,1382.2969 Q948.1156,1382.2969 948.3031,1382.4375 Q948.6938,1382.7031 948.6938,1383.1563 Q948.6938,1383.5313 948.4281,1383.7656 Q948.1781,1384 947.5688,1384 L945.2719,1384 Q944.6625,1384 944.3969,1383.7656 Q944.1313,1383.5313 944.1313,1383.1406 Q944.1313,1382.7656 944.3969,1382.5313 Q944.6625,1382.2969 945.2719,1382.2969 L945.6938,1382.2969 L945.2875,1381.2656 Z M944.5688,1379.5625 L943.2094,1376.1875 L941.8344,1379.5625 L944.5688,1379.5625 Z " fill="#000000"/><text fill="#000000" font-family="sans-serif" font-size="14" font-style="italic" lengthAdjust="spacing" textLength="79" x="959.9" y="1385.2285">GameObject</text><line style="stroke:#181818;stroke-width:0.5;" x1="916.5" x2="1053.5" y1="1395.5" y2="1395.5"/><ellipse cx="926.5" cy="1409.8047" fill="none" rx="3" ry="3" style="stroke:#038048;stroke-width:1.0;"/><text fill="#000000" font-family="sans-serif" font-size="14" lengthAdjust="spacing" textLength="49" x="935.5" y="1414.0332">position</text><ellipse cx="926.5" cy="1427.4141" fill="none" rx="3" ry="3" style="stroke:#038048;stroke-width:1.0;"/><text fill="#000000" font-family="sans-serif" font-size="14" lengthAdjust="spacing" textLength="24" x="935.5" y="1431.6426">size</text><ellipse cx="926.5" cy="1445.0234" fill="none" rx="3" ry="3" style="stroke:#038048;stroke-width:1.0;"/><text fill="#000000" font-family="sans-serif" font-size="14" lengthAdjust="spacing" textLength="113" x="935.5" y="1449.252">position_in_matrix</text><ellipse cx="926.5" cy="1462.6328" fill="none" rx="3" ry="3" style="stroke:#038048;stroke-width:1.0;"/><text fill="#000000" font-family="sans-serif" font-size="14" lengthAdjust="spacing" textLength="24" x="935.5" y="1466.8613">rect</text><ellipse cx="926.5" cy="1480.2422" fill="none" rx="3" ry="3" style="stroke:#038048;stroke-width:1.0;"/><text fill="#000000" font-family="sans-serif" font-size="14" lengthAdjust="spacing" textLength="43" x="935.5" y="1484.4707">texture</text><line style="stroke:#181818;stroke-width:0.5;" x1="916.5" x2="1053.5" y1="1491.5469" y2="1491.5469"/></g><!--MD5=[582b585511084b11dcb7f31be2799675]
class MapElement--><g id="elem_MapElement"><rect codeLine="12" fill="#F1F1F1" height="48" id="MapElement" rx="2.5" ry="2.5" style="stroke:#181818;stroke-width:0.5;" width="111" x="760.5" y="1167.5"/><ellipse cx="775.5" cy="1183.5" fill="#A9DCDF" rx="11" ry="11" style="stroke:#181818;stroke-width:1.0;"/><path d="M777.6875,1185.2656 L773.5469,1185.2656 L773.125,1186.2969 L773.5469,1186.2969 Q774.1563,1186.2969 774.4219,1186.5313 Q774.6875,1186.7656 774.6875,1187.1563 Q774.6875,1187.5313 774.4219,1187.7656 Q774.1563,1188 773.5469,1188 L771.25,1188 Q770.6406,1188 770.3906,1187.7656 Q770.125,1187.5313 770.125,1187.1406 Q770.125,1186.7656 770.4063,1186.5313 Q770.6719,1186.2813 771.2969,1186.2969 L773.9688,1179.6406 L772.8594,1179.6406 Q772.25,1179.6406 771.9844,1179.4063 Q771.7188,1179.1719 771.7188,1178.7813 Q771.7188,1178.4063 771.9844,1178.1719 Q772.25,1177.9375 772.8594,1177.9375 L776.5313,1177.9375 L779.9219,1186.2969 Q780.5156,1186.2969 780.7031,1186.4375 Q781.0938,1186.7031 781.0938,1187.1563 Q781.0938,1187.5313 780.8281,1187.7656 Q780.5781,1188 779.9688,1188 L777.6719,1188 Q777.0625,1188 776.7969,1187.7656 Q776.5313,1187.5313 776.5313,1187.1406 Q776.5313,1186.7656 776.7969,1186.5313 Q777.0625,1186.2969 777.6719,1186.2969 L778.0938,1186.2969 L777.6875,1185.2656 Z M776.9688,1183.5625 L775.6094,1180.1875 L774.2344,1183.5625 L776.9688,1183.5625 Z " fill="#000000"/><text fill="#000000" font-family="sans-serif" font-size="14" font-style="italic" lengthAdjust="spacing" textLength="79" x="789.5" y="1189.2285">MapElement</text><line style="stroke:#181818;stroke-width:0.5;" x1="761.5" x2="870.5" y1="1199.5" y2="1199.5"/><line style="stroke:#181818;stroke-width:0.5;" x1="761.5" x2="870.5" y1="1207.5" y2="1207.5"/></g><!--MD5=[ff9531700701b9f79f5bebb05f0385de]
class LightSource--><g id="elem_LightSource"><rect codeLine="14" fill="#F1F1F1" height="48" id="LightSource" rx="2.5" ry="2.5" style="stroke:#181818;stroke-width:0.5;" width="108" x="772" y="1407.5"/><ellipse cx="787" cy="1423.5" fill="#ADD1B2" rx="11" ry="11" style="stroke:#181818;stroke-width:1.0;"/><path d="M789.7656,1419.375 Q789.9219,1419.1563 790.1094,1419.0469 Q790.2969,1418.9375 790.5156,1418.9375 Q790.8906,1418.9375 791.125,1419.2031 Q791.3594,1419.4531 791.3594,1420.0625 L791.3594,1421.5156 Q791.3594,1422.125 791.125,1422.3906 Q790.8906,1422.6563 790.5156,1422.6563 Q790.1719,1422.6563 789.9688,1422.4531 Q789.7656,1422.2656 789.6563,1421.75 Q789.6094,1421.3906 789.4219,1421.2031 Q789.0938,1420.8281 788.4844,1420.6094 Q787.875,1420.3906 787.25,1420.3906 Q786.4844,1420.3906 785.8438,1420.7188 Q785.2188,1421.0469 784.7188,1421.7969 Q784.2344,1422.5469 784.2344,1423.5781 L784.2344,1424.6719 Q784.2344,1425.9063 785.125,1426.7344 Q786.0156,1427.5469 787.6094,1427.5469 Q788.5469,1427.5469 789.2031,1427.2969 Q789.5938,1427.1406 790.0156,1426.7031 Q790.2813,1426.4375 790.4219,1426.3594 Q790.5781,1426.2813 790.7813,1426.2813 Q791.1094,1426.2813 791.3594,1426.5469 Q791.625,1426.7969 791.625,1427.1406 Q791.625,1427.4844 791.2813,1427.8906 Q790.7813,1428.4688 789.9844,1428.7969 Q788.9063,1429.25 787.6094,1429.25 Q786.0938,1429.25 784.8906,1428.625 Q783.9063,1428.125 783.2188,1427.0625 Q782.5313,1425.9844 782.5313,1424.7031 L782.5313,1423.5469 Q782.5313,1422.2188 783.1406,1421.0781 Q783.7656,1419.9219 784.8594,1419.3125 Q785.9531,1418.6875 787.1875,1418.6875 Q787.9219,1418.6875 788.5625,1418.8594 Q789.2188,1419.0156 789.7656,1419.375 Z " fill="#000000"/><text fill="#000000" font-family="sans-serif" font-size="14" lengthAdjust="spacing" textLength="76" x="801" y="1429.2285">LightSource</text><line style="stroke:#181818;stroke-width:0.5;" x1="773" x2="879" y1="1439.5" y2="1439.5"/><line style="stroke:#181818;stroke-width:0.5;" x1="773" x2="879" y1="1447.5" y2="1447.5"/></g><!--MD5=[99b8db98afdc2c8404e39242ef4c1e65]
class Platform--><g id="elem_Platform"><rect codeLine="16" fill="#F1F1F1" height="48" id="Platform" rx="2.5" ry="2.5" style="stroke:#181818;stroke-width:0.5;" width="84" x="826" y="936"/><ellipse cx="841" cy="952" fill="#ADD1B2" rx="11" ry="11" style="stroke:#181818;stroke-width:1.0;"/><path d="M843.7656,947.875 Q843.9219,947.6563 844.1094,947.5469 Q844.2969,947.4375 844.5156,947.4375 Q844.8906,947.4375 845.125,947.7031 Q845.3594,947.9531 845.3594,948.5625 L845.3594,950.0156 Q845.3594,950.625 845.125,950.8906 Q844.8906,951.1563 844.5156,951.1563 Q844.1719,951.1563 843.9688,950.9531 Q843.7656,950.7656 843.6563,950.25 Q843.6094,949.8906 843.4219,949.7031 Q843.0938,949.3281 842.4844,949.1094 Q841.875,948.8906 841.25,948.8906 Q840.4844,948.8906 839.8438,949.2188 Q839.2188,949.5469 838.7188,950.2969 Q838.2344,951.0469 838.2344,952.0781 L838.2344,953.1719 Q838.2344,954.4063 839.125,955.2344 Q840.0156,956.0469 841.6094,956.0469 Q842.5469,956.0469 843.2031,955.7969 Q843.5938,955.6406 844.0156,955.2031 Q844.2813,954.9375 844.4219,954.8594 Q844.5781,954.7813 844.7813,954.7813 Q845.1094,954.7813 845.3594,955.0469 Q845.625,955.2969 845.625,955.6406 Q845.625,955.9844 845.2813,956.3906 Q844.7813,956.9688 843.9844,957.2969 Q842.9063,957.75 841.6094,957.75 Q840.0938,957.75 838.8906,957.125 Q837.9063,956.625 837.2188,955.5625 Q836.5313,954.4844 836.5313,953.2031 L836.5313,952.0469 Q836.5313,950.7188 837.1406,949.5781 Q837.7656,948.4219 838.8594,947.8125 Q839.9531,947.1875 841.1875,947.1875 Q841.9219,947.1875 842.5625,947.3594 Q843.2188,947.5156 843.7656,947.875 Z " fill="#000000"/><text fill="#000000" font-family="sans-serif" font-size="14" lengthAdjust="spacing" textLength="52" x="855" y="957.7285">Platform</text><line style="stroke:#181818;stroke-width:0.5;" x1="827" x2="909" y1="968" y2="968"/><line style="stroke:#181818;stroke-width:0.5;" x1="827" x2="909" y1="976" y2="976"/></g><!--MD5=[28ab16b22e9a48821a9310f6dc39c149]
class Lamp--><g id="elem_Lamp"><rect codeLine="17" fill="#F1F1F1" height="48" id="Lamp" rx="2.5" ry="2.5" style="stroke:#181818;stroke-width:0.5;" width="67" x="723.5" y="936"/><ellipse cx="738.5" cy="952" fill="#ADD1B2" rx="11" ry="11" style="stroke:#181818;stroke-width:1.0;"/><path d="M741.2656,947.875 Q741.4219,947.6563 741.6094,947.5469 Q741.7969,947.4375 742.0156,947.4375 Q742.3906,947.4375 742.625,947.7031 Q742.8594,947.9531 742.8594,948.5625 L742.8594,950.0156 Q742.8594,950.625 742.625,950.8906 Q742.3906,951.1563 742.0156,951.1563 Q741.6719,951.1563 741.4688,950.9531 Q741.2656,950.7656 741.1563,950.25 Q741.1094,949.8906 740.9219,949.7031 Q740.5938,949.3281 739.9844,949.1094 Q739.375,948.8906 738.75,948.8906 Q737.9844,948.8906 737.3438,949.2188 Q736.7188,949.5469 736.2188,950.2969 Q735.7344,951.0469 735.7344,952.0781 L735.7344,953.1719 Q735.7344,954.4063 736.625,955.2344 Q737.5156,956.0469 739.1094,956.0469 Q740.0469,956.0469 740.7031,955.7969 Q741.0938,955.6406 741.5156,955.2031 Q741.7813,954.9375 741.9219,954.8594 Q742.0781,954.7813 742.2813,954.7813 Q742.6094,954.7813 742.8594,955.0469 Q743.125,955.2969 743.125,955.6406 Q743.125,955.9844 742.7813,956.3906 Q742.2813,956.9688 741.4844,957.2969 Q740.4063,957.75 739.1094,957.75 Q737.5938,957.75 736.3906,957.125 Q735.4063,956.625 734.7188,955.5625 Q734.0313,954.4844 734.0313,953.2031 L734.0313,952.0469 Q734.0313,950.7188 734.6406,949.5781 Q735.2656,948.4219 736.3594,947.8125 Q737.4531,947.1875 738.6875,947.1875 Q739.4219,947.1875 740.0625,947.3594 Q740.7188,947.5156 741.2656,947.875 Z " fill="#000000"/><text fill="#000000" font-family="sans-serif" font-size="14" lengthAdjust="spacing" textLength="35" x="752.5" y="957.7285">Lamp</text><line style="stroke:#181818;stroke-width:0.5;" x1="724.5" x2="789.5" y1="968" y2="968"/><line style="stroke:#181818;stroke-width:0.5;" x1="724.5" x2="789.5" y1="976" y2="976"/></g><!--MD5=[2cb47ba637a0d19583e6199456f6ad0b]
class Player--><g id="elem_Player"><rect codeLine="20" fill="#F1F1F1" height="65.6094" id="Player" rx="2.5" ry="2.5" style="stroke:#181818;stroke-width:0.5;" width="72" x="907" y="1158.5"/><ellipse cx="922" cy="1174.5" fill="#ADD1B2" rx="11" ry="11" style="stroke:#181818;stroke-width:1.0;"/><path d="M924.7656,1170.375 Q924.9219,1170.1563 925.1094,1170.0469 Q925.2969,1169.9375 925.5156,1169.9375 Q925.8906,1169.9375 926.125,1170.2031 Q926.3594,1170.4531 926.3594,1171.0625 L926.3594,1172.5156 Q926.3594,1173.125 926.125,1173.3906 Q925.8906,1173.6563 925.5156,1173.6563 Q925.1719,1173.6563 924.9688,1173.4531 Q924.7656,1173.2656 924.6563,1172.75 Q924.6094,1172.3906 924.4219,1172.2031 Q924.0938,1171.8281 923.4844,1171.6094 Q922.875,1171.3906 922.25,1171.3906 Q921.4844,1171.3906 920.8438,1171.7188 Q920.2188,1172.0469 919.7188,1172.7969 Q919.2344,1173.5469 919.2344,1174.5781 L919.2344,1175.6719 Q919.2344,1176.9063 920.125,1177.7344 Q921.0156,1178.5469 922.6094,1178.5469 Q923.5469,1178.5469 924.2031,1178.2969 Q924.5938,1178.1406 925.0156,1177.7031 Q925.2813,1177.4375 925.4219,1177.3594 Q925.5781,1177.2813 925.7813,1177.2813 Q926.1094,1177.2813 926.3594,1177.5469 Q926.625,1177.7969 926.625,1178.1406 Q926.625,1178.4844 926.2813,1178.8906 Q925.7813,1179.4688 924.9844,1179.7969 Q923.9063,1180.25 922.6094,1180.25 Q921.0938,1180.25 919.8906,1179.625 Q918.9063,1179.125 918.2188,1178.0625 Q917.5313,1176.9844 917.5313,1175.7031 L917.5313,1174.5469 Q917.5313,1173.2188 918.1406,1172.0781 Q918.7656,1170.9219 919.8594,1170.3125 Q920.9531,1169.6875 922.1875,1169.6875 Q922.9219,1169.6875 923.5625,1169.8594 Q924.2188,1170.0156 924.7656,1170.375 Z " fill="#000000"/><text fill="#000000" font-family="sans-serif" font-size="14" lengthAdjust="spacing" textLength="40" x="936" y="1180.2285">Player</text><line style="stroke:#181818;stroke-width:0.5;" x1="908" x2="978" y1="1190.5" y2="1190.5"/><ellipse cx="918" cy="1204.8047" fill="none" rx="3" ry="3" style="stroke:#038048;stroke-width:1.0;"/><text fill="#000000" font-family="sans-serif" font-size="14" lengthAdjust="spacing" textLength="40" x="927" y="1209.0332">Health</text><line style="stroke:#181818;stroke-width:0.5;" x1="908" x2="978" y1="1216.1094" y2="1216.1094"/></g><!--MD5=[5490510916e4f475821a710c3376735a]
class Ennemy--><g id="elem_Ennemy"><rect codeLine="23" fill="#F1F1F1" height="48" id="Ennemy" rx="2.5" ry="2.5" style="stroke:#181818;stroke-width:0.5;" width="83" x="1014.5" y="1167.5"/><ellipse cx="1029.5" cy="1183.5" fill="#ADD1B2" rx="11" ry="11" style="stroke:#181818;stroke-width:1.0;"/><path d="M1032.2656,1179.375 Q1032.4219,1179.1563 1032.6094,1179.0469 Q1032.7969,1178.9375 1033.0156,1178.9375 Q1033.3906,1178.9375 1033.625,1179.2031 Q1033.8594,1179.4531 1033.8594,1180.0625 L1033.8594,1181.5156 Q1033.8594,1182.125 1033.625,1182.3906 Q1033.3906,1182.6563 1033.0156,1182.6563 Q1032.6719,1182.6563 1032.4688,1182.4531 Q1032.2656,1182.2656 1032.1563,1181.75 Q1032.1094,1181.3906 1031.9219,1181.2031 Q1031.5938,1180.8281 1030.9844,1180.6094 Q1030.375,1180.3906 1029.75,1180.3906 Q1028.9844,1180.3906 1028.3438,1180.7188 Q1027.7188,1181.0469 1027.2188,1181.7969 Q1026.7344,1182.5469 1026.7344,1183.5781 L1026.7344,1184.6719 Q1026.7344,1185.9063 1027.625,1186.7344 Q1028.5156,1187.5469 1030.1094,1187.5469 Q1031.0469,1187.5469 1031.7031,1187.2969 Q1032.0938,1187.1406 1032.5156,1186.7031 Q1032.7813,1186.4375 1032.9219,1186.3594 Q1033.0781,1186.2813 1033.2813,1186.2813 Q1033.6094,1186.2813 1033.8594,1186.5469 Q1034.125,1186.7969 1034.125,1187.1406 Q1034.125,1187.4844 1033.7813,1187.8906 Q1033.2813,1188.4688 1032.4844,1188.7969 Q1031.4063,1189.25 1030.1094,1189.25 Q1028.5938,1189.25 1027.3906,1188.625 Q1026.4063,1188.125 1025.7188,1187.0625 Q1025.0313,1185.9844 1025.0313,1184.7031 L1025.0313,1183.5469 Q1025.0313,1182.2188 1025.6406,1181.0781 Q1026.2656,1179.9219 1027.3594,1179.3125 Q1028.4531,1178.6875 1029.6875,1178.6875 Q1030.4219,1178.6875 1031.0625,1178.8594 Q1031.7188,1179.0156 1032.2656,1179.375 Z " fill="#000000"/><text fill="#000000" font-family="sans-serif" font-size="14" lengthAdjust="spacing" textLength="51" x="1043.5" y="1189.2285">Ennemy</text><line style="stroke:#181818;stroke-width:0.5;" x1="1015.5" x2="1096.5" y1="1199.5" y2="1199.5"/><line style="stroke:#181818;stroke-width:0.5;" x1="1015.5" x2="1096.5" y1="1207.5" y2="1207.5"/></g><!--MD5=[452be1aaf8b94e2bc4204d466ef769a4]
class Camera--><g id="elem_Camera"><rect codeLine="27" fill="#F1F1F1" height="118.4375" id="Camera" rx="2.5" ry="2.5" style="stroke:#181818;stroke-width:0.5;" width="189" x="1132.5" y="1132.5"/><ellipse cx="1197.75" cy="1148.5" fill="#ADD1B2" rx="11" ry="11" style="stroke:#181818;stroke-width:1.0;"/><path d="M1200.5156,1144.375 Q1200.6719,1144.1563 1200.8594,1144.0469 Q1201.0469,1143.9375 1201.2656,1143.9375 Q1201.6406,1143.9375 1201.875,1144.2031 Q1202.1094,1144.4531 1202.1094,1145.0625 L1202.1094,1146.5156 Q1202.1094,1147.125 1201.875,1147.3906 Q1201.6406,1147.6563 1201.2656,1147.6563 Q1200.9219,1147.6563 1200.7188,1147.4531 Q1200.5156,1147.2656 1200.4063,1146.75 Q1200.3594,1146.3906 1200.1719,1146.2031 Q1199.8438,1145.8281 1199.2344,1145.6094 Q1198.625,1145.3906 1198,1145.3906 Q1197.2344,1145.3906 1196.5938,1145.7188 Q1195.9688,1146.0469 1195.4688,1146.7969 Q1194.9844,1147.5469 1194.9844,1148.5781 L1194.9844,1149.6719 Q1194.9844,1150.9063 1195.875,1151.7344 Q1196.7656,1152.5469 1198.3594,1152.5469 Q1199.2969,1152.5469 1199.9531,1152.2969 Q1200.3438,1152.1406 1200.7656,1151.7031 Q1201.0313,1151.4375 1201.1719,1151.3594 Q1201.3281,1151.2813 1201.5313,1151.2813 Q1201.8594,1151.2813 1202.1094,1151.5469 Q1202.375,1151.7969 1202.375,1152.1406 Q1202.375,1152.4844 1202.0313,1152.8906 Q1201.5313,1153.4688 1200.7344,1153.7969 Q1199.6563,1154.25 1198.3594,1154.25 Q1196.8438,1154.25 1195.6406,1153.625 Q1194.6563,1153.125 1193.9688,1152.0625 Q1193.2813,1150.9844 1193.2813,1149.7031 L1193.2813,1148.5469 Q1193.2813,1147.2188 1193.8906,1146.0781 Q1194.5156,1144.9219 1195.6094,1144.3125 Q1196.7031,1143.6875 1197.9375,1143.6875 Q1198.6719,1143.6875 1199.3125,1143.8594 Q1199.9688,1144.0156 1200.5156,1144.375 Z " fill="#000000"/><text fill="#000000" font-family="sans-serif" font-size="14" lengthAdjust="spacing" textLength="50" x="1218.25" y="1154.2285">Camera</text><line style="stroke:#181818;stroke-width:0.5;" x1="1133.5" x2="1320.5" y1="1164.5" y2="1164.5"/><ellipse cx="1143.5" cy="1178.8047" fill="none" rx="3" ry="3" style="stroke:#038048;stroke-width:1.0;"/><text fill="#000000" font-family="sans-serif" font-size="14" lengthAdjust="spacing" textLength="21" x="1152.5" y="1183.0332">link</text><ellipse cx="1143.5" cy="1196.4141" fill="none" rx="3" ry="3" style="stroke:#038048;stroke-width:1.0;"/><text fill="#000000" font-family="sans-serif" font-size="14" lengthAdjust="spacing" textLength="24" x="1152.5" y="1200.6426">rect</text><line style="stroke:#181818;stroke-width:0.5;" x1="1133.5" x2="1320.5" y1="1207.7188" y2="1207.7188"/><ellipse cx="1143.5" cy="1222.0234" fill="#84BE84" rx="3" ry="3" style="stroke:#038048;stroke-width:1.0;"/><text fill="#000000" font-family="sans-serif" font-size="14" lengthAdjust="spacing" textLength="54" x="1152.5" y="1226.252">update()</text><ellipse cx="1143.5" cy="1239.6328" fill="#84BE84" rx="3" ry="3" style="stroke:#038048;stroke-width:1.0;"/><text fill="#000000" font-family="sans-serif" font-size="14" lengthAdjust="spacing" textLength="163" x="1152.5" y="1243.8613">transform_coord(position)</text></g><!--MD5=[b6dcce5e5ef3c84b0b048d11301373dd]
class Game--><g id="elem_Game"><rect codeLine="34" fill="#F1F1F1" height="136.0469" id="Game" rx="2.5" ry="2.5" style="stroke:#181818;stroke-width:0.5;" width="152" x="480" y="192"/><ellipse cx="532.75" cy="208" fill="#ADD1B2" rx="11" ry="11" style="stroke:#181818;stroke-width:1.0;"/><path d="M535.5156,203.875 Q535.6719,203.6563 535.8594,203.5469 Q536.0469,203.4375 536.2656,203.4375 Q536.6406,203.4375 536.875,203.7031 Q537.1094,203.9531 537.1094,204.5625 L537.1094,206.0156 Q537.1094,206.625 536.875,206.8906 Q536.6406,207.1563 536.2656,207.1563 Q535.9219,207.1563 535.7188,206.9531 Q535.5156,206.7656 535.4063,206.25 Q535.3594,205.8906 535.1719,205.7031 Q534.8438,205.3281 534.2344,205.1094 Q533.625,204.8906 533,204.8906 Q532.2344,204.8906 531.5938,205.2188 Q530.9688,205.5469 530.4688,206.2969 Q529.9844,207.0469 529.9844,208.0781 L529.9844,209.1719 Q529.9844,210.4063 530.875,211.2344 Q531.7656,212.0469 533.3594,212.0469 Q534.2969,212.0469 534.9531,211.7969 Q535.3438,211.6406 535.7656,211.2031 Q536.0313,210.9375 536.1719,210.8594 Q536.3281,210.7813 536.5313,210.7813 Q536.8594,210.7813 537.1094,211.0469 Q537.375,211.2969 537.375,211.6406 Q537.375,211.9844 537.0313,212.3906 Q536.5313,212.9688 535.7344,213.2969 Q534.6563,213.75 533.3594,213.75 Q531.8438,213.75 530.6406,213.125 Q529.6563,212.625 528.9688,211.5625 Q528.2813,210.4844 528.2813,209.2031 L528.2813,208.0469 Q528.2813,206.7188 528.8906,205.5781 Q529.5156,204.4219 530.6094,203.8125 Q531.7031,203.1875 532.9375,203.1875 Q533.6719,203.1875 534.3125,203.3594 Q534.9688,203.5156 535.5156,203.875 Z " fill="#000000"/><text fill="#000000" font-family="sans-serif" font-size="14" lengthAdjust="spacing" textLength="38" x="553.25" y="213.7285">Game</text><line style="stroke:#181818;stroke-width:0.5;" x1="481" x2="631" y1="224" y2="224"/><ellipse cx="491" cy="238.3047" fill="none" rx="3" ry="3" style="stroke:#038048;stroke-width:1.0;"/><text fill="#000000" font-family="sans-serif" font-size="14" lengthAdjust="spacing" textLength="33" x="500" y="242.5332">world</text><line style="stroke:#181818;stroke-width:0.5;" x1="481" x2="631" y1="249.6094" y2="249.6094"/><ellipse cx="491" cy="263.9141" fill="#84BE84" rx="3" ry="3" style="stroke:#038048;stroke-width:1.0;"/><text fill="#000000" font-family="sans-serif" font-size="14" lengthAdjust="spacing" textLength="37" x="500" y="268.1426">loop()</text><rect fill="#F24D5C" height="6" style="stroke:#C82930;stroke-width:1.0;" width="6" x="488" y="278.5234"/><text fill="#000000" font-family="sans-serif" font-size="14" lengthAdjust="spacing" textLength="126" x="500" y="285.752">__process_events()</text><rect fill="#F24D5C" height="6" style="stroke:#C82930;stroke-width:1.0;" width="6" x="488" y="296.1328"/><text fill="#000000" font-family="sans-serif" font-size="14" lengthAdjust="spacing" textLength="70" x="500" y="303.3613">__update()</text><rect fill="#F24D5C" height="6" style="stroke:#C82930;stroke-width:1.0;" width="6" x="488" y="313.7422"/><text fill="#000000" font-family="sans-serif" font-size="14" lengthAdjust="spacing" textLength="56" x="500" y="320.9707">__draw()</text></g><!--MD5=[36b6a3ceda9c8330cf0107505e0e5600]
class Gui--><g id="elem_Gui"><rect codeLine="42" fill="#F1F1F1" height="100.8281" id="Gui" rx="2.5" ry="2.5" style="stroke:#181818;stroke-width:0.5;" width="233" x="111.5" y="678"/><ellipse cx="212.75" cy="694" fill="#ADD1B2" rx="11" ry="11" style="stroke:#181818;stroke-width:1.0;"/><path d="M215.5156,689.875 Q215.6719,689.6563 215.8594,689.5469 Q216.0469,689.4375 216.2656,689.4375 Q216.6406,689.4375 216.875,689.7031 Q217.1094,689.9531 217.1094,690.5625 L217.1094,692.0156 Q217.1094,692.625 216.875,692.8906 Q216.6406,693.1563 216.2656,693.1563 Q215.9219,693.1563 215.7188,692.9531 Q215.5156,692.7656 215.4063,692.25 Q215.3594,691.8906 215.1719,691.7031 Q214.8438,691.3281 214.2344,691.1094 Q213.625,690.8906 213,690.8906 Q212.2344,690.8906 211.5938,691.2188 Q210.9688,691.5469 210.4688,692.2969 Q209.9844,693.0469 209.9844,694.0781 L209.9844,695.1719 Q209.9844,696.4063 210.875,697.2344 Q211.7656,698.0469 213.3594,698.0469 Q214.2969,698.0469 214.9531,697.7969 Q215.3438,697.6406 215.7656,697.2031 Q216.0313,696.9375 216.1719,696.8594 Q216.3281,696.7813 216.5313,696.7813 Q216.8594,696.7813 217.1094,697.0469 Q217.375,697.2969 217.375,697.6406 Q217.375,697.9844 217.0313,698.3906 Q216.5313,698.9688 215.7344,699.2969 Q214.6563,699.75 213.3594,699.75 Q211.8438,699.75 210.6406,699.125 Q209.6563,698.625 208.9688,697.5625 Q208.2813,696.4844 208.2813,695.2031 L208.2813,694.0469 Q208.2813,692.7188 208.8906,691.5781 Q209.5156,690.4219 210.6094,689.8125 Q211.7031,689.1875 212.9375,689.1875 Q213.6719,689.1875 214.3125,689.3594 Q214.9688,689.5156 215.5156,689.875 Z " fill="#000000"/><text fill="#000000" font-family="sans-serif" font-size="14" lengthAdjust="spacing" textLength="22" x="233.25" y="699.7285">Gui</text><line style="stroke:#181818;stroke-width:0.5;" x1="112.5" x2="343.5" y1="710" y2="710"/><ellipse cx="122.5" cy="724.3047" fill="none" rx="3" ry="3" style="stroke:#038048;stroke-width:1.0;"/><text fill="#000000" font-family="sans-serif" font-size="14" lengthAdjust="spacing" text-decoration="underline" textLength="77" x="131.5" y="728.5332">components</text><line style="stroke:#181818;stroke-width:0.5;" x1="112.5" x2="343.5" y1="735.6094" y2="735.6094"/><ellipse cx="122.5" cy="749.9141" fill="#84BE84" rx="3" ry="3" style="stroke:#038048;stroke-width:1.0;"/><text fill="#000000" font-family="sans-serif" font-size="14" lengthAdjust="spacing" text-decoration="underline" textLength="207" x="131.5" y="754.1426">add_component(GuiComponent)</text><ellipse cx="122.5" cy="767.5234" fill="#84BE84" rx="3" ry="3" style="stroke:#038048;stroke-width:1.0;"/><text fill="#000000" font-family="sans-serif" font-size="14" lengthAdjust="spacing" text-decoration="underline" textLength="89" x="131.5" y="771.752">draw(Surface)</text></g><!--MD5=[a6c2e5c7736517528fc2aec3abeeb070]
class HealthBar--><g id="elem_HealthBar"><rect codeLine="48" fill="#F1F1F1" height="83.2188" id="HealthBar" rx="2.5" ry="2.5" style="stroke:#181818;stroke-width:0.5;" width="94" x="156" y="1390"/><ellipse cx="171" cy="1406" fill="#ADD1B2" rx="11" ry="11" style="stroke:#181818;stroke-width:1.0;"/><path d="M173.7656,1401.875 Q173.9219,1401.6563 174.1094,1401.5469 Q174.2969,1401.4375 174.5156,1401.4375 Q174.8906,1401.4375 175.125,1401.7031 Q175.3594,1401.9531 175.3594,1402.5625 L175.3594,1404.0156 Q175.3594,1404.625 175.125,1404.8906 Q174.8906,1405.1563 174.5156,1405.1563 Q174.1719,1405.1563 173.9688,1404.9531 Q173.7656,1404.7656 173.6563,1404.25 Q173.6094,1403.8906 173.4219,1403.7031 Q173.0938,1403.3281 172.4844,1403.1094 Q171.875,1402.8906 171.25,1402.8906 Q170.4844,1402.8906 169.8438,1403.2188 Q169.2188,1403.5469 168.7188,1404.2969 Q168.2344,1405.0469 168.2344,1406.0781 L168.2344,1407.1719 Q168.2344,1408.4063 169.125,1409.2344 Q170.0156,1410.0469 171.6094,1410.0469 Q172.5469,1410.0469 173.2031,1409.7969 Q173.5938,1409.6406 174.0156,1409.2031 Q174.2813,1408.9375 174.4219,1408.8594 Q174.5781,1408.7813 174.7813,1408.7813 Q175.1094,1408.7813 175.3594,1409.0469 Q175.625,1409.2969 175.625,1409.6406 Q175.625,1409.9844 175.2813,1410.3906 Q174.7813,1410.9688 173.9844,1411.2969 Q172.9063,1411.75 171.6094,1411.75 Q170.0938,1411.75 168.8906,1411.125 Q167.9063,1410.625 167.2188,1409.5625 Q166.5313,1408.4844 166.5313,1407.2031 L166.5313,1406.0469 Q166.5313,1404.7188 167.1406,1403.5781 Q167.7656,1402.4219 168.8594,1401.8125 Q169.9531,1401.1875 171.1875,1401.1875 Q171.9219,1401.1875 172.5625,1401.3594 Q173.2188,1401.5156 173.7656,1401.875 Z " fill="#000000"/><text fill="#000000" font-family="sans-serif" font-size="14" lengthAdjust="spacing" textLength="62" x="185" y="1411.7285">HealthBar</text><line style="stroke:#181818;stroke-width:0.5;" x1="157" x2="249" y1="1422" y2="1422"/><ellipse cx="167" cy="1436.3047" fill="none" rx="3" ry="3" style="stroke:#038048;stroke-width:1.0;"/><text fill="#000000" font-family="sans-serif" font-size="14" lengthAdjust="spacing" textLength="43" x="176" y="1440.5332">texture</text><ellipse cx="167" cy="1453.9141" fill="none" rx="3" ry="3" style="stroke:#038048;stroke-width:1.0;"/><text fill="#000000" font-family="sans-serif" font-size="14" lengthAdjust="spacing" textLength="21" x="176" y="1458.1426">link</text><line style="stroke:#181818;stroke-width:0.5;" x1="157" x2="249" y1="1465.2188" y2="1465.2188"/></g><!--MD5=[ab51f2d17869a25721f0193f8a772fe9]
class GuiComponent--><g id="elem_GuiComponent"><rect codeLine="53" fill="#F1F1F1" height="100.8281" id="GuiComponent" rx="2.5" ry="2.5" style="stroke:#181818;stroke-width:0.5;" width="127" x="139.5" y="1141"/><ellipse cx="154.5" cy="1157" fill="#A9DCDF" rx="11" ry="11" style="stroke:#181818;stroke-width:1.0;"/><path d="M156.6875,1158.7656 L152.5469,1158.7656 L152.125,1159.7969 L152.5469,1159.7969 Q153.1563,1159.7969 153.4219,1160.0313 Q153.6875,1160.2656 153.6875,1160.6563 Q153.6875,1161.0313 153.4219,1161.2656 Q153.1563,1161.5 152.5469,1161.5 L150.25,1161.5 Q149.6406,1161.5 149.3906,1161.2656 Q149.125,1161.0313 149.125,1160.6406 Q149.125,1160.2656 149.4063,1160.0313 Q149.6719,1159.7813 150.2969,1159.7969 L152.9688,1153.1406 L151.8594,1153.1406 Q151.25,1153.1406 150.9844,1152.9063 Q150.7188,1152.6719 150.7188,1152.2813 Q150.7188,1151.9063 150.9844,1151.6719 Q151.25,1151.4375 151.8594,1151.4375 L155.5313,1151.4375 L158.9219,1159.7969 Q159.5156,1159.7969 159.7031,1159.9375 Q160.0938,1160.2031 160.0938,1160.6563 Q160.0938,1161.0313 159.8281,1161.2656 Q159.5781,1161.5 158.9688,1161.5 L156.6719,1161.5 Q156.0625,1161.5 155.7969,1161.2656 Q155.5313,1161.0313 155.5313,1160.6406 Q155.5313,1160.2656 155.7969,1160.0313 Q156.0625,1159.7969 156.6719,1159.7969 L157.0938,1159.7969 L156.6875,1158.7656 Z M155.9688,1157.0625 L154.6094,1153.6875 L153.2344,1157.0625 L155.9688,1157.0625 Z " fill="#000000"/><text fill="#000000" font-family="sans-serif" font-size="14" font-style="italic" lengthAdjust="spacing" textLength="95" x="168.5" y="1162.7285">GuiComponent</text><line style="stroke:#181818;stroke-width:0.5;" x1="140.5" x2="265.5" y1="1173" y2="1173"/><ellipse cx="150.5" cy="1187.3047" fill="none" rx="3" ry="3" style="stroke:#038048;stroke-width:1.0;"/><text fill="#000000" font-family="sans-serif" font-size="14" lengthAdjust="spacing" textLength="49" x="159.5" y="1191.5332">position</text><ellipse cx="150.5" cy="1204.9141" fill="none" rx="3" ry="3" style="stroke:#038048;stroke-width:1.0;"/><text fill="#000000" font-family="sans-serif" font-size="14" lengthAdjust="spacing" textLength="24" x="159.5" y="1209.1426">size</text><line style="stroke:#181818;stroke-width:0.5;" x1="140.5" x2="265.5" y1="1216.2188" y2="1216.2188"/><ellipse cx="150.5" cy="1230.5234" fill="#84BE84" rx="3" ry="3" style="stroke:#038048;stroke-width:1.0;"/><text fill="#000000" font-family="sans-serif" font-size="14" lengthAdjust="spacing" textLength="57" x="159.5" y="1234.752">surface()</text></g><!--MD5=[fea59d0415f9566305b768eea8144a4a]
class ButtonScript--><g id="elem_ButtonScript"><rect codeLine="59" fill="#F1F1F1" height="100.8281" id="ButtonScript" rx="2.5" ry="2.5" style="stroke:#181818;stroke-width:0.5;" width="121" x="463.5" y="1577"/><ellipse cx="483.9" cy="1593" fill="#ADD1B2" rx="11" ry="11" style="stroke:#181818;stroke-width:1.0;"/><path d="M486.6656,1588.875 Q486.8219,1588.6563 487.0094,1588.5469 Q487.1969,1588.4375 487.4156,1588.4375 Q487.7906,1588.4375 488.025,1588.7031 Q488.2594,1588.9531 488.2594,1589.5625 L488.2594,1591.0156 Q488.2594,1591.625 488.025,1591.8906 Q487.7906,1592.1563 487.4156,1592.1563 Q487.0719,1592.1563 486.8688,1591.9531 Q486.6656,1591.7656 486.5563,1591.25 Q486.5094,1590.8906 486.3219,1590.7031 Q485.9938,1590.3281 485.3844,1590.1094 Q484.775,1589.8906 484.15,1589.8906 Q483.3844,1589.8906 482.7438,1590.2188 Q482.1188,1590.5469 481.6188,1591.2969 Q481.1344,1592.0469 481.1344,1593.0781 L481.1344,1594.1719 Q481.1344,1595.4063 482.025,1596.2344 Q482.9156,1597.0469 484.5094,1597.0469 Q485.4469,1597.0469 486.1031,1596.7969 Q486.4938,1596.6406 486.9156,1596.2031 Q487.1813,1595.9375 487.3219,1595.8594 Q487.4781,1595.7813 487.6813,1595.7813 Q488.0094,1595.7813 488.2594,1596.0469 Q488.525,1596.2969 488.525,1596.6406 Q488.525,1596.9844 488.1813,1597.3906 Q487.6813,1597.9688 486.8844,1598.2969 Q485.8063,1598.75 484.5094,1598.75 Q482.9938,1598.75 481.7906,1598.125 Q480.8063,1597.625 480.1188,1596.5625 Q479.4313,1595.4844 479.4313,1594.2031 L479.4313,1593.0469 Q479.4313,1591.7188 480.0406,1590.5781 Q480.6656,1589.4219 481.7594,1588.8125 Q482.8531,1588.1875 484.0875,1588.1875 Q484.8219,1588.1875 485.4625,1588.3594 Q486.1188,1588.5156 486.6656,1588.875 Z " fill="#000000"/><text fill="#000000" font-family="sans-serif" font-size="14" lengthAdjust="spacing" textLength="77" x="499.1" y="1598.7285">ButtonScript</text><line style="stroke:#181818;stroke-width:0.5;" x1="464.5" x2="583.5" y1="1609" y2="1609"/><ellipse cx="474.5" cy="1623.3047" fill="none" rx="3" ry="3" style="stroke:#038048;stroke-width:1.0;"/><text fill="#000000" font-family="sans-serif" font-size="14" lengthAdjust="spacing" textLength="15" x="483.5" y="1627.5332">fct</text><ellipse cx="474.5" cy="1640.9141" fill="none" rx="3" ry="3" style="stroke:#038048;stroke-width:1.0;"/><text fill="#000000" font-family="sans-serif" font-size="14" lengthAdjust="spacing" textLength="28" x="483.5" y="1645.1426">args</text><line style="stroke:#181818;stroke-width:0.5;" x1="464.5" x2="583.5" y1="1652.2188" y2="1652.2188"/><ellipse cx="474.5" cy="1666.5234" fill="#84BE84" rx="3" ry="3" style="stroke:#038048;stroke-width:1.0;"/><text fill="#000000" font-family="sans-serif" font-size="14" lengthAdjust="spacing" textLength="95" x="483.5" y="1670.752">set_quit(game)</text></g><!--MD5=[90ba54f54370e77ef24813dec6818fa3]
class Button--><g id="elem_Button"><rect codeLine="65" fill="#F1F1F1" height="188.875" id="Button" rx="2.5" ry="2.5" style="stroke:#181818;stroke-width:0.5;" width="95" x="407.5" y="1097"/><ellipse cx="432.4" cy="1113" fill="#ADD1B2" rx="11" ry="11" style="stroke:#181818;stroke-width:1.0;"/><path d="M435.1656,1108.875 Q435.3219,1108.6563 435.5094,1108.5469 Q435.6969,1108.4375 435.9156,1108.4375 Q436.2906,1108.4375 436.525,1108.7031 Q436.7594,1108.9531 436.7594,1109.5625 L436.7594,1111.0156 Q436.7594,1111.625 436.525,1111.8906 Q436.2906,1112.1563 435.9156,1112.1563 Q435.5719,1112.1563 435.3688,1111.9531 Q435.1656,1111.7656 435.0563,1111.25 Q435.0094,1110.8906 434.8219,1110.7031 Q434.4938,1110.3281 433.8844,1110.1094 Q433.275,1109.8906 432.65,1109.8906 Q431.8844,1109.8906 431.2438,1110.2188 Q430.6188,1110.5469 430.1188,1111.2969 Q429.6344,1112.0469 429.6344,1113.0781 L429.6344,1114.1719 Q429.6344,1115.4063 430.525,1116.2344 Q431.4156,1117.0469 433.0094,1117.0469 Q433.9469,1117.0469 434.6031,1116.7969 Q434.9938,1116.6406 435.4156,1116.2031 Q435.6813,1115.9375 435.8219,1115.8594 Q435.9781,1115.7813 436.1813,1115.7813 Q436.5094,1115.7813 436.7594,1116.0469 Q437.025,1116.2969 437.025,1116.6406 Q437.025,1116.9844 436.6813,1117.3906 Q436.1813,1117.9688 435.3844,1118.2969 Q434.3063,1118.75 433.0094,1118.75 Q431.4938,1118.75 430.2906,1118.125 Q429.3063,1117.625 428.6188,1116.5625 Q427.9313,1115.4844 427.9313,1114.2031 L427.9313,1113.0469 Q427.9313,1111.7188 428.5406,1110.5781 Q429.1656,1109.4219 430.2594,1108.8125 Q431.3531,1108.1875 432.5875,1108.1875 Q433.3219,1108.1875 433.9625,1108.3594 Q434.6188,1108.5156 435.1656,1108.875 Z " fill="#000000"/><text fill="#000000" font-family="sans-serif" font-size="14" lengthAdjust="spacing" textLength="41" x="448.6" y="1118.7285">Button</text><line style="stroke:#181818;stroke-width:0.5;" x1="408.5" x2="501.5" y1="1129" y2="1129"/><ellipse cx="418.5" cy="1143.3047" fill="none" rx="3" ry="3" style="stroke:#038048;stroke-width:1.0;"/><text fill="#000000" font-family="sans-serif" font-size="14" lengthAdjust="spacing" textLength="11" x="427.5" y="1147.5332">id</text><ellipse cx="418.5" cy="1160.9141" fill="none" rx="3" ry="3" style="stroke:#038048;stroke-width:1.0;"/><text fill="#000000" font-family="sans-serif" font-size="14" lengthAdjust="spacing" textLength="30" x="427.5" y="1165.1426">label</text><ellipse cx="418.5" cy="1178.5234" fill="none" rx="3" ry="3" style="stroke:#038048;stroke-width:1.0;"/><text fill="#000000" font-family="sans-serif" font-size="14" lengthAdjust="spacing" textLength="37" x="427.5" y="1182.752">hitbox</text><ellipse cx="418.5" cy="1196.1328" fill="none" rx="3" ry="3" style="stroke:#038048;stroke-width:1.0;"/><text fill="#000000" font-family="sans-serif" font-size="14" lengthAdjust="spacing" textLength="31" x="427.5" y="1200.3613">state</text><ellipse cx="418.5" cy="1213.7422" fill="none" rx="3" ry="3" style="stroke:#038048;stroke-width:1.0;"/><text fill="#000000" font-family="sans-serif" font-size="14" lengthAdjust="spacing" textLength="24" x="427.5" y="1217.9707">font</text><ellipse cx="418.5" cy="1231.3516" fill="none" rx="3" ry="3" style="stroke:#038048;stroke-width:1.0;"/><text fill="#000000" font-family="sans-serif" font-size="14" lengthAdjust="spacing" textLength="69" x="427.5" y="1235.5801">label_color</text><line style="stroke:#181818;stroke-width:0.5;" x1="408.5" x2="501.5" y1="1242.6563" y2="1242.6563"/><ellipse cx="418.5" cy="1256.9609" fill="#84BE84" rx="3" ry="3" style="stroke:#038048;stroke-width:1.0;"/><text fill="#000000" font-family="sans-serif" font-size="14" lengthAdjust="spacing" textLength="40" x="427.5" y="1261.1895">draw()</text><ellipse cx="418.5" cy="1274.5703" fill="#84BE84" rx="3" ry="3" style="stroke:#038048;stroke-width:1.0;"/><text fill="#000000" font-family="sans-serif" font-size="14" lengthAdjust="spacing" textLength="31" x="427.5" y="1278.7988">run()</text></g><!--MD5=[17251ebdb009ebc02df00ec809a95d6e]
class ButtonManager--><g id="elem_ButtonManager"><rect codeLine="77" fill="#F1F1F1" height="153.6563" id="ButtonManager" rx="2.5" ry="2.5" style="stroke:#181818;stroke-width:0.5;" width="180" x="387" y="883"/><ellipse cx="424.95" cy="899" fill="#ADD1B2" rx="11" ry="11" style="stroke:#181818;stroke-width:1.0;"/><path d="M427.7156,894.875 Q427.8719,894.6563 428.0594,894.5469 Q428.2469,894.4375 428.4656,894.4375 Q428.8406,894.4375 429.075,894.7031 Q429.3094,894.9531 429.3094,895.5625 L429.3094,897.0156 Q429.3094,897.625 429.075,897.8906 Q428.8406,898.1563 428.4656,898.1563 Q428.1219,898.1563 427.9188,897.9531 Q427.7156,897.7656 427.6063,897.25 Q427.5594,896.8906 427.3719,896.7031 Q427.0438,896.3281 426.4344,896.1094 Q425.825,895.8906 425.2,895.8906 Q424.4344,895.8906 423.7938,896.2188 Q423.1688,896.5469 422.6688,897.2969 Q422.1844,898.0469 422.1844,899.0781 L422.1844,900.1719 Q422.1844,901.4063 423.075,902.2344 Q423.9656,903.0469 425.5594,903.0469 Q426.4969,903.0469 427.1531,902.7969 Q427.5438,902.6406 427.9656,902.2031 Q428.2313,901.9375 428.3719,901.8594 Q428.5281,901.7813 428.7313,901.7813 Q429.0594,901.7813 429.3094,902.0469 Q429.575,902.2969 429.575,902.6406 Q429.575,902.9844 429.2313,903.3906 Q428.7313,903.9688 427.9344,904.2969 Q426.8563,904.75 425.5594,904.75 Q424.0438,904.75 422.8406,904.125 Q421.8563,903.625 421.1688,902.5625 Q420.4813,901.4844 420.4813,900.2031 L420.4813,899.0469 Q420.4813,897.7188 421.0906,896.5781 Q421.7156,895.4219 422.8094,894.8125 Q423.9031,894.1875 425.1375,894.1875 Q425.8719,894.1875 426.5125,894.3594 Q427.1688,894.5156 427.7156,894.875 Z " fill="#000000"/><text fill="#000000" font-family="sans-serif" font-size="14" lengthAdjust="spacing" textLength="97" x="444.05" y="904.7285">ButtonManager</text><line style="stroke:#181818;stroke-width:0.5;" x1="388" x2="566" y1="915" y2="915"/><line style="stroke:#181818;stroke-width:0.5;" x1="388" x2="566" y1="923" y2="923"/><ellipse cx="398" cy="937.3047" fill="#84BE84" rx="3" ry="3" style="stroke:#038048;stroke-width:1.0;"/><text fill="#000000" font-family="sans-serif" font-size="14" lengthAdjust="spacing" text-decoration="underline" textLength="54" x="407" y="941.5332">update()</text><ellipse cx="398" cy="954.9141" fill="#84BE84" rx="3" ry="3" style="stroke:#038048;stroke-width:1.0;"/><text fill="#000000" font-family="sans-serif" font-size="14" lengthAdjust="spacing" text-decoration="underline" textLength="68" x="407" y="959.1426">is_alive(id)</text><ellipse cx="398" cy="972.5234" fill="#84BE84" rx="3" ry="3" style="stroke:#038048;stroke-width:1.0;"/><text fill="#000000" font-family="sans-serif" font-size="14" lengthAdjust="spacing" text-decoration="underline" textLength="77" x="407" y="976.752">set_alive(id)</text><ellipse cx="398" cy="990.1328" fill="#84BE84" rx="3" ry="3" style="stroke:#038048;stroke-width:1.0;"/><text fill="#000000" font-family="sans-serif" font-size="14" lengthAdjust="spacing" text-decoration="underline" textLength="37" x="407" y="994.3613">kill(id)</text><ellipse cx="398" cy="1007.7422" fill="#84BE84" rx="3" ry="3" style="stroke:#038048;stroke-width:1.0;"/><text fill="#000000" font-family="sans-serif" font-size="14" lengthAdjust="spacing" text-decoration="underline" textLength="140" x="407" y="1011.9707">unregister_buttons(id)</text><ellipse cx="398" cy="1025.3516" fill="#84BE84" rx="3" ry="3" style="stroke:#038048;stroke-width:1.0;"/><text fill="#000000" font-family="sans-serif" font-size="14" lengthAdjust="spacing" text-decoration="underline" textLength="154" x="407" y="1029.5801">register_buttons(Button)</text></g><!--MD5=[1b1562314ef50edf921bad0cd204186a]
class World--><g id="elem_World"><rect codeLine="86" fill="#F1F1F1" height="188.875" id="World" rx="2.5" ry="2.5" style="stroke:#181818;stroke-width:0.5;" width="130" x="933" y="634"/><ellipse cx="975.45" cy="650" fill="#ADD1B2" rx="11" ry="11" style="stroke:#181818;stroke-width:1.0;"/><path d="M978.2156,645.875 Q978.3719,645.6563 978.5594,645.5469 Q978.7469,645.4375 978.9656,645.4375 Q979.3406,645.4375 979.575,645.7031 Q979.8094,645.9531 979.8094,646.5625 L979.8094,648.0156 Q979.8094,648.625 979.575,648.8906 Q979.3406,649.1563 978.9656,649.1563 Q978.6219,649.1563 978.4188,648.9531 Q978.2156,648.7656 978.1063,648.25 Q978.0594,647.8906 977.8719,647.7031 Q977.5438,647.3281 976.9344,647.1094 Q976.325,646.8906 975.7,646.8906 Q974.9344,646.8906 974.2938,647.2188 Q973.6688,647.5469 973.1688,648.2969 Q972.6844,649.0469 972.6844,650.0781 L972.6844,651.1719 Q972.6844,652.4063 973.575,653.2344 Q974.4656,654.0469 976.0594,654.0469 Q976.9969,654.0469 977.6531,653.7969 Q978.0438,653.6406 978.4656,653.2031 Q978.7313,652.9375 978.8719,652.8594 Q979.0281,652.7813 979.2313,652.7813 Q979.5594,652.7813 979.8094,653.0469 Q980.075,653.2969 980.075,653.6406 Q980.075,653.9844 979.7313,654.3906 Q979.2313,654.9688 978.4344,655.2969 Q977.3563,655.75 976.0594,655.75 Q974.5438,655.75 973.3406,655.125 Q972.3563,654.625 971.6688,653.5625 Q970.9813,652.4844 970.9813,651.2031 L970.9813,650.0469 Q970.9813,648.7188 971.5906,647.5781 Q972.2156,646.4219 973.3094,645.8125 Q974.4031,645.1875 975.6375,645.1875 Q976.3719,645.1875 977.0125,645.3594 Q977.6688,645.5156 978.2156,645.875 Z " fill="#000000"/><text fill="#000000" font-family="sans-serif" font-size="14" lengthAdjust="spacing" textLength="37" x="995.55" y="655.7285">World</text><line style="stroke:#181818;stroke-width:0.5;" x1="934" x2="1062" y1="666" y2="666"/><ellipse cx="944" cy="680.3047" fill="none" rx="3" ry="3" style="stroke:#038048;stroke-width:1.0;"/><text fill="#000000" font-family="sans-serif" font-size="14" lengthAdjust="spacing" textLength="53" x="953" y="684.5332">enemies</text><ellipse cx="944" cy="697.9141" fill="none" rx="3" ry="3" style="stroke:#038048;stroke-width:1.0;"/><text fill="#000000" font-family="sans-serif" font-size="14" lengthAdjust="spacing" textLength="39" x="953" y="702.1426">player</text><ellipse cx="944" cy="715.5234" fill="none" rx="3" ry="3" style="stroke:#038048;stroke-width:1.0;"/><text fill="#000000" font-family="sans-serif" font-size="14" lengthAdjust="spacing" textLength="75" x="953" y="719.752">background</text><ellipse cx="944" cy="733.1328" fill="none" rx="3" ry="3" style="stroke:#038048;stroke-width:1.0;"/><text fill="#000000" font-family="sans-serif" font-size="14" lengthAdjust="spacing" textLength="40" x="953" y="737.3613">blocks</text><line style="stroke:#181818;stroke-width:0.5;" x1="934" x2="1062" y1="744.4375" y2="744.4375"/><ellipse cx="944" cy="758.7422" fill="#84BE84" rx="3" ry="3" style="stroke:#038048;stroke-width:1.0;"/><text fill="#000000" font-family="sans-serif" font-size="14" lengthAdjust="spacing" textLength="95" x="953" y="762.9707">deserialize(file)</text><ellipse cx="944" cy="776.3516" fill="#84BE84" rx="3" ry="3" style="stroke:#038048;stroke-width:1.0;"/><text fill="#000000" font-family="sans-serif" font-size="14" lengthAdjust="spacing" textLength="54" x="953" y="780.5801">update()</text><ellipse cx="944" cy="793.9609" fill="#84BE84" rx="3" ry="3" style="stroke:#038048;stroke-width:1.0;"/><text fill="#000000" font-family="sans-serif" font-size="14" lengthAdjust="spacing" textLength="104" x="953" y="798.1895">update_pos(obj)</text><ellipse cx="944" cy="811.5703" fill="#84BE84" rx="3" ry="3" style="stroke:#038048;stroke-width:1.0;"/><text fill="#000000" font-family="sans-serif" font-size="14" lengthAdjust="spacing" textLength="40" x="953" y="815.7988">draw()</text></g><!--MD5=[f0268dd29ee89052933f031546cb1cab]
class Menu--><g id="elem_Menu"><rect codeLine="97" fill="#F1F1F1" height="118.4375" id="Menu" rx="2.5" ry="2.5" style="stroke:#181818;stroke-width:0.5;" width="123" x="379.5" y="669.5"/><ellipse cx="419.7" cy="685.5" fill="#ADD1B2" rx="11" ry="11" style="stroke:#181818;stroke-width:1.0;"/><path d="M422.4656,681.375 Q422.6219,681.1563 422.8094,681.0469 Q422.9969,680.9375 423.2156,680.9375 Q423.5906,680.9375 423.825,681.2031 Q424.0594,681.4531 424.0594,682.0625 L424.0594,683.5156 Q424.0594,684.125 423.825,684.3906 Q423.5906,684.6563 423.2156,684.6563 Q422.8719,684.6563 422.6688,684.4531 Q422.4656,684.2656 422.3563,683.75 Q422.3094,683.3906 422.1219,683.2031 Q421.7938,682.8281 421.1844,682.6094 Q420.575,682.3906 419.95,682.3906 Q419.1844,682.3906 418.5438,682.7188 Q417.9188,683.0469 417.4188,683.7969 Q416.9344,684.5469 416.9344,685.5781 L416.9344,686.6719 Q416.9344,687.9063 417.825,688.7344 Q418.7156,689.5469 420.3094,689.5469 Q421.2469,689.5469 421.9031,689.2969 Q422.2938,689.1406 422.7156,688.7031 Q422.9813,688.4375 423.1219,688.3594 Q423.2781,688.2813 423.4813,688.2813 Q423.8094,688.2813 424.0594,688.5469 Q424.325,688.7969 424.325,689.1406 Q424.325,689.4844 423.9813,689.8906 Q423.4813,690.4688 422.6844,690.7969 Q421.6063,691.25 420.3094,691.25 Q418.7938,691.25 417.5906,690.625 Q416.6063,690.125 415.9188,689.0625 Q415.2313,687.9844 415.2313,686.7031 L415.2313,685.5469 Q415.2313,684.2188 415.8406,683.0781 Q416.4656,681.9219 417.5594,681.3125 Q418.6531,680.6875 419.8875,680.6875 Q420.6219,680.6875 421.2625,680.8594 Q421.9188,681.0156 422.4656,681.375 Z " fill="#000000"/><text fill="#000000" font-family="sans-serif" font-size="14" lengthAdjust="spacing" textLength="35" x="439.3" y="691.2285">Menu</text><line style="stroke:#181818;stroke-width:0.5;" x1="380.5" x2="501.5" y1="701.5" y2="701.5"/><line style="stroke:#181818;stroke-width:0.5;" x1="380.5" x2="501.5" y1="709.5" y2="709.5"/><ellipse cx="390.5" cy="723.8047" fill="#84BE84" rx="3" ry="3" style="stroke:#038048;stroke-width:1.0;"/><text fill="#000000" font-family="sans-serif" font-size="14" lengthAdjust="spacing" text-decoration="underline" textLength="71" x="399.5" y="728.0332">is_open(id)</text><ellipse cx="390.5" cy="741.4141" fill="#84BE84" rx="3" ry="3" style="stroke:#038048;stroke-width:1.0;"/><text fill="#000000" font-family="sans-serif" font-size="14" lengthAdjust="spacing" text-decoration="underline" textLength="97" x="399.5" y="745.6426">close_menu(id)</text><ellipse cx="390.5" cy="759.0234" fill="#84BE84" rx="3" ry="3" style="stroke:#038048;stroke-width:1.0;"/><text fill="#000000" font-family="sans-serif" font-size="14" lengthAdjust="spacing" text-decoration="underline" textLength="96" x="399.5" y="763.252">open_menu(id)</text><ellipse cx="390.5" cy="776.6328" fill="#84BE84" rx="3" ry="3" style="stroke:#038048;stroke-width:1.0;"/><text fill="#000000" font-family="sans-serif" font-size="14" lengthAdjust="spacing" text-decoration="underline" textLength="71" x="399.5" y="780.8613">is_open(id)</text></g><!--MD5=[02a8746eb15ecbb4566dafa16ea4db73]
class Text--><g id="elem_Text"><rect codeLine="104" fill="#F1F1F1" height="100.8281" id="Text" rx="2.5" ry="2.5" style="stroke:#181818;stroke-width:0.5;" width="340" x="88" y="1577"/><ellipse cx="240.25" cy="1593" fill="#ADD1B2" rx="11" ry="11" style="stroke:#181818;stroke-width:1.0;"/><path d="M243.0156,1588.875 Q243.1719,1588.6563 243.3594,1588.5469 Q243.5469,1588.4375 243.7656,1588.4375 Q244.1406,1588.4375 244.375,1588.7031 Q244.6094,1588.9531 244.6094,1589.5625 L244.6094,1591.0156 Q244.6094,1591.625 244.375,1591.8906 Q244.1406,1592.1563 243.7656,1592.1563 Q243.4219,1592.1563 243.2188,1591.9531 Q243.0156,1591.7656 242.9063,1591.25 Q242.8594,1590.8906 242.6719,1590.7031 Q242.3438,1590.3281 241.7344,1590.1094 Q241.125,1589.8906 240.5,1589.8906 Q239.7344,1589.8906 239.0938,1590.2188 Q238.4688,1590.5469 237.9688,1591.2969 Q237.4844,1592.0469 237.4844,1593.0781 L237.4844,1594.1719 Q237.4844,1595.4063 238.375,1596.2344 Q239.2656,1597.0469 240.8594,1597.0469 Q241.7969,1597.0469 242.4531,1596.7969 Q242.8438,1596.6406 243.2656,1596.2031 Q243.5313,1595.9375 243.6719,1595.8594 Q243.8281,1595.7813 244.0313,1595.7813 Q244.3594,1595.7813 244.6094,1596.0469 Q244.875,1596.2969 244.875,1596.6406 Q244.875,1596.9844 244.5313,1597.3906 Q244.0313,1597.9688 243.2344,1598.2969 Q242.1563,1598.75 240.8594,1598.75 Q239.3438,1598.75 238.1406,1598.125 Q237.1563,1597.625 236.4688,1596.5625 Q235.7813,1595.4844 235.7813,1594.2031 L235.7813,1593.0469 Q235.7813,1591.7188 236.3906,1590.5781 Q237.0156,1589.4219 238.1094,1588.8125 Q239.2031,1588.1875 240.4375,1588.1875 Q241.1719,1588.1875 241.8125,1588.3594 Q242.4688,1588.5156 243.0156,1588.875 Z " fill="#000000"/><text fill="#000000" font-family="sans-serif" font-size="14" lengthAdjust="spacing" textLength="27" x="260.75" y="1598.7285">Text</text><line style="stroke:#181818;stroke-width:0.5;" x1="89" x2="427" y1="1609" y2="1609"/><ellipse cx="99" cy="1623.3047" fill="none" rx="3" ry="3" style="stroke:#038048;stroke-width:1.0;"/><text fill="#000000" font-family="sans-serif" font-size="14" lengthAdjust="spacing" text-decoration="underline" textLength="31" x="108" y="1627.5332">fonts</text><line style="stroke:#181818;stroke-width:0.5;" x1="89" x2="427" y1="1634.6094" y2="1634.6094"/><ellipse cx="99" cy="1648.9141" fill="#84BE84" rx="3" ry="3" style="stroke:#038048;stroke-width:1.0;"/><text fill="#000000" font-family="sans-serif" font-size="14" lengthAdjust="spacing" text-decoration="underline" textLength="112" x="108" y="1653.1426">divide_string(text)</text><ellipse cx="99" cy="1666.5234" fill="#84BE84" rx="3" ry="3" style="stroke:#038048;stroke-width:1.0;"/><text fill="#000000" font-family="sans-serif" font-size="14" lengthAdjust="spacing" text-decoration="underline" textLength="314" x="108" y="1670.752">display_message(text, position, font, color, divide)</text></g><!--MD5=[3cab58e622330109321580dbb0b85605]
class Input--><g id="elem_Input"><rect codeLine="110" fill="#F1F1F1" height="171.2656" id="Input" rx="2.5" ry="2.5" style="stroke:#181818;stroke-width:0.5;" width="176" x="515" y="1346"/><ellipse cx="583.25" cy="1362" fill="#ADD1B2" rx="11" ry="11" style="stroke:#181818;stroke-width:1.0;"/><path d="M586.0156,1357.875 Q586.1719,1357.6563 586.3594,1357.5469 Q586.5469,1357.4375 586.7656,1357.4375 Q587.1406,1357.4375 587.375,1357.7031 Q587.6094,1357.9531 587.6094,1358.5625 L587.6094,1360.0156 Q587.6094,1360.625 587.375,1360.8906 Q587.1406,1361.1563 586.7656,1361.1563 Q586.4219,1361.1563 586.2188,1360.9531 Q586.0156,1360.7656 585.9063,1360.25 Q585.8594,1359.8906 585.6719,1359.7031 Q585.3438,1359.3281 584.7344,1359.1094 Q584.125,1358.8906 583.5,1358.8906 Q582.7344,1358.8906 582.0938,1359.2188 Q581.4688,1359.5469 580.9688,1360.2969 Q580.4844,1361.0469 580.4844,1362.0781 L580.4844,1363.1719 Q580.4844,1364.4063 581.375,1365.2344 Q582.2656,1366.0469 583.8594,1366.0469 Q584.7969,1366.0469 585.4531,1365.7969 Q585.8438,1365.6406 586.2656,1365.2031 Q586.5313,1364.9375 586.6719,1364.8594 Q586.8281,1364.7813 587.0313,1364.7813 Q587.3594,1364.7813 587.6094,1365.0469 Q587.875,1365.2969 587.875,1365.6406 Q587.875,1365.9844 587.5313,1366.3906 Q587.0313,1366.9688 586.2344,1367.2969 Q585.1563,1367.75 583.8594,1367.75 Q582.3438,1367.75 581.1406,1367.125 Q580.1563,1366.625 579.4688,1365.5625 Q578.7813,1364.4844 578.7813,1363.2031 L578.7813,1362.0469 Q578.7813,1360.7188 579.3906,1359.5781 Q580.0156,1358.4219 581.1094,1357.8125 Q582.2031,1357.1875 583.4375,1357.1875 Q584.1719,1357.1875 584.8125,1357.3594 Q585.4688,1357.5156 586.0156,1357.875 Z " fill="#000000"/><text fill="#000000" font-family="sans-serif" font-size="14" lengthAdjust="spacing" textLength="31" x="603.75" y="1367.7285">Input</text><line style="stroke:#181818;stroke-width:0.5;" x1="516" x2="690" y1="1378" y2="1378"/><line style="stroke:#181818;stroke-width:0.5;" x1="516" x2="690" y1="1386" y2="1386"/><ellipse cx="526" cy="1400.3047" fill="#84BE84" rx="3" ry="3" style="stroke:#038048;stroke-width:1.0;"/><text fill="#000000" font-family="sans-serif" font-size="14" lengthAdjust="spacing" text-decoration="underline" textLength="101" x="535" y="1404.5332">is_pressed(key)</text><ellipse cx="526" cy="1417.9141" fill="#84BE84" rx="3" ry="3" style="stroke:#038048;stroke-width:1.0;"/><text fill="#000000" font-family="sans-serif" font-size="14" lengthAdjust="spacing" text-decoration="underline" textLength="140" x="535" y="1422.1426">is_pressed_once(key)</text><ellipse cx="526" cy="1435.5234" fill="#84BE84" rx="3" ry="3" style="stroke:#038048;stroke-width:1.0;"/><text fill="#000000" font-family="sans-serif" font-size="14" lengthAdjust="spacing" text-decoration="underline" textLength="111" x="535" y="1439.752">is_clicked(button)</text><ellipse cx="526" cy="1453.1328" fill="#84BE84" rx="3" ry="3" style="stroke:#038048;stroke-width:1.0;"/><text fill="#000000" font-family="sans-serif" font-size="14" lengthAdjust="spacing" text-decoration="underline" textLength="150" x="535" y="1457.3613">is_clicked_once(button)</text><ellipse cx="526" cy="1470.7422" fill="#84BE84" rx="3" ry="3" style="stroke:#038048;stroke-width:1.0;"/><text fill="#000000" font-family="sans-serif" font-size="14" lengthAdjust="spacing" text-decoration="underline" textLength="80" x="535" y="1474.9707">get_motion()</text><ellipse cx="526" cy="1488.3516" fill="#84BE84" rx="3" ry="3" style="stroke:#038048;stroke-width:1.0;"/><text fill="#000000" font-family="sans-serif" font-size="14" lengthAdjust="spacing" text-decoration="underline" textLength="80" x="535" y="1492.5801">get_mouse()</text><ellipse cx="526" cy="1505.9609" fill="#84BE84" rx="3" ry="3" style="stroke:#038048;stroke-width:1.0;"/><text fill="#000000" font-family="sans-serif" font-size="14" lengthAdjust="spacing" text-decoration="underline" textLength="54" x="535" y="1510.1895">update()</text></g><!--MD5=[99e5d0319d94059708e42fb64bcac062]
class EventManager--><g id="elem_EventManager"><rect codeLine="120" fill="#F1F1F1" height="153.6563" id="EventManager" rx="2.5" ry="2.5" style="stroke:#181818;stroke-width:0.5;" width="205" x="1098.5" y="651.5"/><ellipse cx="1150.75" cy="667.5" fill="#ADD1B2" rx="11" ry="11" style="stroke:#181818;stroke-width:1.0;"/><path d="M1153.5156,663.375 Q1153.6719,663.1563 1153.8594,663.0469 Q1154.0469,662.9375 1154.2656,662.9375 Q1154.6406,662.9375 1154.875,663.2031 Q1155.1094,663.4531 1155.1094,664.0625 L1155.1094,665.5156 Q1155.1094,666.125 1154.875,666.3906 Q1154.6406,666.6563 1154.2656,666.6563 Q1153.9219,666.6563 1153.7188,666.4531 Q1153.5156,666.2656 1153.4063,665.75 Q1153.3594,665.3906 1153.1719,665.2031 Q1152.8438,664.8281 1152.2344,664.6094 Q1151.625,664.3906 1151,664.3906 Q1150.2344,664.3906 1149.5938,664.7188 Q1148.9688,665.0469 1148.4688,665.7969 Q1147.9844,666.5469 1147.9844,667.5781 L1147.9844,668.6719 Q1147.9844,669.9063 1148.875,670.7344 Q1149.7656,671.5469 1151.3594,671.5469 Q1152.2969,671.5469 1152.9531,671.2969 Q1153.3438,671.1406 1153.7656,670.7031 Q1154.0313,670.4375 1154.1719,670.3594 Q1154.3281,670.2813 1154.5313,670.2813 Q1154.8594,670.2813 1155.1094,670.5469 Q1155.375,670.7969 1155.375,671.1406 Q1155.375,671.4844 1155.0313,671.8906 Q1154.5313,672.4688 1153.7344,672.7969 Q1152.6563,673.25 1151.3594,673.25 Q1149.8438,673.25 1148.6406,672.625 Q1147.6563,672.125 1146.9688,671.0625 Q1146.2813,669.9844 1146.2813,668.7031 L1146.2813,667.5469 Q1146.2813,666.2188 1146.8906,665.0781 Q1147.5156,663.9219 1148.6094,663.3125 Q1149.7031,662.6875 1150.9375,662.6875 Q1151.6719,662.6875 1152.3125,662.8594 Q1152.9688,663.0156 1153.5156,663.375 Z " fill="#000000"/><text fill="#000000" font-family="sans-serif" font-size="14" lengthAdjust="spacing" textLength="92" x="1171.25" y="673.2285">EventManager</text><line style="stroke:#181818;stroke-width:0.5;" x1="1099.5" x2="1302.5" y1="683.5" y2="683.5"/><ellipse cx="1109.5" cy="697.8047" fill="none" rx="3" ry="3" style="stroke:#038048;stroke-width:1.0;"/><text fill="#000000" font-family="sans-serif" font-size="14" lengthAdjust="spacing" text-decoration="underline" textLength="53" x="1118.5" y="702.0332">listeners</text><ellipse cx="1109.5" cy="715.4141" fill="none" rx="3" ry="3" style="stroke:#038048;stroke-width:1.0;"/><text fill="#000000" font-family="sans-serif" font-size="14" lengthAdjust="spacing" text-decoration="underline" textLength="83" x="1118.5" y="719.6426">event_queue</text><line style="stroke:#181818;stroke-width:0.5;" x1="1099.5" x2="1302.5" y1="726.7188" y2="726.7188"/><ellipse cx="1109.5" cy="741.0234" fill="#84BE84" rx="3" ry="3" style="stroke:#038048;stroke-width:1.0;"/><text fill="#000000" font-family="sans-serif" font-size="14" lengthAdjust="spacing" text-decoration="underline" textLength="154" x="1118.5" y="745.252">initialize(custom_events)</text><ellipse cx="1109.5" cy="758.6328" fill="#84BE84" rx="3" ry="3" style="stroke:#038048;stroke-width:1.0;"/><text fill="#000000" font-family="sans-serif" font-size="14" lengthAdjust="spacing" text-decoration="underline" textLength="40" x="1118.5" y="762.8613">flush()</text><ellipse cx="1109.5" cy="776.2422" fill="#84BE84" rx="3" ry="3" style="stroke:#038048;stroke-width:1.0;"/><text fill="#000000" font-family="sans-serif" font-size="14" lengthAdjust="spacing" text-decoration="underline" textLength="158" x="1118.5" y="780.4707">register_listener(listener)</text><ellipse cx="1109.5" cy="793.8516" fill="#84BE84" rx="3" ry="3" style="stroke:#038048;stroke-width:1.0;"/><text fill="#000000" font-family="sans-serif" font-size="14" lengthAdjust="spacing" text-decoration="underline" textLength="179" x="1118.5" y="798.0801">push_event(custom_events)</text></g><!--MD5=[48e88c162c5505361c629eb6ff3812a8]
class GameState--><g id="elem_GameState"><rect codeLine="130" fill="#F1F1F1" height="206.4844" id="GameState" rx="2.5" ry="2.5" style="stroke:#181818;stroke-width:0.5;" width="376" x="667" y="157"/><ellipse cx="815.25" cy="173" fill="#ADD1B2" rx="11" ry="11" style="stroke:#181818;stroke-width:1.0;"/><path d="M818.0156,168.875 Q818.1719,168.6563 818.3594,168.5469 Q818.5469,168.4375 818.7656,168.4375 Q819.1406,168.4375 819.375,168.7031 Q819.6094,168.9531 819.6094,169.5625 L819.6094,171.0156 Q819.6094,171.625 819.375,171.8906 Q819.1406,172.1563 818.7656,172.1563 Q818.4219,172.1563 818.2188,171.9531 Q818.0156,171.7656 817.9063,171.25 Q817.8594,170.8906 817.6719,170.7031 Q817.3438,170.3281 816.7344,170.1094 Q816.125,169.8906 815.5,169.8906 Q814.7344,169.8906 814.0938,170.2188 Q813.4688,170.5469 812.9688,171.2969 Q812.4844,172.0469 812.4844,173.0781 L812.4844,174.1719 Q812.4844,175.4063 813.375,176.2344 Q814.2656,177.0469 815.8594,177.0469 Q816.7969,177.0469 817.4531,176.7969 Q817.8438,176.6406 818.2656,176.2031 Q818.5313,175.9375 818.6719,175.8594 Q818.8281,175.7813 819.0313,175.7813 Q819.3594,175.7813 819.6094,176.0469 Q819.875,176.2969 819.875,176.6406 Q819.875,176.9844 819.5313,177.3906 Q819.0313,177.9688 818.2344,178.2969 Q817.1563,178.75 815.8594,178.75 Q814.3438,178.75 813.1406,178.125 Q812.1563,177.625 811.4688,176.5625 Q810.7813,175.4844 810.7813,174.2031 L810.7813,173.0469 Q810.7813,171.7188 811.3906,170.5781 Q812.0156,169.4219 813.1094,168.8125 Q814.2031,168.1875 815.4375,168.1875 Q816.1719,168.1875 816.8125,168.3594 Q817.4688,168.5156 818.0156,168.875 Z " fill="#000000"/><text fill="#000000" font-family="sans-serif" font-size="14" lengthAdjust="spacing" textLength="71" x="835.75" y="178.7285">GameState</text><line style="stroke:#181818;stroke-width:0.5;" x1="668" x2="1042" y1="189" y2="189"/><ellipse cx="678" cy="203.3047" fill="none" rx="3" ry="3" style="stroke:#038048;stroke-width:1.0;"/><text fill="#000000" font-family="sans-serif" font-size="14" lengthAdjust="spacing" text-decoration="underline" textLength="109" x="687" y="207.5332">DEFAULT_FONT</text><ellipse cx="678" cy="220.9141" fill="none" rx="3" ry="3" style="stroke:#038048;stroke-width:1.0;"/><text fill="#000000" font-family="sans-serif" font-size="14" lengthAdjust="spacing" text-decoration="underline" textLength="59" x="687" y="225.1426">WINDOW</text><ellipse cx="678" cy="238.5234" fill="none" rx="3" ry="3" style="stroke:#038048;stroke-width:1.0;"/><text fill="#000000" font-family="sans-serif" font-size="14" lengthAdjust="spacing" text-decoration="underline" textLength="113" x="687" y="242.752">GAME_SURFACE</text><ellipse cx="678" cy="256.1328" fill="none" rx="3" ry="3" style="stroke:#038048;stroke-width:1.0;"/><text fill="#000000" font-family="sans-serif" font-size="14" lengthAdjust="spacing" text-decoration="underline" textLength="60" x="687" y="260.3613">PhysicDT</text><ellipse cx="678" cy="273.7422" fill="none" rx="3" ry="3" style="stroke:#038048;stroke-width:1.0;"/><text fill="#000000" font-family="sans-serif" font-size="14" lengthAdjust="spacing" text-decoration="underline" textLength="69" x="687" y="277.9707">GraphicDT</text><ellipse cx="678" cy="291.3516" fill="none" rx="3" ry="3" style="stroke:#038048;stroke-width:1.0;"/><text fill="#000000" font-family="sans-serif" font-size="14" lengthAdjust="spacing" text-decoration="underline" textLength="30" x="687" y="295.5801">save</text><ellipse cx="678" cy="308.9609" fill="none" rx="3" ry="3" style="stroke:#038048;stroke-width:1.0;"/><text fill="#000000" font-family="sans-serif" font-size="14" lengthAdjust="spacing" text-decoration="underline" textLength="47" x="687" y="313.1895">camera</text><line style="stroke:#181818;stroke-width:0.5;" x1="668" x2="1042" y1="320.2656" y2="320.2656"/><ellipse cx="678" cy="334.5703" fill="#84BE84" rx="3" ry="3" style="stroke:#038048;stroke-width:1.0;"/><text fill="#000000" font-family="sans-serif" font-size="14" lengthAdjust="spacing" text-decoration="underline" textLength="59" x="687" y="338.7988">initialize()</text><rect fill="#F24D5C" height="6" style="stroke:#C82930;stroke-width:1.0;" width="6" x="675" y="349.1797"/><text fill="#000000" font-family="sans-serif" font-size="14" lengthAdjust="spacing" text-decoration="underline" textLength="350" x="687" y="356.4082">__initialize_game_configuration(GameConfig,attributes)</text></g><!--MD5=[58882ceeb1d92afba821ffded6531010]
class GameConfig--><g id="elem_GameConfig"><rect codeLine="143" fill="#F1F1F1" height="505.8438" id="GameConfig" rx="2.5" ry="2.5" style="stroke:#181818;stroke-width:0.5;" width="191" x="1078.5" y="7"/><ellipse cx="1130.25" cy="23" fill="#ADD1B2" rx="11" ry="11" style="stroke:#181818;stroke-width:1.0;"/><path d="M1133.0156,18.875 Q1133.1719,18.6563 1133.3594,18.5469 Q1133.5469,18.4375 1133.7656,18.4375 Q1134.1406,18.4375 1134.375,18.7031 Q1134.6094,18.9531 1134.6094,19.5625 L1134.6094,21.0156 Q1134.6094,21.625 1134.375,21.8906 Q1134.1406,22.1563 1133.7656,22.1563 Q1133.4219,22.1563 1133.2188,21.9531 Q1133.0156,21.7656 1132.9063,21.25 Q1132.8594,20.8906 1132.6719,20.7031 Q1132.3438,20.3281 1131.7344,20.1094 Q1131.125,19.8906 1130.5,19.8906 Q1129.7344,19.8906 1129.0938,20.2188 Q1128.4688,20.5469 1127.9688,21.2969 Q1127.4844,22.0469 1127.4844,23.0781 L1127.4844,24.1719 Q1127.4844,25.4063 1128.375,26.2344 Q1129.2656,27.0469 1130.8594,27.0469 Q1131.7969,27.0469 1132.4531,26.7969 Q1132.8438,26.6406 1133.2656,26.2031 Q1133.5313,25.9375 1133.6719,25.8594 Q1133.8281,25.7813 1134.0313,25.7813 Q1134.3594,25.7813 1134.6094,26.0469 Q1134.875,26.2969 1134.875,26.6406 Q1134.875,26.9844 1134.5313,27.3906 Q1134.0313,27.9688 1133.2344,28.2969 Q1132.1563,28.75 1130.8594,28.75 Q1129.3438,28.75 1128.1406,28.125 Q1127.1563,27.625 1126.4688,26.5625 Q1125.7813,25.4844 1125.7813,24.2031 L1125.7813,23.0469 Q1125.7813,21.7188 1126.3906,20.5781 Q1127.0156,19.4219 1128.1094,18.8125 Q1129.2031,18.1875 1130.4375,18.1875 Q1131.1719,18.1875 1131.8125,18.3594 Q1132.4688,18.5156 1133.0156,18.875 Z " fill="#000000"/><text fill="#000000" font-family="sans-serif" font-size="14" lengthAdjust="spacing" textLength="79" x="1150.75" y="28.7285">GameConfig</text><line style="stroke:#181818;stroke-width:0.5;" x1="1079.5" x2="1268.5" y1="39" y2="39"/><ellipse cx="1089.5" cy="53.3047" fill="none" rx="3" ry="3" style="stroke:#038048;stroke-width:1.0;"/><text fill="#000000" font-family="sans-serif" font-size="14" lengthAdjust="spacing" text-decoration="underline" textLength="84" x="1098.5" y="57.5332">BLOCK_SIZE</text><ellipse cx="1089.5" cy="70.9141" fill="none" rx="3" ry="3" style="stroke:#038048;stroke-width:1.0;"/><text fill="#000000" font-family="sans-serif" font-size="14" lengthAdjust="spacing" text-decoration="underline" textLength="45" x="1098.5" y="75.1426">Gravity</text><ellipse cx="1089.5" cy="88.5234" fill="none" rx="3" ry="3" style="stroke:#038048;stroke-width:1.0;"/><text fill="#000000" font-family="sans-serif" font-size="14" lengthAdjust="spacing" text-decoration="underline" textLength="131" x="1098.5" y="92.752">NB_BLOCK_HEIGHT</text><ellipse cx="1089.5" cy="106.1328" fill="none" rx="3" ry="3" style="stroke:#038048;stroke-width:1.0;"/><text fill="#000000" font-family="sans-serif" font-size="14" lengthAdjust="spacing" text-decoration="underline" textLength="114" x="1098.5" y="110.3613">BLOCKS_HEIGHT</text><ellipse cx="1089.5" cy="123.7422" fill="none" rx="3" ry="3" style="stroke:#038048;stroke-width:1.0;"/><text fill="#000000" font-family="sans-serif" font-size="14" lengthAdjust="spacing" text-decoration="underline" textLength="130" x="1098.5" y="127.9707">ambient_color_world</text><ellipse cx="1089.5" cy="141.3516" fill="none" rx="3" ry="3" style="stroke:#038048;stroke-width:1.0;"/><text fill="#000000" font-family="sans-serif" font-size="14" lengthAdjust="spacing" text-decoration="underline" textLength="67" x="1098.5" y="145.5801">PhysicTick</text><text fill="#000000" font-family="sans-serif" font-size="14" lengthAdjust="spacing" textLength="4" x="1098.5" y="163.1895"></text><ellipse cx="1089.5" cy="176.5703" fill="none" rx="3" ry="3" style="stroke:#038048;stroke-width:1.0;"/><text fill="#000000" font-family="sans-serif" font-size="14" lengthAdjust="spacing" text-decoration="underline" textLength="75" x="1098.5" y="180.7988">FONT_SIZE</text><ellipse cx="1089.5" cy="194.1797" fill="none" rx="3" ry="3" style="stroke:#038048;stroke-width:1.0;"/><text fill="#000000" font-family="sans-serif" font-size="14" lengthAdjust="spacing" text-decoration="underline" textLength="69" x="1098.5" y="198.4082">FONT_DIR</text><ellipse cx="1089.5" cy="211.7891" fill="none" rx="3" ry="3" style="stroke:#038048;stroke-width:1.0;"/><text fill="#000000" font-family="sans-serif" font-size="14" lengthAdjust="spacing" text-decoration="underline" textLength="83" x="1098.5" y="216.0176">FONT_DATA</text><text fill="#000000" font-family="sans-serif" font-size="14" lengthAdjust="spacing" textLength="4" x="1098.5" y="233.627"></text><ellipse cx="1089.5" cy="247.0078" fill="none" rx="3" ry="3" style="stroke:#038048;stroke-width:1.0;"/><text fill="#000000" font-family="sans-serif" font-size="14" lengthAdjust="spacing" text-decoration="underline" textLength="59" x="1098.5" y="251.2363">COLORS</text><text fill="#000000" font-family="sans-serif" font-size="14" lengthAdjust="spacing" textLength="4" x="1098.5" y="268.8457"></text><ellipse cx="1089.5" cy="282.2266" fill="none" rx="3" ry="3" style="stroke:#038048;stroke-width:1.0;"/><text fill="#000000" font-family="sans-serif" font-size="14" lengthAdjust="spacing" text-decoration="underline" textLength="98" x="1098.5" y="286.4551">KeyBindings.up</text><ellipse cx="1089.5" cy="299.8359" fill="none" rx="3" ry="3" style="stroke:#038048;stroke-width:1.0;"/><text fill="#000000" font-family="sans-serif" font-size="14" lengthAdjust="spacing" text-decoration="underline" textLength="101" x="1098.5" y="304.0645">KeyBindings.left</text><ellipse cx="1089.5" cy="317.4453" fill="none" rx="3" ry="3" style="stroke:#038048;stroke-width:1.0;"/><text fill="#000000" font-family="sans-serif" font-size="14" lengthAdjust="spacing" text-decoration="underline" textLength="110" x="1098.5" y="321.6738">KeyBindings.right</text><text fill="#000000" font-family="sans-serif" font-size="14" lengthAdjust="spacing" textLength="4" x="1098.5" y="339.2832"></text><ellipse cx="1089.5" cy="352.6641" fill="none" rx="3" ry="3" style="stroke:#038048;stroke-width:1.0;"/><text fill="#000000" font-family="sans-serif" font-size="14" lengthAdjust="spacing" text-decoration="underline" textLength="143" x="1098.5" y="356.8926">Graphics.EnableLights</text><ellipse cx="1089.5" cy="370.2734" fill="none" rx="3" ry="3" style="stroke:#038048;stroke-width:1.0;"/><text fill="#000000" font-family="sans-serif" font-size="14" lengthAdjust="spacing" text-decoration="underline" textLength="165" x="1098.5" y="374.502">Graphics.WindowAutoSize</text><ellipse cx="1089.5" cy="387.8828" fill="none" rx="3" ry="3" style="stroke:#038048;stroke-width:1.0;"/><text fill="#000000" font-family="sans-serif" font-size="14" lengthAdjust="spacing" text-decoration="underline" textLength="150" x="1098.5" y="392.1113">Graphics.WindowHeight</text><ellipse cx="1089.5" cy="405.4922" fill="none" rx="3" ry="3" style="stroke:#038048;stroke-width:1.0;"/><text fill="#000000" font-family="sans-serif" font-size="14" lengthAdjust="spacing" text-decoration="underline" textLength="146" x="1098.5" y="409.7207">Graphics.WindowWidth</text><ellipse cx="1089.5" cy="423.1016" fill="none" rx="3" ry="3" style="stroke:#038048;stroke-width:1.0;"/><text fill="#000000" font-family="sans-serif" font-size="14" lengthAdjust="spacing" text-decoration="underline" textLength="113" x="1098.5" y="427.3301">Graphics.MaxFPS</text><ellipse cx="1089.5" cy="440.7109" fill="none" rx="3" ry="3" style="stroke:#038048;stroke-width:1.0;"/><text fill="#000000" font-family="sans-serif" font-size="14" lengthAdjust="spacing" text-decoration="underline" textLength="127" x="1098.5" y="444.9395">Graphics.Fullscreen</text><text fill="#000000" font-family="sans-serif" font-size="14" lengthAdjust="spacing" textLength="4" x="1098.5" y="462.5488"></text><ellipse cx="1089.5" cy="475.9297" fill="none" rx="3" ry="3" style="stroke:#038048;stroke-width:1.0;"/><text fill="#000000" font-family="sans-serif" font-size="14" lengthAdjust="spacing" text-decoration="underline" textLength="136" x="1098.5" y="480.1582">Graphics.WindowSize</text><ellipse cx="1089.5" cy="493.5391" fill="none" rx="3" ry="3" style="stroke:#038048;stroke-width:1.0;"/><text fill="#000000" font-family="sans-serif" font-size="14" lengthAdjust="spacing" text-decoration="underline" textLength="143" x="1098.5" y="497.7676">Graphics.WindowRatio</text><line style="stroke:#181818;stroke-width:0.5;" x1="1079.5" x2="1268.5" y1="504.8438" y2="504.8438"/></g><!--MD5=[94634895fa90c77593e5779e08f0602a]
link Ennemy to LightSource--><g id="link_Ennemy_LightSource"><path codeLine="172" d="M1045.21,1215.73 C1034.93,1236.04 1017.95,1265.42 997,1286 C960.29,1322.05 937.19,1312.66 898,1346 C882.43,1359.25 867.4,1376.03 855.14,1391.13 " fill="none" id="Ennemy-to-LightSource" style="stroke:#181818;stroke-width:1.0;"/><polygon fill="none" points="860.41,1395.75,842.59,1407.2,849.38,1387.13,860.41,1395.75" style="stroke:#181818;stroke-width:1.0;"/></g><!--MD5=[c25d0ca860c3e667447af925a095b201]
link Ennemy to GameObject--><g id="link_Ennemy_GameObject"><path codeLine="173" d="M1049.06,1215.75 C1040.24,1245.32 1024.52,1298.02 1010.86,1343.82 " fill="none" id="Ennemy-to-GameObject" style="stroke:#181818;stroke-width:1.0;"/><polygon fill="none" points="1017.48,1346.1,1005.06,1363.27,1004.07,1342.1,1017.48,1346.1" style="stroke:#181818;stroke-width:1.0;"/></g><!--MD5=[35a981dc07a895d5cbf0d557ff454305]
link Player to LightSource--><g id="link_Player_LightSource"><path codeLine="175" d="M927.22,1224.6 C906.26,1267.23 869.22,1342.58 846.23,1389.35 " fill="none" id="Player-to-LightSource" style="stroke:#181818;stroke-width:1.0;"/><polygon fill="none" points="852.43,1392.6,837.32,1407.46,839.87,1386.43,852.43,1392.6" style="stroke:#181818;stroke-width:1.0;"/></g><!--MD5=[9bc852ba268122706027acd503913ad0]
link Player to GameObject--><g id="link_Player_GameObject"><path codeLine="176" d="M948.66,1224.6 C954.03,1255.02 962.34,1302.1 969.66,1343.57 " fill="none" id="Player-to-GameObject" style="stroke:#181818;stroke-width:1.0;"/><polygon fill="none" points="976.57,1342.47,973.16,1363.38,962.79,1344.9,976.57,1342.47" style="stroke:#181818;stroke-width:1.0;"/></g><!--MD5=[a338a6dae8b24a34d86f4b113ca16979]
link MapElement to GameObject--><g id="link_MapElement_GameObject"><path codeLine="178" d="M832.51,1215.75 C853.97,1245.98 892.61,1300.39 925.62,1346.88 " fill="none" id="MapElement-to-GameObject" style="stroke:#181818;stroke-width:1.0;"/><polygon fill="none" points="931.39,1342.91,937.26,1363.27,919.97,1351.01,931.39,1342.91" style="stroke:#181818;stroke-width:1.0;"/></g><!--MD5=[95854458076a07c1c034456c16f62da2]
link Platform to MapElement--><g id="link_Platform_MapElement"><path codeLine="179" d="M862.73,984.27 C854.07,1022.5 836.69,1099.17 825.74,1147.5 " fill="none" id="Platform-to-MapElement" style="stroke:#181818;stroke-width:1.0;"/><polygon fill="none" points="832.53,1149.21,821.29,1167.17,818.88,1146.12,832.53,1149.21" style="stroke:#181818;stroke-width:1.0;"/></g><!--MD5=[7e5252b52b9404de2c8475911297dfd8]
link Lamp to MapElement--><g id="link_Lamp_MapElement"><path codeLine="180" d="M762.98,984.27 C772.81,1022.5 792.52,1099.17 804.95,1147.5 " fill="none" id="Lamp-to-MapElement" style="stroke:#181818;stroke-width:1.0;"/><polygon fill="none" points="811.8,1146.06,810,1167.17,798.24,1149.54,811.8,1146.06" style="stroke:#181818;stroke-width:1.0;"/></g><!--MD5=[f0f71169e29f78ad510716a8b05b5ab0]
link Lamp to LightSource--><g id="link_Lamp_LightSource"><path codeLine="181" d="M751.29,984.37 C739.06,1038.52 713.74,1176.32 743,1286 C753.22,1324.29 776.27,1362.98 795.49,1390.68 " fill="none" id="Lamp-to-LightSource" style="stroke:#181818;stroke-width:1.0;"/><polygon fill="none" points="801.37,1386.86,807.4,1407.18,790.01,1395.05,801.37,1386.86" style="stroke:#181818;stroke-width:1.0;"/></g><!--MD5=[d9145d513cb836dcde34eb0a20f8faaf]
link Game to pygame--><g id="link_Game_pygame"><path codeLine="183" d="M479.88,309.2 C381.78,374.07 210.05,497.23 94,634 C78.09,652.76 64.51,676.99 55.08,696.08 " fill="none" id="Game-to-pygame" style="stroke:#181818;stroke-width:1.0;"/><polygon fill="#181818" points="52.77,700.82,60.3081,694.4815,54.9601,696.3252,53.1164,690.9772,52.77,700.82" style="stroke:#181818;stroke-width:1.0;"/></g><!--MD5=[f2698cb2449232ffcdd54447548d51f1]
link Button to ButtonScript--><g id="link_Button_ButtonScript"><path codeLine="185" d="M463.6,1286.11 C470.51,1352.68 481.61,1444.02 497,1523.5 C500.05,1539.23 504.13,1556.13 508.19,1571.58 " fill="none" id="Button-to-ButtonScript" style="stroke:#181818;stroke-width:1.0;"/><polygon fill="#181818" points="509.57,1576.77,511.1267,1567.0449,508.287,1571.9374,503.3945,1569.0977,509.57,1576.77" style="stroke:#181818;stroke-width:1.0;"/></g><!--MD5=[6c29db72c472b221cf16471f7a56d175]
link Button to Text--><g id="link_Button_Text"><path codeLine="186" d="M434.56,1286.05 C417.16,1354.65 388.21,1448.5 346,1523.5 C336.27,1540.79 323.4,1557.87 310.51,1573 " fill="none" id="Button-to-Text" style="stroke:#181818;stroke-width:1.0;"/><polygon fill="#181818" points="307.24,1576.8,316.1341,1572.5699,310.494,1573.0037,310.0601,1567.3635,307.24,1576.8" style="stroke:#181818;stroke-width:1.0;"/></g><!--MD5=[23a057c1a004ea368317d8e5ff8d6680]
link ButtonManager to Button--><g id="link_ButtonManager_Button"><path codeLine="188" d="M469.19,1042.5 C467.67,1058.38 466.05,1075.18 464.49,1091.55 " fill="none" id="ButtonManager-Button" style="stroke:#181818;stroke-width:1.0;"/><polygon fill="#181818" points="464,1096.61,468.8318,1088.0278,464.472,1091.6323,460.8675,1087.2726,464,1096.61" style="stroke:#181818;stroke-width:1.0;"/><polygon fill="#181818" points="469.7,1037.1,464.8438,1045.6684,469.2138,1042.0763,472.8059,1046.4463,469.7,1037.1" style="stroke:#181818;stroke-width:1.0;"/></g><!--MD5=[48c10748b94b86d37ec310815fbb16c3]
link ButtonManager to Input--><g id="link_ButtonManager_Input"><path codeLine="189" d="M502.06,1037.35 C508.17,1056.74 514.52,1077.58 520,1097 C543.14,1178.99 566.29,1273.26 582.23,1340.61 " fill="none" id="ButtonManager-to-Input" style="stroke:#181818;stroke-width:1.0;"/><polygon fill="#181818" points="583.47,1345.82,585.2818,1336.1392,582.3145,1340.9554,577.4983,1337.9881,583.47,1345.82" style="stroke:#181818;stroke-width:1.0;"/></g><!--MD5=[093562f5c23cdb6ca554249ec21583d8]
reverse link GuiComponent to HealthBar--><g id="link_GuiComponent_HealthBar"><path codeLine="191" d="M203,1262.14 C203,1303.57 203,1354.69 203,1389.66 " fill="none" id="GuiComponent-backto-HealthBar" style="stroke:#181818;stroke-width:1.0;"/><polygon fill="none" points="196,1262.1,203,1242.1,210,1262.1,196,1262.1" style="stroke:#181818;stroke-width:1.0;"/></g><!--MD5=[c69116d6d77f28e133a25e0281af6586]
link Gui to GuiComponent--><g id="link_Gui_GuiComponent"><path codeLine="193" d="M225.3,779.27 C220.58,866.33 210.86,1045.57 205.96,1135.91 " fill="none" id="Gui-to-GuiComponent" style="stroke:#181818;stroke-width:1.0;"/><polygon fill="#181818" points="205.69,1140.93,210.172,1132.1601,205.961,1135.9374,202.1837,1131.7264,205.69,1140.93" style="stroke:#181818;stroke-width:1.0;"/></g><!--MD5=[5b53361150cdc459122b06357adce276]
link Game to Menu--><g id="link_Game_Menu"><path codeLine="195" d="M539.4,328.33 C517.21,418.35 478.17,576.72 456.53,664.49 " fill="none" id="Game-to-Menu" style="stroke:#181818;stroke-width:1.0;"/><polygon fill="#181818" points="455.33,669.39,461.3503,661.5954,456.5158,664.5326,453.5785,659.6981,455.33,669.39" style="stroke:#181818;stroke-width:1.0;"/></g><!--MD5=[d1d5ad51ad4dce9d07d26d95ceb06ac0]
link Game to Input--><g id="link_Game_Input"><path codeLine="196" d="M572.74,328.11 C593.73,418.31 627,583.93 627,727.5 C627,727.5 627,727.5 627,961 C627,1093.3 617.38,1246.3 610.32,1340.74 " fill="none" id="Game-to-Input" style="stroke:#181818;stroke-width:1.0;"/><polygon fill="#181818" points="609.94,1345.75,614.6223,1337.0853,610.3257,1340.7649,606.6461,1336.4683,609.94,1345.75" style="stroke:#181818;stroke-width:1.0;"/></g><!--MD5=[bf69e1a07197ad305e13645410bdc507]
link Game to World--><g id="link_Game_World"><path codeLine="197" d="M568.07,328.11 C580.67,382.71 604.95,459.26 649,513 C724.37,604.95 850.12,668.28 928.32,701.16 " fill="none" id="Game-to-World" style="stroke:#181818;stroke-width:1.0;"/><polygon fill="#181818" points="932.94,703.08,926.1786,695.9187,928.3267,701.1519,923.0936,703.3,932.94,703.08" style="stroke:#181818;stroke-width:1.0;"/></g><!--MD5=[cb8ed5912fb51a205c0eecaa53b1b824]
link Game to EventManager--><g id="link_Game_EventManager"><path codeLine="198" d="M563.78,328.18 C573.88,385.11 596.9,464.93 649,513 C795.54,648.21 903.01,544.14 1081,634 C1089.45,638.27 1097.89,643.17 1106.16,648.46 " fill="none" id="Game-to-EventManager" style="stroke:#181818;stroke-width:1.0;"/><polygon fill="#181818" points="1110.73,651.43,1105.355,643.1771,1106.5348,648.7096,1101.0024,649.8894,1110.73,651.43" style="stroke:#181818;stroke-width:1.0;"/></g><!--MD5=[b3d411465dcc934a73e8187fc1d61c3d]
link Game to ButtonManager--><g id="link_Game_ButtonManager"><path codeLine="199" d="M556.92,328.26 C557.2,434.36 553.02,646.66 520,823 C516.63,841.02 511.61,859.99 506.18,877.86 " fill="none" id="Game-to-ButtonManager" style="stroke:#181818;stroke-width:1.0;"/><polygon fill="#181818" points="504.63,882.87,511.0983,875.443,506.0994,878.0908,503.4516,873.0919,504.63,882.87" style="stroke:#181818;stroke-width:1.0;"/></g><!--MD5=[118fa730dcef6c59e742d1e02640f4a4]
link Game to Gui--><g id="link_Game_Gui"><path codeLine="200" d="M508.66,328.33 C443.15,421.51 326.14,587.91 266,673.45 " fill="none" id="Game-to-Gui" style="stroke:#181818;stroke-width:1.0;"/><polygon fill="#181818" points="263,677.72,271.4476,672.6566,265.875,673.6292,264.9024,668.0566,263,677.72" style="stroke:#181818;stroke-width:1.0;"/></g><!--MD5=[2c55e48cc9931e55cfa2f12d967e60b8]
link Menu to ButtonManager--><g id="link_Menu_ButtonManager"><path codeLine="202" d="M450.13,787.71 C454.4,814.95 459.57,847.86 464.22,877.52 " fill="none" id="Menu-to-ButtonManager" style="stroke:#181818;stroke-width:1.0;"/><polygon fill="#181818" points="465.02,882.63,467.5532,873.1125,464.2328,877.6924,459.653,874.372,465.02,882.63" style="stroke:#181818;stroke-width:1.0;"/></g><!--MD5=[80c9ccb2d10a4109f964dafbacc0fb66]
link Menu to Text--><g id="link_Menu_Text"><path codeLine="203" d="M408.81,787.69 C394.58,815.73 378.87,850.31 369,883 C329.74,1012.95 280.99,1422.68 264.1,1571.66 " fill="none" id="Menu-to-Text" style="stroke:#181818;stroke-width:1.0;"/><polygon fill="#181818" points="263.51,1576.85,268.5116,1568.3656,264.081,1571.8827,260.5639,1567.4521,263.51,1576.85" style="stroke:#181818;stroke-width:1.0;"/></g><!--MD5=[75bffc53310ade7ba5149c4d99236d8a]
link World to Camera--><g id="link_World_Camera"><path codeLine="205" d="M1063.2,806.53 C1081.19,830.1 1099.68,856.76 1114,883 C1157.75,963.16 1191.08,1063.73 1209.84,1127.58 " fill="none" id="World-to-Camera" style="stroke:#181818;stroke-width:1.0;"/><polygon fill="#181818" points="1211.28,1132.49,1212.5732,1122.7264,1209.8669,1127.6939,1204.8994,1124.9875,1211.28,1132.49" style="stroke:#181818;stroke-width:1.0;"/></g><!--MD5=[7babb4e25d8a782887d4cf87d54a78bb]
link World to MapElement--><g id="link_World_MapElement"><path codeLine="206" d="M986.77,823.15 C976.87,885.77 959.01,968.85 928,1037 C915.92,1063.54 867.1,1126.65 838.05,1163.14 " fill="none" id="World-to-MapElement" style="stroke:#181818;stroke-width:1.0;"/><polygon fill="#181818" points="834.61,1167.46,843.3436,1162.9076,837.723,1163.5473,837.0833,1157.9267,834.61,1167.46" style="stroke:#181818;stroke-width:1.0;"/></g><!--MD5=[aca5a173d2d190bf3d99ef9c47e1596c]
link World to Player--><g id="link_World_Player"><path codeLine="207" d="M1001.58,823.29 C1002.37,884.5 1000.48,965.95 989,1037 C982.41,1077.8 967.98,1122.94 957.02,1153.64 " fill="none" id="World-to-Player" style="stroke:#181818;stroke-width:1.0;"/><polygon fill="#181818" points="955.3,1158.44,962.1158,1151.3305,956.9961,1153.7365,954.5902,1148.6168,955.3,1158.44" style="stroke:#181818;stroke-width:1.0;"/></g><!--MD5=[33c5510fd3eba1d590322701af1faa07]
link World to Ennemy--><g id="link_World_Ennemy"><path codeLine="208" d="M1012.58,823.18 C1015.5,842.92 1018.45,863.63 1021,883 C1034.53,985.69 1047.53,1108.1 1053.13,1162.29 " fill="none" id="World-to-Ennemy" style="stroke:#181818;stroke-width:1.0;"/><polygon fill="#181818" points="1053.64,1167.32,1056.6927,1157.9562,1053.1255,1162.3465,1048.7351,1158.7794,1053.64,1167.32" style="stroke:#181818;stroke-width:1.0;"/></g><!--MD5=[bdec60038b08aa639f8301916286bcd9]
@startuml game

package pygame{}

package assets.scripts {
    abstract GameObject{
        + position
        + size
        + position_in_matrix
        + rect
        + texture
    }
    abstract MapElement{}

    class LightSource{}

    class Platform{}
    class Lamp{}


    class Player{
        + Health
    }
    class Ennemy{}

}

class Camera {
    + link
    + rect
    + update()
    + transform_coord(position)
}

class Game {
    + world
    + loop()
    - __process_events()
    - __update()
    - __draw()
}

class Gui {
    {static} + components
    {static} + add_component(GuiComponent)
    {static} + draw(Surface)
}

class HealthBar{
    + texture
    + link
}

abstract GuiComponent{
    + position
    + size
    + surface()
}

class ButtonScript{
    + fct
    + args
    + set_quit(game)
}

class Button{
    + id
    + label
    + hitbox
    + state
    + font
    + label_color

    + draw()
    + run()
}

class ButtonManager{
    {static} + update()
    {static} + is_alive(id)
    {static} + set_alive(id)
    {static} + kill(id)
    {static} + unregister_buttons(id)
    {static} + register_buttons(Button)
}

class World{
    + enemies
    + player
    + background
    + blocks
    + deserialize(file)
    + update()
    + update_pos(obj)
    + draw()
}

class Menu {
    {static} + is_open(id)
    {static} + close_menu(id)
    {static} + open_menu(id)
    {static} + is_open(id)
}

class Text {
    {static} + fonts
    {static} + divide_string(text)
    {static} + display_message(text, position, font, color, divide)
}

class Input{
    {static} + is_pressed(key)
    {static} + is_pressed_once(key)
    {static} + is_clicked(button)
    {static} + is_clicked_once(button)
    {static} + get_motion()
    {static} + get_mouse()
    {static} + update()
}

class EventManager{
    {static} + listeners
    {static} + event_queue

    {static} + initialize(custom_events)
    {static} + flush()
    {static} + register_listener(listener)
    {static} + push_event(custom_events)
}

class GameState {
    {static} + DEFAULT_FONT
    {static} + WINDOW 
    {static} + GAME_SURFACE
    {static} + PhysicDT
    {static} + GraphicDT
    {static} + save
    {static} + camera

    {static} + initialize()   
    {static} - __initialize_game_configuration(GameConfig,attributes)
}

class GameConfig {
    {static} + BLOCK_SIZE
    {static} + Gravity 
    {static} + NB_BLOCK_HEIGHT
    {static} + BLOCKS_HEIGHT
    {static} + ambient_color_world
    {static} + PhysicTick

    {static} + FONT_SIZE
    {static} + FONT_DIR
    {static} + FONT_DATA

    {static} + COLORS

    {static} + KeyBindings.up
    {static} + KeyBindings.left
    {static} + KeyBindings.right
    
    {static} + Graphics.EnableLights
    {static} + Graphics.WindowAutoSize
    {static} + Graphics.WindowHeight
    {static} + Graphics.WindowWidth
    {static} + Graphics.MaxFPS
    {static} + Graphics.Fullscreen

    {static} + Graphics.WindowSize
    {static} + Graphics.WindowRatio
}

Ennemy        - -|> LightSource
Ennemy        - -|> GameObject

Player        - -|> LightSource
Player        - -|> GameObject

MapElement    - -|> GameObject
Platform      - -|> MapElement
Lamp          - -|> MapElement
Lamp          - -|> LightSource

Game          - - -> pygame

Button        - - -> ButtonScript
Button        - - -> Text

ButtonManager <- -> Button
ButtonManager - - -> Input

GuiComponent     <|- - HealthBar

Gui - - -> GuiComponent

Game          - - -> Menu
Game          - - -> Input
Game          - - -> World
Game          - - -> EventManager
Game          - - -> ButtonManager
Game          - - -> Gui

Menu - -> ButtonManager
Menu - - -> Text

World         - - -> Camera
World         - - -> MapElement
World         - - -> Player
World         - - -> Ennemy

@enduml

PlantUML version 1.2022.7(Mon Aug 22 19:01:30 CEST 2022)
(GPL source distribution)
Java Runtime: Java(TM) SE Runtime Environment
JVM: Java HotSpot(TM) 64-Bit Server VM
Default Encoding: UTF-8
Language: fr
Country: FR
--></g></svg>