<?xml version="1.0" encoding="UTF-8" standalone="no"?><svg xmlns="http://www.w3.org/2000/svg" xmlns:xlink="http://www.w3.org/1999/xlink" contentScriptType="application/ecmascript" contentStyleType="text/css" height="890px" preserveAspectRatio="none" style="width:1357px;height:890px;" version="1.1" viewBox="0 0 1357 890" width="1357px" zoomAndPan="magnify"><defs><filter height="300%" id="f1jnpe785glyiz" width="300%" x="-1" y="-1"><feGaussianBlur result="blurOut" stdDeviation="2.0"/><feColorMatrix in="blurOut" result="blurOut2" type="matrix" values="0 0 0 0 0 0 0 0 0 0 0 0 0 0 0 0 0 0 .4 0"/><feOffset dx="4.0" dy="4.0" in="blurOut2" result="blurOut3"/><feBlend in="SourceGraphic" in2="blurOut3" mode="normal"/></filter></defs><g><!--MD5=[452be1aaf8b94e2bc4204d466ef769a4]
class Camera--><rect codeLine="2" fill="#FEFECE" filter="url(#f1jnpe785glyiz)" height="103.3438" id="Camera" style="stroke:#A80036;stroke-width:1.5;" width="152" x="177.5" y="773"/><ellipse cx="226.75" cy="789" fill="#ADD1B2" rx="11" ry="11" style="stroke:#A80036;stroke-width:1.0;"/><path d="M229.5156,784.875 Q229.6719,784.6563 229.8594,784.5469 Q230.0469,784.4375 230.2656,784.4375 Q230.6406,784.4375 230.875,784.7031 Q231.1094,784.9531 231.1094,785.5625 L231.1094,787.0156 Q231.1094,787.625 230.875,787.8906 Q230.6406,788.1563 230.2656,788.1563 Q229.9219,788.1563 229.7188,787.9531 Q229.5156,787.7656 229.4063,787.25 Q229.3594,786.8906 229.1719,786.7031 Q228.8438,786.3281 228.2344,786.1094 Q227.625,785.8906 227,785.8906 Q226.2344,785.8906 225.5938,786.2188 Q224.9688,786.5469 224.4688,787.2969 Q223.9844,788.0469 223.9844,789.0781 L223.9844,790.1719 Q223.9844,791.4063 224.875,792.2344 Q225.7656,793.0469 227.3594,793.0469 Q228.2969,793.0469 228.9531,792.7969 Q229.3438,792.6406 229.7656,792.2031 Q230.0313,791.9375 230.1719,791.8594 Q230.3281,791.7813 230.5313,791.7813 Q230.8594,791.7813 231.1094,792.0469 Q231.375,792.2969 231.375,792.6406 Q231.375,792.9844 231.0313,793.3906 Q230.5313,793.9688 229.7344,794.2969 Q228.6563,794.75 227.3594,794.75 Q225.8438,794.75 224.6406,794.125 Q223.6563,793.625 222.9688,792.5625 Q222.2813,791.4844 222.2813,790.2031 L222.2813,789.0469 Q222.2813,787.7188 222.8906,786.5781 Q223.5156,785.4219 224.6094,784.8125 Q225.7031,784.1875 226.9375,784.1875 Q227.6719,784.1875 228.3125,784.3594 Q228.9688,784.5156 229.5156,784.875 Z " fill="#000000"/><text fill="#000000" font-family="sans-serif" font-size="12" lengthAdjust="spacing" textLength="45" x="247.25" y="793.9102">Camera</text><line style="stroke:#A80036;stroke-width:1.5;" x1="178.5" x2="328.5" y1="805" y2="805"/><ellipse cx="188.5" cy="816" fill="none" rx="3" ry="3" style="stroke:#038048;stroke-width:1.0;"/><text fill="#000000" font-family="sans-serif" font-size="11" lengthAdjust="spacing" textLength="15" x="197.5" y="820.4189">link</text><ellipse cx="188.5" cy="829.8359" fill="none" rx="3" ry="3" style="stroke:#038048;stroke-width:1.0;"/><text fill="#000000" font-family="sans-serif" font-size="11" lengthAdjust="spacing" textLength="19" x="197.5" y="834.2549">rect</text><line style="stroke:#A80036;stroke-width:1.5;" x1="178.5" x2="328.5" y1="840.6719" y2="840.6719"/><ellipse cx="188.5" cy="851.6719" fill="#84BE84" rx="3" ry="3" style="stroke:#038048;stroke-width:1.0;"/><text fill="#000000" font-family="sans-serif" font-size="11" lengthAdjust="spacing" textLength="41" x="197.5" y="856.0908">update()</text><ellipse cx="188.5" cy="865.5078" fill="#84BE84" rx="3" ry="3" style="stroke:#038048;stroke-width:1.0;"/><text fill="#000000" font-family="sans-serif" font-size="11" lengthAdjust="spacing" textLength="126" x="197.5" y="869.9268">transform_coord(position)</text><!--MD5=[48e88c162c5505361c629eb6ff3812a8]
class GameState--><rect codeLine="9" fill="#FEFECE" filter="url(#f1jnpe785glyiz)" height="172.5234" id="GameState" style="stroke:#A80036;stroke-width:1.5;" width="291" x="9" y="409"/><ellipse cx="119.25" cy="425" fill="#ADD1B2" rx="11" ry="11" style="stroke:#A80036;stroke-width:1.0;"/><path d="M122.0156,420.875 Q122.1719,420.6563 122.3594,420.5469 Q122.5469,420.4375 122.7656,420.4375 Q123.1406,420.4375 123.375,420.7031 Q123.6094,420.9531 123.6094,421.5625 L123.6094,423.0156 Q123.6094,423.625 123.375,423.8906 Q123.1406,424.1563 122.7656,424.1563 Q122.4219,424.1563 122.2188,423.9531 Q122.0156,423.7656 121.9063,423.25 Q121.8594,422.8906 121.6719,422.7031 Q121.3438,422.3281 120.7344,422.1094 Q120.125,421.8906 119.5,421.8906 Q118.7344,421.8906 118.0938,422.2188 Q117.4688,422.5469 116.9688,423.2969 Q116.4844,424.0469 116.4844,425.0781 L116.4844,426.1719 Q116.4844,427.4063 117.375,428.2344 Q118.2656,429.0469 119.8594,429.0469 Q120.7969,429.0469 121.4531,428.7969 Q121.8438,428.6406 122.2656,428.2031 Q122.5313,427.9375 122.6719,427.8594 Q122.8281,427.7813 123.0313,427.7813 Q123.3594,427.7813 123.6094,428.0469 Q123.875,428.2969 123.875,428.6406 Q123.875,428.9844 123.5313,429.3906 Q123.0313,429.9688 122.2344,430.2969 Q121.1563,430.75 119.8594,430.75 Q118.3438,430.75 117.1406,430.125 Q116.1563,429.625 115.4688,428.5625 Q114.7813,427.4844 114.7813,426.2031 L114.7813,425.0469 Q114.7813,423.7188 115.3906,422.5781 Q116.0156,421.4219 117.1094,420.8125 Q118.2031,420.1875 119.4375,420.1875 Q120.1719,420.1875 120.8125,420.3594 Q121.4688,420.5156 122.0156,420.875 Z " fill="#000000"/><text fill="#000000" font-family="sans-serif" font-size="12" lengthAdjust="spacing" textLength="62" x="139.75" y="429.9102">GameState</text><line style="stroke:#A80036;stroke-width:1.5;" x1="10" x2="299" y1="441" y2="441"/><ellipse cx="20" cy="452" fill="none" rx="3" ry="3" style="stroke:#038048;stroke-width:1.0;"/><text fill="#000000" font-family="sans-serif" font-size="11" lengthAdjust="spacing" textLength="79" x="29" y="456.4189">DEFAULT_FONT</text><ellipse cx="20" cy="465.8359" fill="none" rx="3" ry="3" style="stroke:#038048;stroke-width:1.0;"/><text fill="#000000" font-family="sans-serif" font-size="11" lengthAdjust="spacing" textLength="44" x="29" y="470.2549">WINDOW</text><ellipse cx="20" cy="479.6719" fill="none" rx="3" ry="3" style="stroke:#038048;stroke-width:1.0;"/><text fill="#000000" font-family="sans-serif" font-size="11" lengthAdjust="spacing" textLength="84" x="29" y="484.0908">GAME_SURFACE</text><ellipse cx="20" cy="493.5078" fill="none" rx="3" ry="3" style="stroke:#038048;stroke-width:1.0;"/><text fill="#000000" font-family="sans-serif" font-size="11" lengthAdjust="spacing" textLength="45" x="29" y="497.9268">PhysicDT</text><ellipse cx="20" cy="507.3438" fill="none" rx="3" ry="3" style="stroke:#038048;stroke-width:1.0;"/><text fill="#000000" font-family="sans-serif" font-size="11" lengthAdjust="spacing" textLength="9" x="29" y="511.7627">dt</text><ellipse cx="20" cy="521.1797" fill="none" rx="3" ry="3" style="stroke:#038048;stroke-width:1.0;"/><text fill="#000000" font-family="sans-serif" font-size="11" lengthAdjust="spacing" textLength="24" x="29" y="525.5986">save</text><polygon fill="none" points="20,530.0156,24,534.0156,20,538.0156,16,534.0156" style="stroke:#B38D22;stroke-width:1.0;"/><text fill="#000000" font-family="sans-serif" font-size="11" lengthAdjust="spacing" textLength="36" x="29" y="539.4346">camera</text><line style="stroke:#A80036;stroke-width:1.5;" x1="10" x2="299" y1="545.8516" y2="545.8516"/><ellipse cx="20" cy="556.8516" fill="#84BE84" rx="3" ry="3" style="stroke:#038048;stroke-width:1.0;"/><text fill="#000000" font-family="sans-serif" font-size="11" lengthAdjust="spacing" textLength="45" x="29" y="561.2705">initialize()</text><rect fill="#F24D5C" height="6" style="stroke:#C82930;stroke-width:1.0;" width="6" x="17" y="567.6875"/><text fill="#000000" font-family="sans-serif" font-size="11" lengthAdjust="spacing" textLength="265" x="29" y="575.1064">__initialize_game_configuration(GameConfig,attributes)</text><!--MD5=[58882ceeb1d92afba821ffded6531010]
class GameConfig--><rect codeLine="22" fill="#FEFECE" filter="url(#f1jnpe785glyiz)" height="435.4063" id="GameConfig" style="stroke:#A80036;stroke-width:1.5;" width="291" x="407" y="278"/><ellipse cx="513.25" cy="294" fill="#ADD1B2" rx="11" ry="11" style="stroke:#A80036;stroke-width:1.0;"/><path d="M516.0156,289.875 Q516.1719,289.6563 516.3594,289.5469 Q516.5469,289.4375 516.7656,289.4375 Q517.1406,289.4375 517.375,289.7031 Q517.6094,289.9531 517.6094,290.5625 L517.6094,292.0156 Q517.6094,292.625 517.375,292.8906 Q517.1406,293.1563 516.7656,293.1563 Q516.4219,293.1563 516.2188,292.9531 Q516.0156,292.7656 515.9063,292.25 Q515.8594,291.8906 515.6719,291.7031 Q515.3438,291.3281 514.7344,291.1094 Q514.125,290.8906 513.5,290.8906 Q512.7344,290.8906 512.0938,291.2188 Q511.4688,291.5469 510.9688,292.2969 Q510.4844,293.0469 510.4844,294.0781 L510.4844,295.1719 Q510.4844,296.4063 511.375,297.2344 Q512.2656,298.0469 513.8594,298.0469 Q514.7969,298.0469 515.4531,297.7969 Q515.8438,297.6406 516.2656,297.2031 Q516.5313,296.9375 516.6719,296.8594 Q516.8281,296.7813 517.0313,296.7813 Q517.3594,296.7813 517.6094,297.0469 Q517.875,297.2969 517.875,297.6406 Q517.875,297.9844 517.5313,298.3906 Q517.0313,298.9688 516.2344,299.2969 Q515.1563,299.75 513.8594,299.75 Q512.3438,299.75 511.1406,299.125 Q510.1563,298.625 509.4688,297.5625 Q508.7813,296.4844 508.7813,295.2031 L508.7813,294.0469 Q508.7813,292.7188 509.3906,291.5781 Q510.0156,290.4219 511.1094,289.8125 Q512.2031,289.1875 513.4375,289.1875 Q514.1719,289.1875 514.8125,289.3594 Q515.4688,289.5156 516.0156,289.875 Z " fill="#000000"/><text fill="#000000" font-family="sans-serif" font-size="12" lengthAdjust="spacing" textLength="70" x="533.75" y="298.9102">GameConfig</text><line style="stroke:#A80036;stroke-width:1.5;" x1="408" x2="697" y1="310" y2="310"/><polygon fill="none" points="418,316,422,320,418,324,414,320" style="stroke:#B38D22;stroke-width:1.0;"/><text fill="#000000" font-family="sans-serif" font-size="11" lengthAdjust="spacing" textLength="63" x="427" y="325.4189">BLOCK_SIZE</text><polygon fill="none" points="418,329.8359,422,333.8359,418,337.8359,414,333.8359" style="stroke:#B38D22;stroke-width:1.0;"/><text fill="#000000" font-family="sans-serif" font-size="11" lengthAdjust="spacing" textLength="35" x="427" y="339.2549">Gravity</text><polygon fill="none" points="418,343.6719,422,347.6719,418,351.6719,414,347.6719" style="stroke:#B38D22;stroke-width:1.0;"/><text fill="#000000" font-family="sans-serif" font-size="11" lengthAdjust="spacing" textLength="97" x="427" y="353.0908">NB_BLOCK_HEIGHT</text><polygon fill="none" points="418,357.5078,422,361.5078,418,365.5078,414,361.5078" style="stroke:#B38D22;stroke-width:1.0;"/><text fill="#000000" font-family="sans-serif" font-size="11" lengthAdjust="spacing" textLength="84" x="427" y="366.9268">BLOCKS_HEIGHT</text><polygon fill="none" points="418,371.3438,422,375.3438,418,379.3438,414,375.3438" style="stroke:#B38D22;stroke-width:1.0;"/><text fill="#000000" font-family="sans-serif" font-size="11" lengthAdjust="spacing" textLength="101" x="427" y="380.7627">ambient_color_world</text><polygon fill="none" points="418,385.1797,422,389.1797,418,393.1797,414,389.1797" style="stroke:#B38D22;stroke-width:1.0;"/><text fill="#000000" font-family="sans-serif" font-size="11" lengthAdjust="spacing" textLength="51" x="427" y="394.5986">PhysicTick</text><text fill="#000000" font-family="sans-serif" font-size="11" lengthAdjust="spacing" textLength="0" x="430" y="408.4346"/><ellipse cx="418" cy="417.8516" fill="none" rx="3" ry="3" style="stroke:#038048;stroke-width:1.0;"/><text fill="#000000" font-family="sans-serif" font-size="11" lengthAdjust="spacing" textLength="55" x="427" y="422.2705">FONT_SIZE</text><polygon fill="none" points="418,426.6875,422,430.6875,418,434.6875,414,430.6875" style="stroke:#B38D22;stroke-width:1.0;"/><text fill="#000000" font-family="sans-serif" font-size="11" lengthAdjust="spacing" textLength="49" x="427" y="436.1064">FONT_DIR</text><polygon fill="none" points="418,440.5234,422,444.5234,418,448.5234,414,444.5234" style="stroke:#B38D22;stroke-width:1.0;"/><text fill="#000000" font-family="sans-serif" font-size="11" lengthAdjust="spacing" textLength="62" x="427" y="449.9424">FONT_DATA</text><text fill="#000000" font-family="sans-serif" font-size="11" lengthAdjust="spacing" textLength="0" x="430" y="463.7783"/><polygon fill="none" points="418,468.1953,422,472.1953,418,476.1953,414,472.1953" style="stroke:#B38D22;stroke-width:1.0;"/><text fill="#000000" font-family="sans-serif" font-size="11" lengthAdjust="spacing" textLength="43" x="427" y="477.6143">COLORS</text><text fill="#000000" font-family="sans-serif" font-size="11" lengthAdjust="spacing" textLength="0" x="430" y="491.4502"/><ellipse cx="418" cy="500.8672" fill="none" rx="3" ry="3" style="stroke:#038048;stroke-width:1.0;"/><text fill="#000000" font-family="sans-serif" font-size="11" lengthAdjust="spacing" textLength="75" x="427" y="505.2861">KeyBindings.up</text><ellipse cx="418" cy="514.7031" fill="none" rx="3" ry="3" style="stroke:#038048;stroke-width:1.0;"/><text fill="#000000" font-family="sans-serif" font-size="11" lengthAdjust="spacing" textLength="78" x="427" y="519.1221">KeyBindings.left</text><ellipse cx="418" cy="528.5391" fill="none" rx="3" ry="3" style="stroke:#038048;stroke-width:1.0;"/><text fill="#000000" font-family="sans-serif" font-size="11" lengthAdjust="spacing" textLength="84" x="427" y="532.958">KeyBindings.right</text><text fill="#000000" font-family="sans-serif" font-size="11" lengthAdjust="spacing" textLength="0" x="430" y="546.7939"/><ellipse cx="418" cy="556.2109" fill="none" rx="3" ry="3" style="stroke:#038048;stroke-width:1.0;"/><text fill="#000000" font-family="sans-serif" font-size="11" lengthAdjust="spacing" textLength="108" x="427" y="560.6299">Graphics.EnableLights</text><ellipse cx="418" cy="570.0469" fill="none" rx="3" ry="3" style="stroke:#038048;stroke-width:1.0;"/><text fill="#000000" font-family="sans-serif" font-size="11" lengthAdjust="spacing" textLength="131" x="427" y="574.4658">Graphics.WindowAutoSize</text><ellipse cx="418" cy="583.8828" fill="none" rx="3" ry="3" style="stroke:#038048;stroke-width:1.0;"/><text fill="#000000" font-family="sans-serif" font-size="11" lengthAdjust="spacing" textLength="117" x="427" y="588.3018">Graphics.WindowHeight</text><ellipse cx="418" cy="597.7188" fill="none" rx="3" ry="3" style="stroke:#038048;stroke-width:1.0;"/><text fill="#000000" font-family="sans-serif" font-size="11" lengthAdjust="spacing" textLength="114" x="427" y="602.1377">Graphics.WindowWidth</text><ellipse cx="418" cy="611.5547" fill="none" rx="3" ry="3" style="stroke:#038048;stroke-width:1.0;"/><text fill="#000000" font-family="sans-serif" font-size="11" lengthAdjust="spacing" textLength="86" x="427" y="615.9736">Graphics.MaxFPS</text><ellipse cx="418" cy="625.3906" fill="none" rx="3" ry="3" style="stroke:#038048;stroke-width:1.0;"/><text fill="#000000" font-family="sans-serif" font-size="11" lengthAdjust="spacing" textLength="97" x="427" y="629.8096">Graphics.Fullscreen</text><text fill="#000000" font-family="sans-serif" font-size="11" lengthAdjust="spacing" textLength="0" x="430" y="643.6455"/><polygon fill="none" points="418,648.0625,422,652.0625,418,656.0625,414,652.0625" style="stroke:#B38D22;stroke-width:1.0;"/><text fill="#000000" font-family="sans-serif" font-size="11" lengthAdjust="spacing" textLength="61" x="427" y="657.4814">WindowSize</text><polygon fill="none" points="418,661.8984,422,665.8984,418,669.8984,414,665.8984" style="stroke:#B38D22;stroke-width:1.0;"/><text fill="#000000" font-family="sans-serif" font-size="11" lengthAdjust="spacing" textLength="64" x="427" y="671.3174">WindowRatio</text><line style="stroke:#A80036;stroke-width:1.5;" x1="408" x2="697" y1="677.7344" y2="677.7344"/><ellipse cx="418" cy="688.7344" fill="#84BE84" rx="3" ry="3" style="stroke:#038048;stroke-width:1.0;"/><text fill="#000000" font-family="sans-serif" font-size="11" lengthAdjust="spacing" textLength="45" x="427" y="693.1533">initialize()</text><rect fill="#F24D5C" height="6" style="stroke:#C82930;stroke-width:1.0;" width="6" x="415" y="699.5703"/><text fill="#000000" font-family="sans-serif" font-size="11" lengthAdjust="spacing" textLength="265" x="427" y="706.9893">__initialize_game_configuration(GameConfig,attributes)</text><!--MD5=[b6dcce5e5ef3c84b0b048d11301373dd]
class Game--><rect codeLine="54" fill="#FEFECE" filter="url(#f1jnpe785glyiz)" height="103.3438" id="Game" style="stroke:#A80036;stroke-width:1.5;" width="125" x="654" y="7"/><ellipse cx="695.55" cy="23" fill="#ADD1B2" rx="11" ry="11" style="stroke:#A80036;stroke-width:1.0;"/><path d="M698.3156,18.875 Q698.4719,18.6563 698.6594,18.5469 Q698.8469,18.4375 699.0656,18.4375 Q699.4406,18.4375 699.675,18.7031 Q699.9094,18.9531 699.9094,19.5625 L699.9094,21.0156 Q699.9094,21.625 699.675,21.8906 Q699.4406,22.1563 699.0656,22.1563 Q698.7219,22.1563 698.5188,21.9531 Q698.3156,21.7656 698.2063,21.25 Q698.1594,20.8906 697.9719,20.7031 Q697.6438,20.3281 697.0344,20.1094 Q696.425,19.8906 695.8,19.8906 Q695.0344,19.8906 694.3938,20.2188 Q693.7688,20.5469 693.2688,21.2969 Q692.7844,22.0469 692.7844,23.0781 L692.7844,24.1719 Q692.7844,25.4063 693.675,26.2344 Q694.5656,27.0469 696.1594,27.0469 Q697.0969,27.0469 697.7531,26.7969 Q698.1438,26.6406 698.5656,26.2031 Q698.8313,25.9375 698.9719,25.8594 Q699.1281,25.7813 699.3313,25.7813 Q699.6594,25.7813 699.9094,26.0469 Q700.175,26.2969 700.175,26.6406 Q700.175,26.9844 699.8313,27.3906 Q699.3313,27.9688 698.5344,28.2969 Q697.4563,28.75 696.1594,28.75 Q694.6438,28.75 693.4406,28.125 Q692.4563,27.625 691.7688,26.5625 Q691.0813,25.4844 691.0813,24.2031 L691.0813,23.0469 Q691.0813,21.7188 691.6906,20.5781 Q692.3156,19.4219 693.4094,18.8125 Q694.5031,18.1875 695.7375,18.1875 Q696.4719,18.1875 697.1125,18.3594 Q697.7688,18.5156 698.3156,18.875 Z " fill="#000000"/><text fill="#000000" font-family="sans-serif" font-size="12" lengthAdjust="spacing" textLength="34" x="715.45" y="27.9102">Game</text><line style="stroke:#A80036;stroke-width:1.5;" x1="655" x2="778" y1="39" y2="39"/><line style="stroke:#A80036;stroke-width:1.5;" x1="655" x2="778" y1="47" y2="47"/><ellipse cx="665" cy="58" fill="#84BE84" rx="3" ry="3" style="stroke:#038048;stroke-width:1.0;"/><text fill="#000000" font-family="sans-serif" font-size="11" lengthAdjust="spacing" textLength="28" x="674" y="62.4189">loop()</text><rect fill="#F24D5C" height="6" style="stroke:#C82930;stroke-width:1.0;" width="6" x="662" y="68.8359"/><text fill="#000000" font-family="sans-serif" font-size="11" lengthAdjust="spacing" textLength="99" x="674" y="76.2549">__process_events()</text><rect fill="#F24D5C" height="6" style="stroke:#C82930;stroke-width:1.0;" width="6" x="662" y="82.6719"/><text fill="#000000" font-family="sans-serif" font-size="11" lengthAdjust="spacing" textLength="53" x="674" y="90.0908">__update()</text><rect fill="#F24D5C" height="6" style="stroke:#C82930;stroke-width:1.0;" width="6" x="662" y="96.5078"/><text fill="#000000" font-family="sans-serif" font-size="11" lengthAdjust="spacing" textLength="46" x="674" y="103.9268">__draw()</text><!--MD5=[39e210c475049242b8b400da12e133ca]
class pygame--><rect fill="#FEFECE" filter="url(#f1jnpe785glyiz)" height="48" id="pygame" style="stroke:#A80036;stroke-width:1.5;" width="76" x="315.5" y="170"/><ellipse cx="330.5" cy="186" fill="#ADD1B2" rx="11" ry="11" style="stroke:#A80036;stroke-width:1.0;"/><path d="M333.2656,181.875 Q333.4219,181.6563 333.6094,181.5469 Q333.7969,181.4375 334.0156,181.4375 Q334.3906,181.4375 334.625,181.7031 Q334.8594,181.9531 334.8594,182.5625 L334.8594,184.0156 Q334.8594,184.625 334.625,184.8906 Q334.3906,185.1563 334.0156,185.1563 Q333.6719,185.1563 333.4688,184.9531 Q333.2656,184.7656 333.1563,184.25 Q333.1094,183.8906 332.9219,183.7031 Q332.5938,183.3281 331.9844,183.1094 Q331.375,182.8906 330.75,182.8906 Q329.9844,182.8906 329.3438,183.2188 Q328.7188,183.5469 328.2188,184.2969 Q327.7344,185.0469 327.7344,186.0781 L327.7344,187.1719 Q327.7344,188.4063 328.625,189.2344 Q329.5156,190.0469 331.1094,190.0469 Q332.0469,190.0469 332.7031,189.7969 Q333.0938,189.6406 333.5156,189.2031 Q333.7813,188.9375 333.9219,188.8594 Q334.0781,188.7813 334.2813,188.7813 Q334.6094,188.7813 334.8594,189.0469 Q335.125,189.2969 335.125,189.6406 Q335.125,189.9844 334.7813,190.3906 Q334.2813,190.9688 333.4844,191.2969 Q332.4063,191.75 331.1094,191.75 Q329.5938,191.75 328.3906,191.125 Q327.4063,190.625 326.7188,189.5625 Q326.0313,188.4844 326.0313,187.2031 L326.0313,186.0469 Q326.0313,184.7188 326.6406,183.5781 Q327.2656,182.4219 328.3594,181.8125 Q329.4531,181.1875 330.6875,181.1875 Q331.4219,181.1875 332.0625,181.3594 Q332.7188,181.5156 333.2656,181.875 Z " fill="#000000"/><text fill="#000000" font-family="sans-serif" font-size="12" lengthAdjust="spacing" textLength="44" x="344.5" y="190.9102">pygame</text><line style="stroke:#A80036;stroke-width:1.5;" x1="316.5" x2="390.5" y1="202" y2="202"/><line style="stroke:#A80036;stroke-width:1.5;" x1="316.5" x2="390.5" y1="210" y2="210"/><!--MD5=[bf9b5ccb176bace698f3dde67229ba63]
class json--><rect fill="#FEFECE" filter="url(#f1jnpe785glyiz)" height="48" id="json" style="stroke:#A80036;stroke-width:1.5;" width="56" x="207.5" y="170"/><ellipse cx="222.5" cy="186" fill="#ADD1B2" rx="11" ry="11" style="stroke:#A80036;stroke-width:1.0;"/><path d="M225.2656,181.875 Q225.4219,181.6563 225.6094,181.5469 Q225.7969,181.4375 226.0156,181.4375 Q226.3906,181.4375 226.625,181.7031 Q226.8594,181.9531 226.8594,182.5625 L226.8594,184.0156 Q226.8594,184.625 226.625,184.8906 Q226.3906,185.1563 226.0156,185.1563 Q225.6719,185.1563 225.4688,184.9531 Q225.2656,184.7656 225.1563,184.25 Q225.1094,183.8906 224.9219,183.7031 Q224.5938,183.3281 223.9844,183.1094 Q223.375,182.8906 222.75,182.8906 Q221.9844,182.8906 221.3438,183.2188 Q220.7188,183.5469 220.2188,184.2969 Q219.7344,185.0469 219.7344,186.0781 L219.7344,187.1719 Q219.7344,188.4063 220.625,189.2344 Q221.5156,190.0469 223.1094,190.0469 Q224.0469,190.0469 224.7031,189.7969 Q225.0938,189.6406 225.5156,189.2031 Q225.7813,188.9375 225.9219,188.8594 Q226.0781,188.7813 226.2813,188.7813 Q226.6094,188.7813 226.8594,189.0469 Q227.125,189.2969 227.125,189.6406 Q227.125,189.9844 226.7813,190.3906 Q226.2813,190.9688 225.4844,191.2969 Q224.4063,191.75 223.1094,191.75 Q221.5938,191.75 220.3906,191.125 Q219.4063,190.625 218.7188,189.5625 Q218.0313,188.4844 218.0313,187.2031 L218.0313,186.0469 Q218.0313,184.7188 218.6406,183.5781 Q219.2656,182.4219 220.3594,181.8125 Q221.4531,181.1875 222.6875,181.1875 Q223.4219,181.1875 224.0625,181.3594 Q224.7188,181.5156 225.2656,181.875 Z " fill="#000000"/><text fill="#000000" font-family="sans-serif" font-size="12" lengthAdjust="spacing" textLength="24" x="236.5" y="190.9102">json</text><line style="stroke:#A80036;stroke-width:1.5;" x1="208.5" x2="262.5" y1="202" y2="202"/><line style="stroke:#A80036;stroke-width:1.5;" x1="208.5" x2="262.5" y1="210" y2="210"/><!--MD5=[f0268dd29ee89052933f031546cb1cab]
class Menu--><rect fill="#FEFECE" filter="url(#f1jnpe785glyiz)" height="48" id="Menu" style="stroke:#A80036;stroke-width:1.5;" width="62" x="497.5" y="170"/><ellipse cx="512.5" cy="186" fill="#ADD1B2" rx="11" ry="11" style="stroke:#A80036;stroke-width:1.0;"/><path d="M515.2656,181.875 Q515.4219,181.6563 515.6094,181.5469 Q515.7969,181.4375 516.0156,181.4375 Q516.3906,181.4375 516.625,181.7031 Q516.8594,181.9531 516.8594,182.5625 L516.8594,184.0156 Q516.8594,184.625 516.625,184.8906 Q516.3906,185.1563 516.0156,185.1563 Q515.6719,185.1563 515.4688,184.9531 Q515.2656,184.7656 515.1563,184.25 Q515.1094,183.8906 514.9219,183.7031 Q514.5938,183.3281 513.9844,183.1094 Q513.375,182.8906 512.75,182.8906 Q511.9844,182.8906 511.3438,183.2188 Q510.7188,183.5469 510.2188,184.2969 Q509.7344,185.0469 509.7344,186.0781 L509.7344,187.1719 Q509.7344,188.4063 510.625,189.2344 Q511.5156,190.0469 513.1094,190.0469 Q514.0469,190.0469 514.7031,189.7969 Q515.0938,189.6406 515.5156,189.2031 Q515.7813,188.9375 515.9219,188.8594 Q516.0781,188.7813 516.2813,188.7813 Q516.6094,188.7813 516.8594,189.0469 Q517.125,189.2969 517.125,189.6406 Q517.125,189.9844 516.7813,190.3906 Q516.2813,190.9688 515.4844,191.2969 Q514.4063,191.75 513.1094,191.75 Q511.5938,191.75 510.3906,191.125 Q509.4063,190.625 508.7188,189.5625 Q508.0313,188.4844 508.0313,187.2031 L508.0313,186.0469 Q508.0313,184.7188 508.6406,183.5781 Q509.2656,182.4219 510.3594,181.8125 Q511.4531,181.1875 512.6875,181.1875 Q513.4219,181.1875 514.0625,181.3594 Q514.7188,181.5156 515.2656,181.875 Z " fill="#000000"/><text fill="#000000" font-family="sans-serif" font-size="12" lengthAdjust="spacing" textLength="30" x="526.5" y="190.9102">Menu</text><line style="stroke:#A80036;stroke-width:1.5;" x1="498.5" x2="558.5" y1="202" y2="202"/><line style="stroke:#A80036;stroke-width:1.5;" x1="498.5" x2="558.5" y1="210" y2="210"/><!--MD5=[3cab58e622330109321580dbb0b85605]
class Input--><rect fill="#FEFECE" filter="url(#f1jnpe785glyiz)" height="48" id="Input" style="stroke:#A80036;stroke-width:1.5;" width="59" x="595" y="170"/><ellipse cx="610" cy="186" fill="#ADD1B2" rx="11" ry="11" style="stroke:#A80036;stroke-width:1.0;"/><path d="M612.7656,181.875 Q612.9219,181.6563 613.1094,181.5469 Q613.2969,181.4375 613.5156,181.4375 Q613.8906,181.4375 614.125,181.7031 Q614.3594,181.9531 614.3594,182.5625 L614.3594,184.0156 Q614.3594,184.625 614.125,184.8906 Q613.8906,185.1563 613.5156,185.1563 Q613.1719,185.1563 612.9688,184.9531 Q612.7656,184.7656 612.6563,184.25 Q612.6094,183.8906 612.4219,183.7031 Q612.0938,183.3281 611.4844,183.1094 Q610.875,182.8906 610.25,182.8906 Q609.4844,182.8906 608.8438,183.2188 Q608.2188,183.5469 607.7188,184.2969 Q607.2344,185.0469 607.2344,186.0781 L607.2344,187.1719 Q607.2344,188.4063 608.125,189.2344 Q609.0156,190.0469 610.6094,190.0469 Q611.5469,190.0469 612.2031,189.7969 Q612.5938,189.6406 613.0156,189.2031 Q613.2813,188.9375 613.4219,188.8594 Q613.5781,188.7813 613.7813,188.7813 Q614.1094,188.7813 614.3594,189.0469 Q614.625,189.2969 614.625,189.6406 Q614.625,189.9844 614.2813,190.3906 Q613.7813,190.9688 612.9844,191.2969 Q611.9063,191.75 610.6094,191.75 Q609.0938,191.75 607.8906,191.125 Q606.9063,190.625 606.2188,189.5625 Q605.5313,188.4844 605.5313,187.2031 L605.5313,186.0469 Q605.5313,184.7188 606.1406,183.5781 Q606.7656,182.4219 607.8594,181.8125 Q608.9531,181.1875 610.1875,181.1875 Q610.9219,181.1875 611.5625,181.3594 Q612.2188,181.5156 612.7656,181.875 Z " fill="#000000"/><text fill="#000000" font-family="sans-serif" font-size="12" lengthAdjust="spacing" textLength="27" x="624" y="190.9102">Input</text><line style="stroke:#A80036;stroke-width:1.5;" x1="596" x2="653" y1="202" y2="202"/><line style="stroke:#A80036;stroke-width:1.5;" x1="596" x2="653" y1="210" y2="210"/><!--MD5=[02a8746eb15ecbb4566dafa16ea4db73]
class Text--><rect fill="#FEFECE" filter="url(#f1jnpe785glyiz)" height="48" id="Text" style="stroke:#A80036;stroke-width:1.5;" width="54" x="689.5" y="170"/><ellipse cx="704.5" cy="186" fill="#ADD1B2" rx="11" ry="11" style="stroke:#A80036;stroke-width:1.0;"/><path d="M707.2656,181.875 Q707.4219,181.6563 707.6094,181.5469 Q707.7969,181.4375 708.0156,181.4375 Q708.3906,181.4375 708.625,181.7031 Q708.8594,181.9531 708.8594,182.5625 L708.8594,184.0156 Q708.8594,184.625 708.625,184.8906 Q708.3906,185.1563 708.0156,185.1563 Q707.6719,185.1563 707.4688,184.9531 Q707.2656,184.7656 707.1563,184.25 Q707.1094,183.8906 706.9219,183.7031 Q706.5938,183.3281 705.9844,183.1094 Q705.375,182.8906 704.75,182.8906 Q703.9844,182.8906 703.3438,183.2188 Q702.7188,183.5469 702.2188,184.2969 Q701.7344,185.0469 701.7344,186.0781 L701.7344,187.1719 Q701.7344,188.4063 702.625,189.2344 Q703.5156,190.0469 705.1094,190.0469 Q706.0469,190.0469 706.7031,189.7969 Q707.0938,189.6406 707.5156,189.2031 Q707.7813,188.9375 707.9219,188.8594 Q708.0781,188.7813 708.2813,188.7813 Q708.6094,188.7813 708.8594,189.0469 Q709.125,189.2969 709.125,189.6406 Q709.125,189.9844 708.7813,190.3906 Q708.2813,190.9688 707.4844,191.2969 Q706.4063,191.75 705.1094,191.75 Q703.5938,191.75 702.3906,191.125 Q701.4063,190.625 700.7188,189.5625 Q700.0313,188.4844 700.0313,187.2031 L700.0313,186.0469 Q700.0313,184.7188 700.6406,183.5781 Q701.2656,182.4219 702.3594,181.8125 Q703.4531,181.1875 704.6875,181.1875 Q705.4219,181.1875 706.0625,181.3594 Q706.7188,181.5156 707.2656,181.875 Z " fill="#000000"/><text fill="#000000" font-family="sans-serif" font-size="12" lengthAdjust="spacing" textLength="22" x="718.5" y="190.9102">Text</text><line style="stroke:#A80036;stroke-width:1.5;" x1="690.5" x2="742.5" y1="202" y2="202"/><line style="stroke:#A80036;stroke-width:1.5;" x1="690.5" x2="742.5" y1="210" y2="210"/><!--MD5=[1b1562314ef50edf921bad0cd204186a]
class World--><rect fill="#FEFECE" filter="url(#f1jnpe785glyiz)" height="48" id="World" style="stroke:#A80036;stroke-width:1.5;" width="64" x="778.5" y="170"/><ellipse cx="793.5" cy="186" fill="#ADD1B2" rx="11" ry="11" style="stroke:#A80036;stroke-width:1.0;"/><path d="M796.2656,181.875 Q796.4219,181.6563 796.6094,181.5469 Q796.7969,181.4375 797.0156,181.4375 Q797.3906,181.4375 797.625,181.7031 Q797.8594,181.9531 797.8594,182.5625 L797.8594,184.0156 Q797.8594,184.625 797.625,184.8906 Q797.3906,185.1563 797.0156,185.1563 Q796.6719,185.1563 796.4688,184.9531 Q796.2656,184.7656 796.1563,184.25 Q796.1094,183.8906 795.9219,183.7031 Q795.5938,183.3281 794.9844,183.1094 Q794.375,182.8906 793.75,182.8906 Q792.9844,182.8906 792.3438,183.2188 Q791.7188,183.5469 791.2188,184.2969 Q790.7344,185.0469 790.7344,186.0781 L790.7344,187.1719 Q790.7344,188.4063 791.625,189.2344 Q792.5156,190.0469 794.1094,190.0469 Q795.0469,190.0469 795.7031,189.7969 Q796.0938,189.6406 796.5156,189.2031 Q796.7813,188.9375 796.9219,188.8594 Q797.0781,188.7813 797.2813,188.7813 Q797.6094,188.7813 797.8594,189.0469 Q798.125,189.2969 798.125,189.6406 Q798.125,189.9844 797.7813,190.3906 Q797.2813,190.9688 796.4844,191.2969 Q795.4063,191.75 794.1094,191.75 Q792.5938,191.75 791.3906,191.125 Q790.4063,190.625 789.7188,189.5625 Q789.0313,188.4844 789.0313,187.2031 L789.0313,186.0469 Q789.0313,184.7188 789.6406,183.5781 Q790.2656,182.4219 791.3594,181.8125 Q792.4531,181.1875 793.6875,181.1875 Q794.4219,181.1875 795.0625,181.3594 Q795.7188,181.5156 796.2656,181.875 Z " fill="#000000"/><text fill="#000000" font-family="sans-serif" font-size="12" lengthAdjust="spacing" textLength="32" x="807.5" y="190.9102">World</text><line style="stroke:#A80036;stroke-width:1.5;" x1="779.5" x2="841.5" y1="202" y2="202"/><line style="stroke:#A80036;stroke-width:1.5;" x1="779.5" x2="841.5" y1="210" y2="210"/><!--MD5=[2742dbc0843c4b48c131b0dc6c54c810]
class threading--><rect fill="#FEFECE" filter="url(#f1jnpe785glyiz)" height="48" id="threading" style="stroke:#A80036;stroke-width:1.5;" width="84" x="877.5" y="170"/><ellipse cx="892.5" cy="186" fill="#ADD1B2" rx="11" ry="11" style="stroke:#A80036;stroke-width:1.0;"/><path d="M895.2656,181.875 Q895.4219,181.6563 895.6094,181.5469 Q895.7969,181.4375 896.0156,181.4375 Q896.3906,181.4375 896.625,181.7031 Q896.8594,181.9531 896.8594,182.5625 L896.8594,184.0156 Q896.8594,184.625 896.625,184.8906 Q896.3906,185.1563 896.0156,185.1563 Q895.6719,185.1563 895.4688,184.9531 Q895.2656,184.7656 895.1563,184.25 Q895.1094,183.8906 894.9219,183.7031 Q894.5938,183.3281 893.9844,183.1094 Q893.375,182.8906 892.75,182.8906 Q891.9844,182.8906 891.3438,183.2188 Q890.7188,183.5469 890.2188,184.2969 Q889.7344,185.0469 889.7344,186.0781 L889.7344,187.1719 Q889.7344,188.4063 890.625,189.2344 Q891.5156,190.0469 893.1094,190.0469 Q894.0469,190.0469 894.7031,189.7969 Q895.0938,189.6406 895.5156,189.2031 Q895.7813,188.9375 895.9219,188.8594 Q896.0781,188.7813 896.2813,188.7813 Q896.6094,188.7813 896.8594,189.0469 Q897.125,189.2969 897.125,189.6406 Q897.125,189.9844 896.7813,190.3906 Q896.2813,190.9688 895.4844,191.2969 Q894.4063,191.75 893.1094,191.75 Q891.5938,191.75 890.3906,191.125 Q889.4063,190.625 888.7188,189.5625 Q888.0313,188.4844 888.0313,187.2031 L888.0313,186.0469 Q888.0313,184.7188 888.6406,183.5781 Q889.2656,182.4219 890.3594,181.8125 Q891.4531,181.1875 892.6875,181.1875 Q893.4219,181.1875 894.0625,181.3594 Q894.7188,181.5156 895.2656,181.875 Z " fill="#000000"/><text fill="#000000" font-family="sans-serif" font-size="12" lengthAdjust="spacing" textLength="52" x="906.5" y="190.9102">threading</text><line style="stroke:#A80036;stroke-width:1.5;" x1="878.5" x2="960.5" y1="202" y2="202"/><line style="stroke:#A80036;stroke-width:1.5;" x1="878.5" x2="960.5" y1="210" y2="210"/><!--MD5=[99e5d0319d94059708e42fb64bcac062]
class EventManager--><rect fill="#FEFECE" filter="url(#f1jnpe785glyiz)" height="48" id="EventManager" style="stroke:#A80036;stroke-width:1.5;" width="110" x="996.5" y="170"/><ellipse cx="1011.5" cy="186" fill="#ADD1B2" rx="11" ry="11" style="stroke:#A80036;stroke-width:1.0;"/><path d="M1014.2656,181.875 Q1014.4219,181.6563 1014.6094,181.5469 Q1014.7969,181.4375 1015.0156,181.4375 Q1015.3906,181.4375 1015.625,181.7031 Q1015.8594,181.9531 1015.8594,182.5625 L1015.8594,184.0156 Q1015.8594,184.625 1015.625,184.8906 Q1015.3906,185.1563 1015.0156,185.1563 Q1014.6719,185.1563 1014.4688,184.9531 Q1014.2656,184.7656 1014.1563,184.25 Q1014.1094,183.8906 1013.9219,183.7031 Q1013.5938,183.3281 1012.9844,183.1094 Q1012.375,182.8906 1011.75,182.8906 Q1010.9844,182.8906 1010.3438,183.2188 Q1009.7188,183.5469 1009.2188,184.2969 Q1008.7344,185.0469 1008.7344,186.0781 L1008.7344,187.1719 Q1008.7344,188.4063 1009.625,189.2344 Q1010.5156,190.0469 1012.1094,190.0469 Q1013.0469,190.0469 1013.7031,189.7969 Q1014.0938,189.6406 1014.5156,189.2031 Q1014.7813,188.9375 1014.9219,188.8594 Q1015.0781,188.7813 1015.2813,188.7813 Q1015.6094,188.7813 1015.8594,189.0469 Q1016.125,189.2969 1016.125,189.6406 Q1016.125,189.9844 1015.7813,190.3906 Q1015.2813,190.9688 1014.4844,191.2969 Q1013.4063,191.75 1012.1094,191.75 Q1010.5938,191.75 1009.3906,191.125 Q1008.4063,190.625 1007.7188,189.5625 Q1007.0313,188.4844 1007.0313,187.2031 L1007.0313,186.0469 Q1007.0313,184.7188 1007.6406,183.5781 Q1008.2656,182.4219 1009.3594,181.8125 Q1010.4531,181.1875 1011.6875,181.1875 Q1012.4219,181.1875 1013.0625,181.3594 Q1013.7188,181.5156 1014.2656,181.875 Z " fill="#000000"/><text fill="#000000" font-family="sans-serif" font-size="12" lengthAdjust="spacing" textLength="78" x="1025.5" y="190.9102">EventManager</text><line style="stroke:#A80036;stroke-width:1.5;" x1="997.5" x2="1105.5" y1="202" y2="202"/><line style="stroke:#A80036;stroke-width:1.5;" x1="997.5" x2="1105.5" y1="210" y2="210"/><!--MD5=[17251ebdb009ebc02df00ec809a95d6e]
class ButtonManager--><rect fill="#FEFECE" filter="url(#f1jnpe785glyiz)" height="48" id="ButtonManager" style="stroke:#A80036;stroke-width:1.5;" width="115" x="1142" y="170"/><ellipse cx="1157" cy="186" fill="#ADD1B2" rx="11" ry="11" style="stroke:#A80036;stroke-width:1.0;"/><path d="M1159.7656,181.875 Q1159.9219,181.6563 1160.1094,181.5469 Q1160.2969,181.4375 1160.5156,181.4375 Q1160.8906,181.4375 1161.125,181.7031 Q1161.3594,181.9531 1161.3594,182.5625 L1161.3594,184.0156 Q1161.3594,184.625 1161.125,184.8906 Q1160.8906,185.1563 1160.5156,185.1563 Q1160.1719,185.1563 1159.9688,184.9531 Q1159.7656,184.7656 1159.6563,184.25 Q1159.6094,183.8906 1159.4219,183.7031 Q1159.0938,183.3281 1158.4844,183.1094 Q1157.875,182.8906 1157.25,182.8906 Q1156.4844,182.8906 1155.8438,183.2188 Q1155.2188,183.5469 1154.7188,184.2969 Q1154.2344,185.0469 1154.2344,186.0781 L1154.2344,187.1719 Q1154.2344,188.4063 1155.125,189.2344 Q1156.0156,190.0469 1157.6094,190.0469 Q1158.5469,190.0469 1159.2031,189.7969 Q1159.5938,189.6406 1160.0156,189.2031 Q1160.2813,188.9375 1160.4219,188.8594 Q1160.5781,188.7813 1160.7813,188.7813 Q1161.1094,188.7813 1161.3594,189.0469 Q1161.625,189.2969 1161.625,189.6406 Q1161.625,189.9844 1161.2813,190.3906 Q1160.7813,190.9688 1159.9844,191.2969 Q1158.9063,191.75 1157.6094,191.75 Q1156.0938,191.75 1154.8906,191.125 Q1153.9063,190.625 1153.2188,189.5625 Q1152.5313,188.4844 1152.5313,187.2031 L1152.5313,186.0469 Q1152.5313,184.7188 1153.1406,183.5781 Q1153.7656,182.4219 1154.8594,181.8125 Q1155.9531,181.1875 1157.1875,181.1875 Q1157.9219,181.1875 1158.5625,181.3594 Q1159.2188,181.5156 1159.7656,181.875 Z " fill="#000000"/><text fill="#000000" font-family="sans-serif" font-size="12" lengthAdjust="spacing" textLength="83" x="1171" y="190.9102">ButtonManager</text><line style="stroke:#A80036;stroke-width:1.5;" x1="1143" x2="1256" y1="202" y2="202"/><line style="stroke:#A80036;stroke-width:1.5;" x1="1143" x2="1256" y1="210" y2="210"/><!--MD5=[36b6a3ceda9c8330cf0107505e0e5600]
class Gui--><rect fill="#FEFECE" filter="url(#f1jnpe785glyiz)" height="48" id="Gui" style="stroke:#A80036;stroke-width:1.5;" width="51" x="1292" y="170"/><ellipse cx="1307" cy="186" fill="#ADD1B2" rx="11" ry="11" style="stroke:#A80036;stroke-width:1.0;"/><path d="M1309.7656,181.875 Q1309.9219,181.6563 1310.1094,181.5469 Q1310.2969,181.4375 1310.5156,181.4375 Q1310.8906,181.4375 1311.125,181.7031 Q1311.3594,181.9531 1311.3594,182.5625 L1311.3594,184.0156 Q1311.3594,184.625 1311.125,184.8906 Q1310.8906,185.1563 1310.5156,185.1563 Q1310.1719,185.1563 1309.9688,184.9531 Q1309.7656,184.7656 1309.6563,184.25 Q1309.6094,183.8906 1309.4219,183.7031 Q1309.0938,183.3281 1308.4844,183.1094 Q1307.875,182.8906 1307.25,182.8906 Q1306.4844,182.8906 1305.8438,183.2188 Q1305.2188,183.5469 1304.7188,184.2969 Q1304.2344,185.0469 1304.2344,186.0781 L1304.2344,187.1719 Q1304.2344,188.4063 1305.125,189.2344 Q1306.0156,190.0469 1307.6094,190.0469 Q1308.5469,190.0469 1309.2031,189.7969 Q1309.5938,189.6406 1310.0156,189.2031 Q1310.2813,188.9375 1310.4219,188.8594 Q1310.5781,188.7813 1310.7813,188.7813 Q1311.1094,188.7813 1311.3594,189.0469 Q1311.625,189.2969 1311.625,189.6406 Q1311.625,189.9844 1311.2813,190.3906 Q1310.7813,190.9688 1309.9844,191.2969 Q1308.9063,191.75 1307.6094,191.75 Q1306.0938,191.75 1304.8906,191.125 Q1303.9063,190.625 1303.2188,189.5625 Q1302.5313,188.4844 1302.5313,187.2031 L1302.5313,186.0469 Q1302.5313,184.7188 1303.1406,183.5781 Q1303.7656,182.4219 1304.8594,181.8125 Q1305.9531,181.1875 1307.1875,181.1875 Q1307.9219,181.1875 1308.5625,181.3594 Q1309.2188,181.5156 1309.7656,181.875 Z " fill="#000000"/><text fill="#000000" font-family="sans-serif" font-size="12" lengthAdjust="spacing" textLength="19" x="1321" y="190.9102">Gui</text><line style="stroke:#A80036;stroke-width:1.5;" x1="1293" x2="1342" y1="202" y2="202"/><line style="stroke:#A80036;stroke-width:1.5;" x1="1293" x2="1342" y1="210" y2="210"/><!--MD5=[4d79b954ff6ff018c9d8b0885aeae047]
link GameState to Camera--><path codeLine="62" d="M182.03,587.42 C199.54,645.28 221.67,718.35 236.62,767.76 " fill="none" id="GameState-Camera" style="stroke:#A80036;stroke-width:1.0;"/><polygon fill="#A80036" points="238.14,772.77,239.3451,762.9951,236.6836,767.9868,231.692,765.3253,238.14,772.77" style="stroke:#A80036;stroke-width:1.0;"/><polygon fill="#A80036" points="180.51,582.42,179.3131,592.1959,181.9704,587.202,186.9642,589.8593,180.51,582.42" style="stroke:#A80036;stroke-width:1.0;"/><!--MD5=[25842b5a203c4db9f6fbd0a5dc83c828]
reverse link pygame to GameState--><path codeLine="63" d="M335.28,222.42 C307.49,264.24 253.33,345.76 211.5,408.71 " fill="none" id="pygame-backto-GameState" style="stroke:#A80036;stroke-width:1.0;"/><polygon fill="#A80036" points="338.22,218,329.9078,223.2828,335.4531,222.1646,336.5713,227.7099,338.22,218" style="stroke:#A80036;stroke-width:1.0;"/><!--MD5=[58828daa6c550242ddb9974542f6e4dd]
reverse link json to GameState--><path codeLine="64" d="M227.95,222.92 C216.6,264.9 194.66,346.01 177.7,408.71 " fill="none" id="json-backto-GameState" style="stroke:#A80036;stroke-width:1.0;"/><polygon fill="#A80036" points="229.28,218,223.0567,225.6335,227.9668,222.8245,230.7759,227.7346,229.28,218" style="stroke:#A80036;stroke-width:1.0;"/><!--MD5=[bfbc4ec33dfecf51842a25cf67dbc244]
reverse link pygame to Camera--><path codeLine="66" d="M355.91,223.13 C361.79,302.33 372.58,533.14 317.5,713 C311.14,733.77 300.27,754.84 289.27,772.92 " fill="none" id="pygame-backto-Camera" style="stroke:#A80036;stroke-width:1.0;"/><polygon fill="#A80036" points="355.53,218.13,352.2097,227.4023,355.9015,223.1162,360.1876,226.808,355.53,218.13" style="stroke:#A80036;stroke-width:1.0;"/><!--MD5=[1ad7ac303dccd730f30b6f95696fada9]
reverse link pygame to GameConfig--><path codeLine="68" d="M371.67,222.34 C381.29,236.82 394.08,256.08 408.44,277.68 " fill="none" id="pygame-backto-GameConfig" style="stroke:#A80036;stroke-width:1.0;"/><polygon fill="#A80036" points="368.78,218,370.4287,227.7099,371.5469,222.1646,377.0922,223.2828,368.78,218" style="stroke:#A80036;stroke-width:1.0;"/><!--MD5=[82f4b6c3ba095909e7dbc467cfdc0969]
reverse link Game to GameState--><path codeLine="70" d="M648.59,64.04 C520.41,74.11 250.22,102.93 189.5,170 C131.69,233.85 130.19,336.28 138.51,408.96 " fill="none" id="Game-backto-GameState" style="stroke:#A80036;stroke-width:1.0;"/><polygon fill="#A80036" points="653.84,63.64,644.5583,60.3461,648.8549,64.0257,645.1753,68.3223,653.84,63.64" style="stroke:#A80036;stroke-width:1.0;"/><!--MD5=[0afc60441cad828d709207df36a0613d]
reverse link Game to Menu--><path codeLine="71" d="M649.79,106.87 C619.13,128.65 584.21,153.44 559.74,170.81 " fill="none" id="Game-backto-Menu" style="stroke:#A80036;stroke-width:1.0;"/><polygon fill="#A80036" points="653.9,103.95,644.2456,105.8974,649.8227,106.844,648.8761,112.4211,653.9,103.95" style="stroke:#A80036;stroke-width:1.0;"/><!--MD5=[b36071505c59a1a05fbaf19dd7fa7d34]
reverse link Game to pygame--><path codeLine="72" d="M648.75,84.42 C572.89,112.32 452.6,156.55 391.63,178.98 " fill="none" id="Game-backto-pygame" style="stroke:#A80036;stroke-width:1.0;"/><polygon fill="#A80036" points="653.68,82.6,643.8525,81.9524,648.9873,84.3259,646.6139,89.4607,653.68,82.6" style="stroke:#A80036;stroke-width:1.0;"/><!--MD5=[15fb2f4a1834d6006f5c3f4da34b61f6]
reverse link Game to GameConfig--><path codeLine="73" d="M648.94,70.81 C593.11,84.11 517.26,112.19 480.5,170 C459.83,202.5 454.83,240.12 458.74,277.97 " fill="none" id="Game-backto-GameConfig" style="stroke:#A80036;stroke-width:1.0;"/><polygon fill="#A80036" points="653.94,69.65,644.2643,67.8114,649.0722,70.792,646.0915,75.5999,653.94,69.65" style="stroke:#A80036;stroke-width:1.0;"/><!--MD5=[0fa25c50f4b26fee8f9cf7a956aa700f]
reverse link Game to Input--><path codeLine="74" d="M678.46,114.7 C665.17,133.98 650.97,154.59 640.47,169.83 " fill="none" id="Game-backto-Input" style="stroke:#A80036;stroke-width:1.0;"/><polygon fill="#A80036" points="681.46,110.35,673.0651,115.5003,678.6274,114.4702,679.6574,120.0325,681.46,110.35" style="stroke:#A80036;stroke-width:1.0;"/><!--MD5=[c36ee25edff8a15283f5fbdef484c495]
reverse link Game to Text--><path codeLine="75" d="M716.5,115.67 C716.5,134.68 716.5,154.85 716.5,169.83 " fill="none" id="Game-backto-Text" style="stroke:#A80036;stroke-width:1.0;"/><polygon fill="#A80036" points="716.5,110.35,712.5,119.35,716.5,115.35,720.5,119.35,716.5,110.35" style="stroke:#A80036;stroke-width:1.0;"/><!--MD5=[be295569d4ad116ead0981e0b853b85c]
reverse link Game to World--><path codeLine="76" d="M755.37,114.7 C768.95,133.98 783.46,154.59 794.18,169.83 " fill="none" id="Game-backto-World" style="stroke:#A80036;stroke-width:1.0;"/><polygon fill="#A80036" points="752.31,110.35,754.219,120.0121,755.1878,114.4388,760.7611,115.4076,752.31,110.35" style="stroke:#A80036;stroke-width:1.0;"/><!--MD5=[4bb74fcfb2b68aa970448bcfe2729ba8]
reverse link Game to threading--><path codeLine="77" d="M783.56,103.6 C817.22,125.74 856.62,151.65 884.31,169.86 " fill="none" id="Game-backto-threading" style="stroke:#A80036;stroke-width:1.0;"/><polygon fill="#A80036" points="779.06,100.64,784.3824,108.9269,783.2378,103.387,788.7776,102.2424,779.06,100.64" style="stroke:#A80036;stroke-width:1.0;"/><!--MD5=[8c52b8dbca1e2100cc4a38b86fbb4fcb]
reverse link Game to EventManager--><path codeLine="78" d="M783.94,86.38 C846.42,111.27 938.22,147.86 996.41,171.04 " fill="none" id="Game-backto-EventManager" style="stroke:#A80036;stroke-width:1.0;"/><polygon fill="#A80036" points="779.12,84.45,785.9907,91.5064,783.7624,86.307,788.9619,84.0786,779.12,84.45" style="stroke:#A80036;stroke-width:1.0;"/><!--MD5=[c91a9a7fc1892d151a4d496a169e4e33]
reverse link Game to ButtonManager--><path codeLine="79" d="M784.5,77.18 C865.64,98.45 1005.32,135.6 1124.5,170 C1130.13,171.62 1135.98,173.35 1141.82,175.1 " fill="none" id="Game-backto-ButtonManager" style="stroke:#A80036;stroke-width:1.0;"/><polygon fill="#A80036" points="779.24,75.8,786.9248,81.9599,784.0752,77.0732,788.9619,74.2236,779.24,75.8" style="stroke:#A80036;stroke-width:1.0;"/><!--MD5=[efa507183efea4db34a722f59b33459e]
reverse link Game to Gui--><path codeLine="80" d="M784.2,66.37 C890.95,78.64 1103.78,108.97 1274.5,170 C1280.24,172.05 1286.15,174.77 1291.69,177.61 " fill="none" id="Game-backto-Gui" style="stroke:#A80036;stroke-width:1.0;"/><polygon fill="#A80036" points="779.2,65.8,787.6844,70.8016,784.1673,66.371,788.5979,62.8539,779.2,65.8" style="stroke:#A80036;stroke-width:1.0;"/><!--MD5=[27cdad40f56ac16e90e130366cf7f08a]
@startuml Jeu

class Camera {
    + link
    + rect
    + update()
    + transform_coord(position)
}

class GameState {
    + DEFAULT_FONT
    + WINDOW 
    + GAME_SURFACE
    + PhysicDT
    + dt
    + save
    # camera

    + initialize()   
    - __initialize_game_configuration(GameConfig,attributes)
}

class GameConfig {
    # BLOCK_SIZE
    # Gravity 
    # NB_BLOCK_HEIGHT
    # BLOCKS_HEIGHT
    # ambient_color_world
    # PhysicTick

    + FONT_SIZE
    # FONT_DIR
    # FONT_DATA

    # COLORS

    + KeyBindings.up
    + KeyBindings.left
    + KeyBindings.right
    
    +Graphics.EnableLights
    +Graphics.WindowAutoSize
    +Graphics.WindowHeight
    +Graphics.WindowWidth
    +Graphics.MaxFPS
    +Graphics.Fullscreen

    # WindowSize
    # WindowRatio

    + initialize()
    - __initialize_game_configuration(GameConfig,attributes)
}

class Game {
    + loop()
    - __process_events()
    - __update()
    - __draw()
}


GameState <- -> Camera
pygame    <- - GameState
json      <- - GameState

pygame    <- - Camera

pygame    <- - GameConfig

Game      <- - GameState
Game      <- - Menu
Game      <- - pygame
Game      <- - GameConfig
Game      <- - Input
Game      <- - Text
Game      <- - World
Game      <- - threading
Game      <- - EventManager
Game      <- - ButtonManager
Game      <- - Gui


@enduml

PlantUML version 1.2021.00(Sun Jan 10 11:25:05 CET 2021)
(MIT source distribution)
Java Runtime: Java(TM) SE Runtime Environment
JVM: Java HotSpot(TM) 64-Bit Server VM
Default Encoding: UTF-8
Language: fr
Country: FR
--></g></svg>